solid OpenSCAD_Model
  facet normal -0 0 1
    outer loop
      vertex 0 110 10
      vertex 176 0 10
      vertex 176 110 10
    endloop
  endfacet
  facet normal 0 0 1
    outer loop
      vertex 176 0 10
      vertex 0 110 10
      vertex 0 0 10
    endloop
  endfacet
  facet normal 0 0 -1
    outer loop
      vertex 0 0 0
      vertex 176 110 0
      vertex 176 0 0
    endloop
  endfacet
  facet normal -0 0 -1
    outer loop
      vertex 176 110 0
      vertex 0 0 0
      vertex 0 110 0
    endloop
  endfacet
  facet normal 0 -1 0
    outer loop
      vertex 0 0 0
      vertex 176 0 10
      vertex 0 0 10
    endloop
  endfacet
  facet normal 0 -1 -0
    outer loop
      vertex 176 0 10
      vertex 0 0 0
      vertex 176 0 0
    endloop
  endfacet
  facet normal 1 -0 0
    outer loop
      vertex 176 0 10
      vertex 176 110 0
      vertex 176 110 10
    endloop
  endfacet
  facet normal 1 0 0
    outer loop
      vertex 176 110 0
      vertex 176 0 10
      vertex 176 0 0
    endloop
  endfacet
  facet normal 0 1 -0
    outer loop
      vertex 176 110 0
      vertex 0 110 10
      vertex 176 110 10
    endloop
  endfacet
  facet normal 0 1 0
    outer loop
      vertex 0 110 10
      vertex 176 110 0
      vertex 0 110 0
    endloop
  endfacet
  facet normal -1 0 0
    outer loop
      vertex 0 0 0
      vertex 0 110 10
      vertex 0 110 0
    endloop
  endfacet
  facet normal -1 -0 0
    outer loop
      vertex 0 110 10
      vertex 0 0 0
      vertex 0 0 10
    endloop
  endfacet
endsolid OpenSCAD_Model
