solid OpenSCAD_Model
  facet normal -0 0 1
    outer loop
      vertex 0 100 10
      vertex 160 0 10
      vertex 160 100 10
    endloop
  endfacet
  facet normal 0 0 1
    outer loop
      vertex 160 0 10
      vertex 0 100 10
      vertex 0 0 10
    endloop
  endfacet
  facet normal 0 0 -1
    outer loop
      vertex 0 0 0
      vertex 160 100 0
      vertex 160 0 0
    endloop
  endfacet
  facet normal -0 0 -1
    outer loop
      vertex 160 100 0
      vertex 0 0 0
      vertex 0 100 0
    endloop
  endfacet
  facet normal 0 -1 0
    outer loop
      vertex 0 0 0
      vertex 160 0 10
      vertex 0 0 10
    endloop
  endfacet
  facet normal 0 -1 -0
    outer loop
      vertex 160 0 10
      vertex 0 0 0
      vertex 160 0 0
    endloop
  endfacet
  facet normal 1 -0 0
    outer loop
      vertex 160 0 10
      vertex 160 100 0
      vertex 160 100 10
    endloop
  endfacet
  facet normal 1 0 0
    outer loop
      vertex 160 100 0
      vertex 160 0 10
      vertex 160 0 0
    endloop
  endfacet
  facet normal 0 1 -0
    outer loop
      vertex 160 100 0
      vertex 0 100 10
      vertex 160 100 10
    endloop
  endfacet
  facet normal 0 1 0
    outer loop
      vertex 0 100 10
      vertex 160 100 0
      vertex 0 100 0
    endloop
  endfacet
  facet normal -1 0 0
    outer loop
      vertex 0 0 0
      vertex 0 100 10
      vertex 0 100 0
    endloop
  endfacet
  facet normal -1 -0 0
    outer loop
      vertex 0 100 10
      vertex 0 0 0
      vertex 0 0 10
    endloop
  endfacet
endsolid OpenSCAD_Model
