solid OpenSCAD_Model
  facet normal -1 0 0
    outer loop
      vertex 0 0 0
      vertex 0 10 60
      vertex 0 10 0
    endloop
  endfacet
  facet normal -1 -0 0
    outer loop
      vertex 0 10 60
      vertex 0 0 0
      vertex 0 0 60
    endloop
  endfacet
  facet normal 0 0 -1
    outer loop
      vertex 10 0 50
      vertex 50 10 50
      vertex 50 0 50
    endloop
  endfacet
  facet normal -0 0 -1
    outer loop
      vertex 50 10 50
      vertex 10 0 50
      vertex 10 10 50
    endloop
  endfacet
  facet normal 1 -0 0
    outer loop
      vertex 10 0 50
      vertex 10 10 0
      vertex 10 10 50
    endloop
  endfacet
  facet normal 1 0 0
    outer loop
      vertex 10 10 0
      vertex 10 0 50
      vertex 10 0 0
    endloop
  endfacet
  facet normal 0 1 0
    outer loop
      vertex 60 10 60
      vertex 50 10 50
      vertex 0 10 60
    endloop
  endfacet
  facet normal 0 1 -0
    outer loop
      vertex 60 10 0
      vertex 50 10 50
      vertex 60 10 60
    endloop
  endfacet
  facet normal 0 1 0
    outer loop
      vertex 50 10 50
      vertex 60 10 0
      vertex 50 10 0
    endloop
  endfacet
  facet normal 0 1 -0
    outer loop
      vertex 10 10 50
      vertex 0 10 60
      vertex 50 10 50
    endloop
  endfacet
  facet normal 0 1 0
    outer loop
      vertex 0 10 0
      vertex 10 10 50
      vertex 10 10 0
    endloop
  endfacet
  facet normal 0 1 0
    outer loop
      vertex 10 10 50
      vertex 0 10 0
      vertex 0 10 60
    endloop
  endfacet
  facet normal 0 0 -1
    outer loop
      vertex 0 0 0
      vertex 10 10 0
      vertex 10 0 0
    endloop
  endfacet
  facet normal -0 0 -1
    outer loop
      vertex 10 10 0
      vertex 0 0 0
      vertex 0 10 0
    endloop
  endfacet
  facet normal 0 -1 0
    outer loop
      vertex 0 0 60
      vertex 10 0 50
      vertex 60 0 60
    endloop
  endfacet
  facet normal 0 -1 0
    outer loop
      vertex 0 0 0
      vertex 10 0 50
      vertex 0 0 60
    endloop
  endfacet
  facet normal 0 -1 -0
    outer loop
      vertex 10 0 50
      vertex 0 0 0
      vertex 10 0 0
    endloop
  endfacet
  facet normal 0 -1 0
    outer loop
      vertex 50 0 50
      vertex 60 0 60
      vertex 10 0 50
    endloop
  endfacet
  facet normal 0 -1 0
    outer loop
      vertex 60 0 0
      vertex 50 0 50
      vertex 50 0 0
    endloop
  endfacet
  facet normal 0 -1 0
    outer loop
      vertex 50 0 50
      vertex 60 0 0
      vertex 60 0 60
    endloop
  endfacet
  facet normal -1 0 0
    outer loop
      vertex 50 0 0
      vertex 50 10 50
      vertex 50 10 0
    endloop
  endfacet
  facet normal -1 -0 0
    outer loop
      vertex 50 10 50
      vertex 50 0 0
      vertex 50 0 50
    endloop
  endfacet
  facet normal 1 -0 0
    outer loop
      vertex 60 0 60
      vertex 60 10 0
      vertex 60 10 60
    endloop
  endfacet
  facet normal 1 0 0
    outer loop
      vertex 60 10 0
      vertex 60 0 60
      vertex 60 0 0
    endloop
  endfacet
  facet normal 0 0 -1
    outer loop
      vertex 50 0 0
      vertex 60 10 0
      vertex 60 0 0
    endloop
  endfacet
  facet normal -0 0 -1
    outer loop
      vertex 60 10 0
      vertex 50 0 0
      vertex 50 10 0
    endloop
  endfacet
  facet normal -0 0 1
    outer loop
      vertex 0 10 60
      vertex 60 0 60
      vertex 60 10 60
    endloop
  endfacet
  facet normal 0 0 1
    outer loop
      vertex 60 0 60
      vertex 0 10 60
      vertex 0 0 60
    endloop
  endfacet
endsolid OpenSCAD_Model
