solid OpenSCAD_Model
  facet normal 0 0 -1
    outer loop
      vertex 10 -5 0
      vertex -10 -5 0
      vertex -10 5 0
    endloop
  endfacet
  facet normal 0 0 -1
    outer loop
      vertex 10 -5 0
      vertex -10 5 0
      vertex 10 5 0
    endloop
  endfacet
  facet normal 0 -0 1
    outer loop
      vertex -0.669873 -11.1603 20
      vertex 0.669873 11.1603 20
      vertex -9.33013 -6.16025 20
    endloop
  endfacet
  facet normal 0 0 1
    outer loop
      vertex -0.669873 -11.1603 20
      vertex 9.33013 6.16025 20
      vertex 0.669873 11.1603 20
    endloop
  endfacet
  facet normal 0 -0.685158 0.728395
    outer loop
      vertex 10 -5 0
      vertex -10.297 -4.35569 0.606061
      vertex -10 -5 0
    endloop
  endfacet
  facet normal -0.0434554 -0.683778 -0.728395
    outer loop
      vertex 10 -5 0
      vertex 9.66275 -5.62417 0.606061
      vertex -10.297 -4.35569 0.606061
    endloop
  endfacet
  facet normal 0.873819 0 0.486252
    outer loop
      vertex 10 5 0
      vertex 9.66275 -5.62417 0.606061
      vertex 10 -5 0
    endloop
  endfacet
  facet normal 0.87206 -0.055421 -0.486252
    outer loop
      vertex 10 5 0
      vertex 10.297 4.35569 0.606061
      vertex 9.66275 -5.62417 0.606061
    endloop
  endfacet
  facet normal -0 0.685158 0.728395
    outer loop
      vertex -10 5 0
      vertex 10.297 4.35569 0.606061
      vertex 10 5 0
    endloop
  endfacet
  facet normal 0.0434554 0.683778 -0.728395
    outer loop
      vertex -10 5 0
      vertex -9.66275 5.62417 0.606061
      vertex 10.297 4.35569 0.606061
    endloop
  endfacet
  facet normal -0.873819 0 0.486252
    outer loop
      vertex -10 -5 0
      vertex -9.66275 5.62417 0.606061
      vertex -10 5 0
    endloop
  endfacet
  facet normal -0.87206 0.055421 -0.486252
    outer loop
      vertex -10 -5 0
      vertex -10.297 -4.35569 0.606061
      vertex -9.66275 5.62417 0.606061
    endloop
  endfacet
  facet normal -0.0434554 -0.683778 0.728395
    outer loop
      vertex 9.66275 -5.62417 0.606061
      vertex -10.5525 -3.69385 1.21212
      vertex -10.297 -4.35569 0.606061
    endloop
  endfacet
  facet normal -0.0867358 -0.679646 -0.728395
    outer loop
      vertex 9.66275 -5.62417 0.606061
      vertex 9.28659 -6.2257 1.21212
      vertex -10.5525 -3.69385 1.21212
    endloop
  endfacet
  facet normal 0.87206 -0.055421 0.486252
    outer loop
      vertex 10.297 4.35569 0.606061
      vertex 9.28659 -6.2257 1.21212
      vertex 9.66275 -5.62417 0.606061
    endloop
  endfacet
  facet normal 0.866789 -0.110619 -0.486252
    outer loop
      vertex 10.297 4.35569 0.606061
      vertex 10.5525 3.69385 1.21212
      vertex 9.28659 -6.2257 1.21212
    endloop
  endfacet
  facet normal 0.0434554 0.683778 0.728395
    outer loop
      vertex -9.66275 5.62417 0.606061
      vertex 10.5525 3.69385 1.21212
      vertex 10.297 4.35569 0.606061
    endloop
  endfacet
  facet normal 0.0867358 0.679646 -0.728395
    outer loop
      vertex -9.66275 5.62417 0.606061
      vertex -9.28659 6.2257 1.21212
      vertex 10.5525 3.69385 1.21212
    endloop
  endfacet
  facet normal -0.87206 0.055421 0.486252
    outer loop
      vertex -10.297 -4.35569 0.606061
      vertex -9.28659 6.2257 1.21212
      vertex -9.66275 5.62417 0.606061
    endloop
  endfacet
  facet normal -0.866789 0.110619 -0.486252
    outer loop
      vertex -10.297 -4.35569 0.606061
      vertex -10.5525 -3.69385 1.21212
      vertex -9.28659 6.2257 1.21212
    endloop
  endfacet
  facet normal -0.0867358 -0.679646 0.728395
    outer loop
      vertex 9.28659 -6.2257 1.21212
      vertex -10.7655 -3.01713 1.81818
      vertex -10.5525 -3.69385 1.21212
    endloop
  endfacet
  facet normal -0.129667 -0.672776 -0.728395
    outer loop
      vertex 9.28659 -6.2257 1.21212
      vertex 8.87303 -6.80216 1.81818
      vertex -10.7655 -3.01713 1.81818
    endloop
  endfacet
  facet normal 0.866789 -0.110619 0.486252
    outer loop
      vertex 10.5525 3.69385 1.21212
      vertex 8.87303 -6.80216 1.81818
      vertex 9.28659 -6.2257 1.21212
    endloop
  endfacet
  facet normal 0.858028 -0.165371 -0.486252
    outer loop
      vertex 10.5525 3.69385 1.21212
      vertex 10.7655 3.01713 1.81818
      vertex 8.87303 -6.80216 1.81818
    endloop
  endfacet
  facet normal 0.0867358 0.679646 0.728395
    outer loop
      vertex -9.28659 6.2257 1.21212
      vertex 10.7655 3.01713 1.81818
      vertex 10.5525 3.69385 1.21212
    endloop
  endfacet
  facet normal 0.129667 0.672776 -0.728395
    outer loop
      vertex -9.28659 6.2257 1.21212
      vertex -8.87303 6.80216 1.81818
      vertex 10.7655 3.01713 1.81818
    endloop
  endfacet
  facet normal -0.866789 0.110619 0.486252
    outer loop
      vertex -10.5525 -3.69385 1.21212
      vertex -8.87303 6.80216 1.81818
      vertex -9.28659 6.2257 1.21212
    endloop
  endfacet
  facet normal -0.858028 0.165371 -0.486252
    outer loop
      vertex -10.5525 -3.69385 1.21212
      vertex -10.7655 -3.01713 1.81818
      vertex -8.87303 6.80216 1.81818
    endloop
  endfacet
  facet normal -0.129667 -0.672776 0.728395
    outer loop
      vertex 8.87303 -6.80216 1.81818
      vertex -10.9352 -2.32826 2.42424
      vertex -10.7655 -3.01713 1.81818
    endloop
  endfacet
  facet normal -0.172076 -0.663198 -0.728395
    outer loop
      vertex 8.87303 -6.80216 1.81818
      vertex 8.42375 -7.35122 2.42424
      vertex -10.9352 -2.32826 2.42424
    endloop
  endfacet
  facet normal 0.858028 -0.165371 0.486252
    outer loop
      vertex 10.7655 3.01713 1.81818
      vertex 8.42375 -7.35122 2.42424
      vertex 8.87303 -6.80216 1.81818
    endloop
  endfacet
  facet normal 0.845812 -0.219458 -0.486252
    outer loop
      vertex 10.7655 3.01713 1.81818
      vertex 10.9352 2.32826 2.42424
      vertex 8.42375 -7.35122 2.42424
    endloop
  endfacet
  facet normal 0.129667 0.672776 0.728395
    outer loop
      vertex -8.87303 6.80216 1.81818
      vertex 10.9352 2.32826 2.42424
      vertex 10.7655 3.01713 1.81818
    endloop
  endfacet
  facet normal 0.172076 0.663198 -0.728395
    outer loop
      vertex -8.87303 6.80216 1.81818
      vertex -8.42375 7.35122 2.42424
      vertex 10.9352 2.32826 2.42424
    endloop
  endfacet
  facet normal -0.858028 0.165371 0.486252
    outer loop
      vertex -10.7655 -3.01713 1.81818
      vertex -8.42375 7.35122 2.42424
      vertex -8.87303 6.80216 1.81818
    endloop
  endfacet
  facet normal -0.845812 0.219458 -0.486252
    outer loop
      vertex -10.7655 -3.01713 1.81818
      vertex -10.9352 -2.32826 2.42424
      vertex -8.42375 7.35122 2.42424
    endloop
  endfacet
  facet normal -0.172076 -0.663198 0.728395
    outer loop
      vertex 8.42375 -7.35122 2.42424
      vertex -11.0609 -1.63002 3.0303
      vertex -10.9352 -2.32826 2.42424
    endloop
  endfacet
  facet normal -0.213792 -0.650949 -0.728395
    outer loop
      vertex 8.42375 -7.35122 2.42424
      vertex 7.94054 -7.87069 3.0303
      vertex -11.0609 -1.63002 3.0303
    endloop
  endfacet
  facet normal 0.845812 -0.219458 0.486252
    outer loop
      vertex 10.9352 2.32826 2.42424
      vertex 7.94054 -7.87069 3.0303
      vertex 8.42375 -7.35122 2.42424
    endloop
  endfacet
  facet normal 0.83019 -0.272661 -0.486252
    outer loop
      vertex 10.9352 2.32826 2.42424
      vertex 11.0609 1.63002 3.0303
      vertex 7.94054 -7.87069 3.0303
    endloop
  endfacet
  facet normal 0.172076 0.663198 0.728395
    outer loop
      vertex -8.42375 7.35122 2.42424
      vertex 11.0609 1.63002 3.0303
      vertex 10.9352 2.32826 2.42424
    endloop
  endfacet
  facet normal 0.213792 0.650949 -0.728395
    outer loop
      vertex -8.42375 7.35122 2.42424
      vertex -7.94054 7.87069 3.0303
      vertex 11.0609 1.63002 3.0303
    endloop
  endfacet
  facet normal -0.845812 0.219458 0.486252
    outer loop
      vertex -10.9352 -2.32826 2.42424
      vertex -7.94054 7.87069 3.0303
      vertex -8.42375 7.35122 2.42424
    endloop
  endfacet
  facet normal -0.83019 0.272661 -0.486252
    outer loop
      vertex -10.9352 -2.32826 2.42424
      vertex -11.0609 -1.63002 3.0303
      vertex -7.94054 7.87069 3.0303
    endloop
  endfacet
  facet normal -0.213792 -0.650949 0.728395
    outer loop
      vertex 7.94054 -7.87069 3.0303
      vertex -11.142 -0.925215 3.63636
      vertex -11.0609 -1.63002 3.0303
    endloop
  endfacet
  facet normal -0.254647 -0.636079 -0.728395
    outer loop
      vertex 7.94054 -7.87069 3.0303
      vertex 7.42537 -8.35846 3.63636
      vertex -11.142 -0.925215 3.63636
    endloop
  endfacet
  facet normal 0.83019 -0.272661 0.486252
    outer loop
      vertex 11.0609 1.63002 3.0303
      vertex 7.42537 -8.35846 3.63636
      vertex 7.94054 -7.87069 3.0303
    endloop
  endfacet
  facet normal 0.811225 -0.324766 -0.486252
    outer loop
      vertex 11.0609 1.63002 3.0303
      vertex 11.142 0.925215 3.63636
      vertex 7.42537 -8.35846 3.63636
    endloop
  endfacet
  facet normal 0.213792 0.650949 0.728395
    outer loop
      vertex -7.94054 7.87069 3.0303
      vertex 11.142 0.925215 3.63636
      vertex 11.0609 1.63002 3.0303
    endloop
  endfacet
  facet normal 0.254647 0.636079 -0.728395
    outer loop
      vertex -7.94054 7.87069 3.0303
      vertex -7.42537 8.35846 3.63636
      vertex 11.142 0.925215 3.63636
    endloop
  endfacet
  facet normal -0.83019 0.272661 0.486252
    outer loop
      vertex -11.0609 -1.63002 3.0303
      vertex -7.42537 8.35846 3.63636
      vertex -7.94054 7.87069 3.0303
    endloop
  endfacet
  facet normal -0.811225 0.324766 -0.486252
    outer loop
      vertex -11.0609 -1.63002 3.0303
      vertex -11.142 -0.925215 3.63636
      vertex -7.42537 8.35846 3.63636
    endloop
  endfacet
  facet normal -0.254647 -0.636079 0.728395
    outer loop
      vertex 7.42537 -8.35846 3.63636
      vertex -11.1782 -0.216684 4.24242
      vertex -11.142 -0.925215 3.63636
    endloop
  endfacet
  facet normal -0.294477 -0.618647 -0.728395
    outer loop
      vertex 7.42537 -8.35846 3.63636
      vertex 6.88029 -8.81258 4.24242
      vertex -11.1782 -0.216684 4.24242
    endloop
  endfacet
  facet normal 0.811225 -0.324766 0.486252
    outer loop
      vertex 11.142 0.925215 3.63636
      vertex 6.88029 -8.81258 4.24242
      vertex 7.42537 -8.35846 3.63636
    endloop
  endfacet
  facet normal 0.788994 -0.375563 -0.486252
    outer loop
      vertex 11.142 0.925215 3.63636
      vertex 11.1782 0.216684 4.24242
      vertex 6.88029 -8.81258 4.24242
    endloop
  endfacet
  facet normal 0.254647 0.636079 0.728395
    outer loop
      vertex -7.42537 8.35846 3.63636
      vertex 11.1782 0.216684 4.24242
      vertex 11.142 0.925215 3.63636
    endloop
  endfacet
  facet normal 0.294477 0.618647 -0.728395
    outer loop
      vertex -7.42537 8.35846 3.63636
      vertex -6.88029 8.81258 4.24242
      vertex 11.1782 0.216684 4.24242
    endloop
  endfacet
  facet normal -0.811225 0.324766 0.486252
    outer loop
      vertex -11.142 -0.925215 3.63636
      vertex -6.88029 8.81258 4.24242
      vertex -7.42537 8.35846 3.63636
    endloop
  endfacet
  facet normal -0.788994 0.375563 -0.486252
    outer loop
      vertex -11.142 -0.925215 3.63636
      vertex -11.1782 -0.216684 4.24242
      vertex -6.88029 8.81258 4.24242
    endloop
  endfacet
  facet normal -0.294477 -0.618647 0.728395
    outer loop
      vertex 6.88029 -8.81258 4.24242
      vertex -11.1695 0.49272 4.84848
      vertex -11.1782 -0.216684 4.24242
    endloop
  endfacet
  facet normal -0.333122 -0.598725 -0.728395
    outer loop
      vertex 6.88029 -8.81258 4.24242
      vertex 6.30751 -9.23121 4.84848
      vertex -11.1695 0.49272 4.84848
    endloop
  endfacet
  facet normal 0.788994 -0.375563 0.486252
    outer loop
      vertex 11.1782 0.216684 4.24242
      vertex 6.30751 -9.23121 4.84848
      vertex 6.88029 -8.81258 4.24242
    endloop
  endfacet
  facet normal 0.763586 -0.424848 -0.486252
    outer loop
      vertex 11.1782 0.216684 4.24242
      vertex 11.1695 -0.49272 4.84848
      vertex 6.30751 -9.23121 4.84848
    endloop
  endfacet
  facet normal 0.294477 0.618647 0.728395
    outer loop
      vertex -6.88029 8.81258 4.24242
      vertex 11.1695 -0.49272 4.84848
      vertex 11.1782 0.216684 4.24242
    endloop
  endfacet
  facet normal 0.333122 0.598725 -0.728395
    outer loop
      vertex -6.88029 8.81258 4.24242
      vertex -6.30751 9.23121 4.84848
      vertex 11.1695 -0.49272 4.84848
    endloop
  endfacet
  facet normal -0.788994 0.375563 0.486252
    outer loop
      vertex -11.1782 -0.216684 4.24242
      vertex -6.30751 9.23121 4.84848
      vertex -6.88029 8.81258 4.24242
    endloop
  endfacet
  facet normal -0.763586 0.424848 -0.486252
    outer loop
      vertex -11.1782 -0.216684 4.24242
      vertex -11.1695 0.49272 4.84848
      vertex -6.30751 9.23121 4.84848
    endloop
  endfacet
  facet normal -0.333122 -0.598725 0.728395
    outer loop
      vertex 6.30751 -9.23121 4.84848
      vertex -11.1157 1.20014 5.45455
      vertex -11.1695 0.49272 4.84848
    endloop
  endfacet
  facet normal -0.370424 -0.576392 -0.728395
    outer loop
      vertex 6.30751 -9.23121 4.84848
      vertex 5.70933 -9.61268 5.45455
      vertex -11.1157 1.20014 5.45455
    endloop
  endfacet
  facet normal 0.763586 -0.424848 0.486252
    outer loop
      vertex 11.1695 -0.49272 4.84848
      vertex 5.70933 -9.61268 5.45455
      vertex 6.30751 -9.23121 4.84848
    endloop
  endfacet
  facet normal 0.735103 -0.472422 -0.486252
    outer loop
      vertex 11.1695 -0.49272 4.84848
      vertex 11.1157 -1.20014 5.45455
      vertex 5.70933 -9.61268 5.45455
    endloop
  endfacet
  facet normal 0.333122 0.598725 0.728395
    outer loop
      vertex -6.30751 9.23121 4.84848
      vertex 11.1157 -1.20014 5.45455
      vertex 11.1695 -0.49272 4.84848
    endloop
  endfacet
  facet normal 0.370424 0.576392 -0.728395
    outer loop
      vertex -6.30751 9.23121 4.84848
      vertex -5.70933 9.61268 5.45455
      vertex 11.1157 -1.20014 5.45455
    endloop
  endfacet
  facet normal -0.763586 0.424848 0.486252
    outer loop
      vertex -11.1695 0.49272 4.84848
      vertex -5.70933 9.61268 5.45455
      vertex -6.30751 9.23121 4.84848
    endloop
  endfacet
  facet normal -0.735103 0.472422 -0.486252
    outer loop
      vertex -11.1695 0.49272 4.84848
      vertex -11.1157 1.20014 5.45455
      vertex -5.70933 9.61268 5.45455
    endloop
  endfacet
  facet normal -0.370424 -0.576392 0.728395
    outer loop
      vertex 5.70933 -9.61268 5.45455
      vertex -11.0172 1.90273 6.06061
      vertex -11.1157 1.20014 5.45455
    endloop
  endfacet
  facet normal -0.406236 -0.551737 -0.728395
    outer loop
      vertex 5.70933 -9.61268 5.45455
      vertex 5.08816 -9.95543 6.06061
      vertex -11.0172 1.90273 6.06061
    endloop
  endfacet
  facet normal 0.735103 -0.472422 0.486252
    outer loop
      vertex 11.1157 -1.20014 5.45455
      vertex 5.08816 -9.95543 6.06061
      vertex 5.70933 -9.61268 5.45455
    endloop
  endfacet
  facet normal 0.70366 -0.518094 -0.486252
    outer loop
      vertex 11.1157 -1.20014 5.45455
      vertex 11.0172 -1.90273 6.06061
      vertex 5.08816 -9.95543 6.06061
    endloop
  endfacet
  facet normal 0.370424 0.576392 0.728395
    outer loop
      vertex -5.70933 9.61268 5.45455
      vertex 11.0172 -1.90273 6.06061
      vertex 11.1157 -1.20014 5.45455
    endloop
  endfacet
  facet normal 0.406236 0.551737 -0.728395
    outer loop
      vertex -5.70933 9.61268 5.45455
      vertex -5.08816 9.95543 6.06061
      vertex 11.0172 -1.90273 6.06061
    endloop
  endfacet
  facet normal -0.735103 0.472422 0.486252
    outer loop
      vertex -11.1157 1.20014 5.45455
      vertex -5.08816 9.95543 6.06061
      vertex -5.70933 9.61268 5.45455
    endloop
  endfacet
  facet normal -0.70366 0.518094 -0.486252
    outer loop
      vertex -11.1157 1.20014 5.45455
      vertex -11.0172 1.90273 6.06061
      vertex -5.08816 9.95543 6.06061
    endloop
  endfacet
  facet normal -0.406236 -0.551737 0.728395
    outer loop
      vertex 5.08816 -9.95543 6.06061
      vertex -10.8744 2.59765 6.66667
      vertex -11.0172 1.90273 6.06061
    endloop
  endfacet
  facet normal -0.440411 -0.524861 -0.728395
    outer loop
      vertex 5.08816 -9.95543 6.06061
      vertex 4.44651 -10.2581 6.66667
      vertex -10.8744 2.59765 6.66667
    endloop
  endfacet
  facet normal 0.70366 -0.518094 0.486252
    outer loop
      vertex 11.0172 -1.90273 6.06061
      vertex 4.44651 -10.2581 6.66667
      vertex 5.08816 -9.95543 6.06061
    endloop
  endfacet
  facet normal 0.669384 -0.56168 -0.486252
    outer loop
      vertex 11.0172 -1.90273 6.06061
      vertex 10.8744 -2.59765 6.66667
      vertex 4.44651 -10.2581 6.66667
    endloop
  endfacet
  facet normal 0.406236 0.551737 0.728395
    outer loop
      vertex -5.08816 9.95543 6.06061
      vertex 10.8744 -2.59765 6.66667
      vertex 11.0172 -1.90273 6.06061
    endloop
  endfacet
  facet normal 0.440411 0.524861 -0.728395
    outer loop
      vertex -5.08816 9.95543 6.06061
      vertex -4.44651 10.2581 6.66667
      vertex 10.8744 -2.59765 6.66667
    endloop
  endfacet
  facet normal -0.70366 0.518094 0.486252
    outer loop
      vertex -11.0172 1.90273 6.06061
      vertex -4.44651 10.2581 6.66667
      vertex -5.08816 9.95543 6.06061
    endloop
  endfacet
  facet normal -0.669384 0.56168 -0.486252
    outer loop
      vertex -11.0172 1.90273 6.06061
      vertex -10.8744 2.59765 6.66667
      vertex -4.44651 10.2581 6.66667
    endloop
  endfacet
  facet normal -0.440411 -0.524861 0.728395
    outer loop
      vertex 4.44651 -10.2581 6.66667
      vertex -10.6877 3.28212 7.27273
      vertex -10.8744 2.59765 6.66667
    endloop
  endfacet
  facet normal -0.472813 -0.495872 -0.728395
    outer loop
      vertex 4.44651 -10.2581 6.66667
      vertex 3.78695 -10.5195 7.27273
      vertex -10.6877 3.28212 7.27273
    endloop
  endfacet
  facet normal 0.669384 -0.56168 0.486252
    outer loop
      vertex 10.8744 -2.59765 6.66667
      vertex 3.78695 -10.5195 7.27273
      vertex 4.44651 -10.2581 6.66667
    endloop
  endfacet
  facet normal 0.632412 -0.603004 -0.486252
    outer loop
      vertex 10.8744 -2.59765 6.66667
      vertex 10.6877 -3.28212 7.27273
      vertex 3.78695 -10.5195 7.27273
    endloop
  endfacet
  facet normal 0.440411 0.524861 0.728395
    outer loop
      vertex -4.44651 10.2581 6.66667
      vertex 10.6877 -3.28212 7.27273
      vertex 10.8744 -2.59765 6.66667
    endloop
  endfacet
  facet normal 0.472813 0.495872 -0.728395
    outer loop
      vertex -4.44651 10.2581 6.66667
      vertex -3.78695 10.5195 7.27273
      vertex 10.6877 -3.28212 7.27273
    endloop
  endfacet
  facet normal -0.669384 0.56168 0.486252
    outer loop
      vertex -10.8744 2.59765 6.66667
      vertex -3.78695 10.5195 7.27273
      vertex -4.44651 10.2581 6.66667
    endloop
  endfacet
  facet normal -0.632412 0.603004 -0.486252
    outer loop
      vertex -10.8744 2.59765 6.66667
      vertex -10.6877 3.28212 7.27273
      vertex -3.78695 10.5195 7.27273
    endloop
  endfacet
  facet normal -0.472813 -0.495872 0.728395
    outer loop
      vertex 3.78695 -10.5195 7.27273
      vertex -10.4581 3.95337 7.87879
      vertex -10.6877 3.28212 7.27273
    endloop
  endfacet
  facet normal -0.503311 -0.464886 -0.728395
    outer loop
      vertex 3.78695 -10.5195 7.27273
      vertex 3.11214 -10.7385 7.87879
      vertex -10.4581 3.95337 7.87879
    endloop
  endfacet
  facet normal 0.632412 -0.603004 0.486252
    outer loop
      vertex 10.6877 -3.28212 7.27273
      vertex 3.11214 -10.7385 7.87879
      vertex 3.78695 -10.5195 7.27273
    endloop
  endfacet
  facet normal 0.592894 -0.6419 -0.486252
    outer loop
      vertex 10.6877 -3.28212 7.27273
      vertex 10.4581 -3.95337 7.87879
      vertex 3.11214 -10.7385 7.87879
    endloop
  endfacet
  facet normal 0.472813 0.495872 0.728395
    outer loop
      vertex -3.78695 10.5195 7.27273
      vertex 10.4581 -3.95337 7.87879
      vertex 10.6877 -3.28212 7.27273
    endloop
  endfacet
  facet normal 0.503311 0.464886 -0.728395
    outer loop
      vertex -3.78695 10.5195 7.27273
      vertex -3.11214 10.7385 7.87879
      vertex 10.4581 -3.95337 7.87879
    endloop
  endfacet
  facet normal -0.632412 0.603004 0.486252
    outer loop
      vertex -10.6877 3.28212 7.27273
      vertex -3.11214 10.7385 7.87879
      vertex -3.78695 10.5195 7.27273
    endloop
  endfacet
  facet normal -0.592894 0.6419 -0.486252
    outer loop
      vertex -10.6877 3.28212 7.27273
      vertex -10.4581 3.95337 7.87879
      vertex -3.11214 10.7385 7.87879
    endloop
  endfacet
  facet normal -0.503311 -0.464886 0.728395
    outer loop
      vertex 3.11214 -10.7385 7.87879
      vertex -10.1863 4.6087 8.48485
      vertex -10.4581 3.95337 7.87879
    endloop
  endfacet
  facet normal -0.531783 -0.432028 -0.728395
    outer loop
      vertex 3.11214 -10.7385 7.87879
      vertex 2.42479 -10.9142 8.48485
      vertex -10.1863 4.6087 8.48485
    endloop
  endfacet
  facet normal 0.592894 -0.6419 0.486252
    outer loop
      vertex 10.4581 -3.95337 7.87879
      vertex 2.42479 -10.9142 8.48485
      vertex 3.11214 -10.7385 7.87879
    endloop
  endfacet
  facet normal 0.550989 -0.678211 -0.486252
    outer loop
      vertex 10.4581 -3.95337 7.87879
      vertex 10.1863 -4.6087 8.48485
      vertex 2.42479 -10.9142 8.48485
    endloop
  endfacet
  facet normal 0.503311 0.464886 0.728395
    outer loop
      vertex -3.11214 10.7385 7.87879
      vertex 10.1863 -4.6087 8.48485
      vertex 10.4581 -3.95337 7.87879
    endloop
  endfacet
  facet normal 0.531783 0.432028 -0.728395
    outer loop
      vertex -3.11214 10.7385 7.87879
      vertex -2.42479 10.9142 8.48485
      vertex 10.1863 -4.6087 8.48485
    endloop
  endfacet
  facet normal -0.592894 0.6419 0.486252
    outer loop
      vertex -10.4581 3.95337 7.87879
      vertex -2.42479 10.9142 8.48485
      vertex -3.11214 10.7385 7.87879
    endloop
  endfacet
  facet normal -0.550989 0.678211 -0.486252
    outer loop
      vertex -10.4581 3.95337 7.87879
      vertex -10.1863 4.6087 8.48485
      vertex -2.42479 10.9142 8.48485
    endloop
  endfacet
  facet normal -0.531783 -0.432028 0.728395
    outer loop
      vertex 2.42479 -10.9142 8.48485
      vertex -9.87345 5.24547 9.09091
      vertex -10.1863 4.6087 8.48485
    endloop
  endfacet
  facet normal -0.558113 -0.397431 -0.728395
    outer loop
      vertex 2.42479 -10.9142 8.48485
      vertex 1.72769 -11.046 9.09091
      vertex -9.87345 5.24547 9.09091
    endloop
  endfacet
  facet normal 0.550989 -0.678211 0.486252
    outer loop
      vertex 10.1863 -4.6087 8.48485
      vertex 1.72769 -11.046 9.09091
      vertex 2.42479 -10.9142 8.48485
    endloop
  endfacet
  facet normal 0.506865 -0.711792 -0.486252
    outer loop
      vertex 10.1863 -4.6087 8.48485
      vertex 9.87345 -5.24547 9.09091
      vertex 1.72769 -11.046 9.09091
    endloop
  endfacet
  facet normal 0.531783 0.432028 0.728395
    outer loop
      vertex -2.42479 10.9142 8.48485
      vertex 9.87345 -5.24547 9.09091
      vertex 10.1863 -4.6087 8.48485
    endloop
  endfacet
  facet normal 0.558113 0.397431 -0.728395
    outer loop
      vertex -2.42479 10.9142 8.48485
      vertex -1.72769 11.046 9.09091
      vertex 9.87345 -5.24547 9.09091
    endloop
  endfacet
  facet normal -0.550989 0.678211 0.486252
    outer loop
      vertex -10.1863 4.6087 8.48485
      vertex -1.72769 11.046 9.09091
      vertex -2.42479 10.9142 8.48485
    endloop
  endfacet
  facet normal -0.506865 0.711792 -0.486252
    outer loop
      vertex -10.1863 4.6087 8.48485
      vertex -9.87345 5.24547 9.09091
      vertex -1.72769 11.046 9.09091
    endloop
  endfacet
  facet normal -0.558113 -0.397431 0.728395
    outer loop
      vertex 1.72769 -11.046 9.09091
      vertex -9.52088 5.86113 9.69697
      vertex -9.87345 5.24547 9.09091
    endloop
  endfacet
  facet normal -0.582196 -0.361233 -0.728395
    outer loop
      vertex 1.72769 -11.046 9.09091
      vertex 1.02363 -11.1334 9.69697
      vertex -9.52088 5.86113 9.69697
    endloop
  endfacet
  facet normal 0.506865 -0.711792 0.486252
    outer loop
      vertex 9.87345 -5.24547 9.09091
      vertex 1.02363 -11.1334 9.69697
      vertex 1.72769 -11.046 9.09091
    endloop
  endfacet
  facet normal 0.4607 -0.742506 -0.486252
    outer loop
      vertex 9.87345 -5.24547 9.09091
      vertex 9.52088 -5.86113 9.69697
      vertex 1.02363 -11.1334 9.69697
    endloop
  endfacet
  facet normal 0.558113 0.397431 0.728395
    outer loop
      vertex -1.72769 11.046 9.09091
      vertex 9.52088 -5.86113 9.69697
      vertex 9.87345 -5.24547 9.09091
    endloop
  endfacet
  facet normal 0.582196 0.361233 -0.728395
    outer loop
      vertex -1.72769 11.046 9.09091
      vertex -1.02363 11.1334 9.69697
      vertex 9.52088 -5.86113 9.69697
    endloop
  endfacet
  facet normal -0.506865 0.711792 0.486252
    outer loop
      vertex -9.87345 5.24547 9.09091
      vertex -1.02363 11.1334 9.69697
      vertex -1.72769 11.046 9.09091
    endloop
  endfacet
  facet normal -0.4607 0.742506 -0.486252
    outer loop
      vertex -9.87345 5.24547 9.09091
      vertex -9.52088 5.86113 9.69697
      vertex -1.02363 11.1334 9.69697
    endloop
  endfacet
  facet normal -0.582196 -0.361233 0.728395
    outer loop
      vertex 1.02363 -11.1334 9.69697
      vertex -9.12998 6.45318 10.303
      vertex -9.52088 5.86113 9.69697
    endloop
  endfacet
  facet normal -0.603935 -0.32358 -0.728395
    outer loop
      vertex 1.02363 -11.1334 9.69697
      vertex 0.315444 -11.1759 10.303
      vertex -9.12998 6.45318 10.303
    endloop
  endfacet
  facet normal 0.4607 -0.742506 0.486252
    outer loop
      vertex 9.52088 -5.86113 9.69697
      vertex 0.315444 -11.1759 10.303
      vertex 1.02363 -11.1334 9.69697
    endloop
  endfacet
  facet normal 0.412679 -0.770231 -0.486252
    outer loop
      vertex 9.52088 -5.86113 9.69697
      vertex 9.12998 -6.45318 10.303
      vertex 0.315444 -11.1759 10.303
    endloop
  endfacet
  facet normal 0.582196 0.361233 0.728395
    outer loop
      vertex -1.02363 11.1334 9.69697
      vertex 9.12998 -6.45318 10.303
      vertex 9.52088 -5.86113 9.69697
    endloop
  endfacet
  facet normal 0.603935 0.32358 -0.728395
    outer loop
      vertex -1.02363 11.1334 9.69697
      vertex -0.315444 11.1759 10.303
      vertex 9.12998 -6.45318 10.303
    endloop
  endfacet
  facet normal -0.4607 0.742506 0.486252
    outer loop
      vertex -9.52088 5.86113 9.69697
      vertex -0.315444 11.1759 10.303
      vertex -1.02363 11.1334 9.69697
    endloop
  endfacet
  facet normal -0.412679 0.770231 -0.486252
    outer loop
      vertex -9.52088 5.86113 9.69697
      vertex -9.12998 6.45318 10.303
      vertex -0.315444 11.1759 10.303
    endloop
  endfacet
  facet normal -0.603935 -0.32358 0.728395
    outer loop
      vertex 0.315444 -11.1759 10.303
      vertex -8.70231 7.01924 10.9091
      vertex -9.12998 6.45318 10.303
    endloop
  endfacet
  facet normal -0.623242 -0.284625 -0.728395
    outer loop
      vertex 0.315444 -11.1759 10.303
      vertex -0.39401 -11.1734 10.9091
      vertex -8.70231 7.01924 10.9091
    endloop
  endfacet
  facet normal 0.412679 -0.770231 0.486252
    outer loop
      vertex 9.12998 -6.45318 10.303
      vertex -0.39401 -11.1734 10.9091
      vertex 0.315444 -11.1759 10.303
    endloop
  endfacet
  facet normal 0.362997 -0.794854 -0.486252
    outer loop
      vertex 9.12998 -6.45318 10.303
      vertex 8.70231 -7.01924 10.9091
      vertex -0.39401 -11.1734 10.9091
    endloop
  endfacet
  facet normal 0.603935 0.32358 0.728395
    outer loop
      vertex -0.315444 11.1759 10.303
      vertex 8.70231 -7.01924 10.9091
      vertex 9.12998 -6.45318 10.303
    endloop
  endfacet
  facet normal 0.623242 0.284625 -0.728395
    outer loop
      vertex -0.315444 11.1759 10.303
      vertex 0.39401 11.1734 10.9091
      vertex 8.70231 -7.01924 10.9091
    endloop
  endfacet
  facet normal -0.412679 0.770231 0.486252
    outer loop
      vertex -9.12998 6.45318 10.303
      vertex 0.39401 11.1734 10.9091
      vertex -0.315444 11.1759 10.303
    endloop
  endfacet
  facet normal -0.362997 0.794854 -0.486252
    outer loop
      vertex -9.12998 6.45318 10.303
      vertex -8.70231 7.01924 10.9091
      vertex 0.39401 11.1734 10.9091
    endloop
  endfacet
  facet normal -0.623242 -0.284625 0.728395
    outer loop
      vertex -0.39401 -11.1734 10.9091
      vertex -8.2396 7.55705 11.5152
      vertex -8.70231 7.01924 10.9091
    endloop
  endfacet
  facet normal -0.640039 -0.244523 -0.728395
    outer loop
      vertex -0.39401 -11.1734 10.9091
      vertex -1.10188 -11.1259 11.5152
      vertex -8.2396 7.55705 11.5152
    endloop
  endfacet
  facet normal 0.362997 -0.794854 0.486252
    outer loop
      vertex 8.70231 -7.01924 10.9091
      vertex -1.10188 -11.1259 11.5152
      vertex -0.39401 -11.1734 10.9091
    endloop
  endfacet
  facet normal 0.311854 -0.816276 -0.486252
    outer loop
      vertex 8.70231 -7.01924 10.9091
      vertex 8.2396 -7.55705 11.5152
      vertex -1.10188 -11.1259 11.5152
    endloop
  endfacet
  facet normal 0.623242 0.284625 0.728395
    outer loop
      vertex 0.39401 11.1734 10.9091
      vertex 8.2396 -7.55705 11.5152
      vertex 8.70231 -7.01924 10.9091
    endloop
  endfacet
  facet normal 0.640039 0.244523 -0.728395
    outer loop
      vertex 0.39401 11.1734 10.9091
      vertex 1.10188 11.1259 11.5152
      vertex 8.2396 -7.55705 11.5152
    endloop
  endfacet
  facet normal -0.362997 0.794854 0.486252
    outer loop
      vertex -8.70231 7.01924 10.9091
      vertex 1.10188 11.1259 11.5152
      vertex 0.39401 11.1734 10.9091
    endloop
  endfacet
  facet normal -0.311854 0.816276 -0.486252
    outer loop
      vertex -8.70231 7.01924 10.9091
      vertex -8.2396 7.55705 11.5152
      vertex 1.10188 11.1259 11.5152
    endloop
  endfacet
  facet normal -0.640039 -0.244523 0.728395
    outer loop
      vertex -1.10188 -11.1259 11.5152
      vertex -7.74371 8.06442 12.1212
      vertex -8.2396 7.55705 11.5152
    endloop
  endfacet
  facet normal -0.654259 -0.203437 -0.728395
    outer loop
      vertex -1.10188 -11.1259 11.5152
      vertex -1.80531 -11.0336 12.1212
      vertex -7.74371 8.06442 12.1212
    endloop
  endfacet
  facet normal 0.311854 -0.816276 0.486252
    outer loop
      vertex 8.2396 -7.55705 11.5152
      vertex -1.80531 -11.0336 12.1212
      vertex -1.10188 -11.1259 11.5152
    endloop
  endfacet
  facet normal 0.259455 -0.834412 -0.486252
    outer loop
      vertex 8.2396 -7.55705 11.5152
      vertex 7.74371 -8.06442 12.1212
      vertex -1.80531 -11.0336 12.1212
    endloop
  endfacet
  facet normal 0.640039 0.244523 0.728395
    outer loop
      vertex 1.10188 11.1259 11.5152
      vertex 7.74371 -8.06442 12.1212
      vertex 8.2396 -7.55705 11.5152
    endloop
  endfacet
  facet normal 0.654259 0.203437 -0.728395
    outer loop
      vertex 1.10188 11.1259 11.5152
      vertex 1.80531 11.0336 12.1212
      vertex 7.74371 -8.06442 12.1212
    endloop
  endfacet
  facet normal -0.311854 0.816276 0.486252
    outer loop
      vertex -8.2396 7.55705 11.5152
      vertex 1.80531 11.0336 12.1212
      vertex 1.10188 11.1259 11.5152
    endloop
  endfacet
  facet normal -0.259455 0.834412 -0.486252
    outer loop
      vertex -8.2396 7.55705 11.5152
      vertex -7.74371 8.06442 12.1212
      vertex 1.80531 11.0336 12.1212
    endloop
  endfacet
  facet normal -0.654259 -0.203437 0.728395
    outer loop
      vertex -1.80531 -11.0336 12.1212
      vertex -7.21665 8.53932 12.7273
      vertex -7.74371 8.06442 12.1212
    endloop
  endfacet
  facet normal -0.665844 -0.161532 -0.728395
    outer loop
      vertex -1.80531 -11.0336 12.1212
      vertex -2.50147 -10.8969 12.7273
      vertex -7.21665 8.53932 12.7273
    endloop
  endfacet
  facet normal 0.259455 -0.834412 0.486252
    outer loop
      vertex 7.74371 -8.06442 12.1212
      vertex -2.50147 -10.8969 12.7273
      vertex -1.80531 -11.0336 12.1212
    endloop
  endfacet
  facet normal 0.206011 -0.849187 -0.486252
    outer loop
      vertex 7.74371 -8.06442 12.1212
      vertex 7.21665 -8.53932 12.7273
      vertex -2.50147 -10.8969 12.7273
    endloop
  endfacet
  facet normal 0.654259 0.203437 0.728395
    outer loop
      vertex 1.80531 11.0336 12.1212
      vertex 7.21665 -8.53932 12.7273
      vertex 7.74371 -8.06442 12.1212
    endloop
  endfacet
  facet normal 0.665844 0.161532 -0.728395
    outer loop
      vertex 1.80531 11.0336 12.1212
      vertex 2.50147 10.8969 12.7273
      vertex 7.21665 -8.53932 12.7273
    endloop
  endfacet
  facet normal -0.259455 0.834412 0.486252
    outer loop
      vertex -7.74371 8.06442 12.1212
      vertex 2.50147 10.8969 12.7273
      vertex 1.80531 11.0336 12.1212
    endloop
  endfacet
  facet normal -0.206011 0.849187 -0.486252
    outer loop
      vertex -7.74371 8.06442 12.1212
      vertex -7.21665 8.53932 12.7273
      vertex 2.50147 10.8969 12.7273
    endloop
  endfacet
  facet normal -0.665844 -0.161532 0.728395
    outer loop
      vertex -2.50147 -10.8969 12.7273
      vertex -6.66052 8.97984 13.3333
      vertex -7.21665 8.53932 12.7273
    endloop
  endfacet
  facet normal -0.674749 -0.118976 -0.728395
    outer loop
      vertex -2.50147 -10.8969 12.7273
      vertex -3.18756 -10.7163 13.3333
      vertex -6.66052 8.97984 13.3333
    endloop
  endfacet
  facet normal 0.206011 -0.849187 0.486252
    outer loop
      vertex 7.21665 -8.53932 12.7273
      vertex -3.18756 -10.7163 13.3333
      vertex -2.50147 -10.8969 12.7273
    endloop
  endfacet
  facet normal 0.151737 -0.860544 -0.486252
    outer loop
      vertex 7.21665 -8.53932 12.7273
      vertex 6.66052 -8.97984 13.3333
      vertex -3.18756 -10.7163 13.3333
    endloop
  endfacet
  facet normal 0.665844 0.161532 0.728395
    outer loop
      vertex 2.50147 10.8969 12.7273
      vertex 6.66052 -8.97984 13.3333
      vertex 7.21665 -8.53932 12.7273
    endloop
  endfacet
  facet normal 0.674749 0.118976 -0.728395
    outer loop
      vertex 2.50147 10.8969 12.7273
      vertex 3.18756 10.7163 13.3333
      vertex 6.66052 -8.97984 13.3333
    endloop
  endfacet
  facet normal -0.206011 0.849187 0.486252
    outer loop
      vertex -7.21665 8.53932 12.7273
      vertex 3.18756 10.7163 13.3333
      vertex 2.50147 10.8969 12.7273
    endloop
  endfacet
  facet normal -0.151737 0.860544 -0.486252
    outer loop
      vertex -7.21665 8.53932 12.7273
      vertex -6.66052 8.97984 13.3333
      vertex 3.18756 10.7163 13.3333
    endloop
  endfacet
  facet normal -0.674749 -0.118976 0.728395
    outer loop
      vertex -3.18756 -10.7163 13.3333
      vertex -6.07757 9.38419 13.9394
      vertex -6.66052 8.97984 13.3333
    endloop
  endfacet
  facet normal -0.680936 -0.0759417 -0.728395
    outer loop
      vertex -3.18756 -10.7163 13.3333
      vertex -3.86081 -10.4926 13.9394
      vertex -6.07757 9.38419 13.9394
    endloop
  endfacet
  facet normal 0.151737 -0.860544 0.486252
    outer loop
      vertex 6.66052 -8.97984 13.3333
      vertex -3.86081 -10.4926 13.9394
      vertex -3.18756 -10.7163 13.3333
    endloop
  endfacet
  facet normal 0.0968525 -0.868435 -0.486252
    outer loop
      vertex 6.66052 -8.97984 13.3333
      vertex 6.07757 -9.38419 13.9394
      vertex -3.86081 -10.4926 13.9394
    endloop
  endfacet
  facet normal 0.674749 0.118976 0.728395
    outer loop
      vertex 3.18756 10.7163 13.3333
      vertex 6.07757 -9.38419 13.9394
      vertex 6.66052 -8.97984 13.3333
    endloop
  endfacet
  facet normal 0.680936 0.0759417 -0.728395
    outer loop
      vertex 3.18756 10.7163 13.3333
      vertex 3.86081 10.4926 13.9394
      vertex 6.07757 -9.38419 13.9394
    endloop
  endfacet
  facet normal -0.151737 0.860544 0.486252
    outer loop
      vertex -6.66052 8.97984 13.3333
      vertex 3.86081 10.4926 13.9394
      vertex 3.18756 10.7163 13.3333
    endloop
  endfacet
  facet normal -0.0968525 0.868435 -0.486252
    outer loop
      vertex -6.66052 8.97984 13.3333
      vertex -6.07757 9.38419 13.9394
      vertex 3.86081 10.4926 13.9394
    endloop
  endfacet
  facet normal -0.680936 -0.0759417 0.728395
    outer loop
      vertex -3.86081 -10.4926 13.9394
      vertex -5.47016 9.75076 14.5455
      vertex -6.07757 9.38419 13.9394
    endloop
  endfacet
  facet normal -0.684382 -0.0326011 -0.728395
    outer loop
      vertex -3.86081 -10.4926 13.9394
      vertex -4.51852 -10.2266 14.5455
      vertex -5.47016 9.75076 14.5455
    endloop
  endfacet
  facet normal 0.0968525 -0.868435 0.486252
    outer loop
      vertex 6.07757 -9.38419 13.9394
      vertex -4.51852 -10.2266 14.5455
      vertex -3.86081 -10.4926 13.9394
    endloop
  endfacet
  facet normal 0.041578 -0.872829 -0.486252
    outer loop
      vertex 6.07757 -9.38419 13.9394
      vertex 5.47016 -9.75076 14.5455
      vertex -4.51852 -10.2266 14.5455
    endloop
  endfacet
  facet normal 0.680936 0.0759417 0.728395
    outer loop
      vertex 3.86081 10.4926 13.9394
      vertex 5.47016 -9.75076 14.5455
      vertex 6.07757 -9.38419 13.9394
    endloop
  endfacet
  facet normal 0.684382 0.0326011 -0.728395
    outer loop
      vertex 3.86081 10.4926 13.9394
      vertex 4.51852 10.2266 14.5455
      vertex 5.47016 -9.75076 14.5455
    endloop
  endfacet
  facet normal -0.0968525 0.868435 0.486252
    outer loop
      vertex -6.07757 9.38419 13.9394
      vertex 4.51852 10.2266 14.5455
      vertex 3.86081 10.4926 13.9394
    endloop
  endfacet
  facet normal -0.041578 0.872829 -0.486252
    outer loop
      vertex -6.07757 9.38419 13.9394
      vertex -5.47016 9.75076 14.5455
      vertex 4.51852 10.2266 14.5455
    endloop
  endfacet
  facet normal -0.684382 -0.0326011 0.728395
    outer loop
      vertex -4.51852 -10.2266 14.5455
      vertex -4.84071 10.0781 15.1515
      vertex -5.47016 9.75076 14.5455
    endloop
  endfacet
  facet normal -0.685072 0.0108707 -0.728395
    outer loop
      vertex -4.51852 -10.2266 14.5455
      vertex -5.15803 -9.91941 15.1515
      vertex -4.84071 10.0781 15.1515
    endloop
  endfacet
  facet normal 0.041578 -0.872829 0.486252
    outer loop
      vertex 5.47016 -9.75076 14.5455
      vertex -5.15803 -9.91941 15.1515
      vertex -4.51852 -10.2266 14.5455
    endloop
  endfacet
  facet normal -0.013864 -0.873709 -0.486252
    outer loop
      vertex 5.47016 -9.75076 14.5455
      vertex 4.84071 -10.0781 15.1515
      vertex -5.15803 -9.91941 15.1515
    endloop
  endfacet
  facet normal 0.684382 0.0326011 0.728395
    outer loop
      vertex 4.51852 10.2266 14.5455
      vertex 4.84071 -10.0781 15.1515
      vertex 5.47016 -9.75076 14.5455
    endloop
  endfacet
  facet normal 0.685072 -0.0108707 -0.728395
    outer loop
      vertex 4.51852 10.2266 14.5455
      vertex 5.15803 9.91941 15.1515
      vertex 4.84071 -10.0781 15.1515
    endloop
  endfacet
  facet normal -0.041578 0.872829 0.486252
    outer loop
      vertex -5.47016 9.75076 14.5455
      vertex 5.15803 9.91941 15.1515
      vertex 4.51852 10.2266 14.5455
    endloop
  endfacet
  facet normal 0.013864 0.873709 -0.486252
    outer loop
      vertex -5.47016 9.75076 14.5455
      vertex -4.84071 10.0781 15.1515
      vertex 5.15803 9.91941 15.1515
    endloop
  endfacet
  facet normal -0.685072 0.0108707 0.728395
    outer loop
      vertex -5.15803 -9.91941 15.1515
      vertex -4.19177 10.3648 15.7576
      vertex -4.84071 10.0781 15.1515
    endloop
  endfacet
  facet normal -0.683003 0.0542987 -0.728395
    outer loop
      vertex -5.15803 -9.91941 15.1515
      vertex -5.77677 -9.5723 15.7576
      vertex -4.19177 10.3648 15.7576
    endloop
  endfacet
  facet normal -0.013864 -0.873709 0.486252
    outer loop
      vertex 4.84071 -10.0781 15.1515
      vertex -5.77677 -9.5723 15.7576
      vertex -5.15803 -9.91941 15.1515
    endloop
  endfacet
  facet normal -0.0692501 -0.871071 -0.486252
    outer loop
      vertex 4.84071 -10.0781 15.1515
      vertex 4.19177 -10.3648 15.7576
      vertex -5.77677 -9.5723 15.7576
    endloop
  endfacet
  facet normal 0.685072 -0.0108707 0.728395
    outer loop
      vertex 5.15803 9.91941 15.1515
      vertex 4.19177 -10.3648 15.7576
      vertex 4.84071 -10.0781 15.1515
    endloop
  endfacet
  facet normal 0.683003 -0.0542987 -0.728395
    outer loop
      vertex 5.15803 9.91941 15.1515
      vertex 5.77677 9.5723 15.7576
      vertex 4.19177 -10.3648 15.7576
    endloop
  endfacet
  facet normal 0.013864 0.873709 0.486252
    outer loop
      vertex -4.84071 10.0781 15.1515
      vertex 5.77677 9.5723 15.7576
      vertex 5.15803 9.91941 15.1515
    endloop
  endfacet
  facet normal 0.0692501 0.871071 -0.486252
    outer loop
      vertex -4.84071 10.0781 15.1515
      vertex -4.19177 10.3648 15.7576
      vertex 5.77677 9.5723 15.7576
    endloop
  endfacet
  facet normal -0.683003 0.0542987 0.728395
    outer loop
      vertex -5.77677 -9.5723 15.7576
      vertex -3.52596 10.6098 16.3636
      vertex -4.19177 10.3648 15.7576
    endloop
  endfacet
  facet normal -0.678184 0.0975081 -0.728395
    outer loop
      vertex -5.77677 -9.5723 15.7576
      vertex -6.37226 -9.18664 16.3636
      vertex -3.52596 10.6098 16.3636
    endloop
  endfacet
  facet normal -0.0692501 -0.871071 0.486252
    outer loop
      vertex 4.19177 -10.3648 15.7576
      vertex -6.37226 -9.18664 16.3636
      vertex -5.77677 -9.5723 15.7576
    endloop
  endfacet
  facet normal -0.124357 -0.864925 -0.486252
    outer loop
      vertex 4.19177 -10.3648 15.7576
      vertex 3.52596 -10.6098 16.3636
      vertex -6.37226 -9.18664 16.3636
    endloop
  endfacet
  facet normal 0.683003 -0.0542987 0.728395
    outer loop
      vertex 5.77677 9.5723 15.7576
      vertex 3.52596 -10.6098 16.3636
      vertex 4.19177 -10.3648 15.7576
    endloop
  endfacet
  facet normal 0.678184 -0.0975081 -0.728395
    outer loop
      vertex 5.77677 9.5723 15.7576
      vertex 6.37226 9.18664 16.3636
      vertex 3.52596 -10.6098 16.3636
    endloop
  endfacet
  facet normal 0.0692501 0.871071 0.486252
    outer loop
      vertex -4.19177 10.3648 15.7576
      vertex 6.37226 9.18664 16.3636
      vertex 5.77677 9.5723 15.7576
    endloop
  endfacet
  facet normal 0.124357 0.864925 -0.486252
    outer loop
      vertex -4.19177 10.3648 15.7576
      vertex -3.52596 10.6098 16.3636
      vertex 6.37226 9.18664 16.3636
    endloop
  endfacet
  facet normal -0.678184 0.0975081 0.728395
    outer loop
      vertex -6.37226 -9.18664 16.3636
      vertex -2.84595 10.8121 16.9697
      vertex -3.52596 10.6098 16.3636
    endloop
  endfacet
  facet normal -0.670634 0.140325 -0.728395
    outer loop
      vertex -6.37226 -9.18664 16.3636
      vertex -6.94208 -8.76399 16.9697
      vertex -2.84595 10.8121 16.9697
    endloop
  endfacet
  facet normal -0.124357 -0.864925 0.486252
    outer loop
      vertex 3.52596 -10.6098 16.3636
      vertex -6.94208 -8.76399 16.9697
      vertex -6.37226 -9.18664 16.3636
    endloop
  endfacet
  facet normal -0.178964 -0.855296 -0.486252
    outer loop
      vertex 3.52596 -10.6098 16.3636
      vertex 2.84595 -10.8121 16.9697
      vertex -6.94208 -8.76399 16.9697
    endloop
  endfacet
  facet normal 0.678184 -0.0975081 0.728395
    outer loop
      vertex 6.37226 9.18664 16.3636
      vertex 2.84595 -10.8121 16.9697
      vertex 3.52596 -10.6098 16.3636
    endloop
  endfacet
  facet normal 0.670634 -0.140325 -0.728395
    outer loop
      vertex 6.37226 9.18664 16.3636
      vertex 6.94208 8.76399 16.9697
      vertex 2.84595 -10.8121 16.9697
    endloop
  endfacet
  facet normal 0.124357 0.864925 0.486252
    outer loop
      vertex -3.52596 10.6098 16.3636
      vertex 6.94208 8.76399 16.9697
      vertex 6.37226 9.18664 16.3636
    endloop
  endfacet
  facet normal 0.178964 0.855296 -0.486252
    outer loop
      vertex -3.52596 10.6098 16.3636
      vertex -2.84595 10.8121 16.9697
      vertex 6.94208 8.76399 16.9697
    endloop
  endfacet
  facet normal -0.670634 0.140325 0.728395
    outer loop
      vertex -6.94208 -8.76399 16.9697
      vertex -2.15447 10.9708 17.5758
      vertex -2.84595 10.8121 16.9697
    endloop
  endfacet
  facet normal -0.660384 0.182577 -0.728395
    outer loop
      vertex -6.94208 -8.76399 16.9697
      vertex -7.48395 -8.30605 17.5758
      vertex -2.15447 10.9708 17.5758
    endloop
  endfacet
  facet normal -0.178964 -0.855296 0.486252
    outer loop
      vertex 2.84595 -10.8121 16.9697
      vertex -7.48395 -8.30605 17.5758
      vertex -6.94208 -8.76399 16.9697
    endloop
  endfacet
  facet normal -0.23285 -0.842223 -0.486252
    outer loop
      vertex 2.84595 -10.8121 16.9697
      vertex 2.15447 -10.9708 17.5758
      vertex -7.48395 -8.30605 17.5758
    endloop
  endfacet
  facet normal 0.670634 -0.140325 0.728395
    outer loop
      vertex 6.94208 8.76399 16.9697
      vertex 2.15447 -10.9708 17.5758
      vertex 2.84595 -10.8121 16.9697
    endloop
  endfacet
  facet normal 0.660384 -0.182577 -0.728395
    outer loop
      vertex 6.94208 8.76399 16.9697
      vertex 7.48395 8.30605 17.5758
      vertex 2.15447 -10.9708 17.5758
    endloop
  endfacet
  facet normal 0.178964 0.855296 0.486252
    outer loop
      vertex -2.84595 10.8121 16.9697
      vertex 7.48395 8.30605 17.5758
      vertex 6.94208 8.76399 16.9697
    endloop
  endfacet
  facet normal 0.23285 0.842223 -0.486252
    outer loop
      vertex -2.84595 10.8121 16.9697
      vertex -2.15447 10.9708 17.5758
      vertex 7.48395 8.30605 17.5758
    endloop
  endfacet
  facet normal -0.660384 0.182577 0.728395
    outer loop
      vertex -7.48395 -8.30605 17.5758
      vertex -1.45432 11.0853 18.1818
      vertex -2.15447 10.9708 17.5758
    endloop
  endfacet
  facet normal -0.647475 0.224093 -0.728395
    outer loop
      vertex -7.48395 -8.30605 17.5758
      vertex -7.99568 -7.81467 18.1818
      vertex -1.45432 11.0853 18.1818
    endloop
  endfacet
  facet normal -0.23285 -0.842223 0.486252
    outer loop
      vertex 2.15447 -10.9708 17.5758
      vertex -7.99568 -7.81467 18.1818
      vertex -7.48395 -8.30605 17.5758
    endloop
  endfacet
  facet normal -0.285798 -0.82576 -0.486252
    outer loop
      vertex 2.15447 -10.9708 17.5758
      vertex 1.45432 -11.0853 18.1818
      vertex -7.99568 -7.81467 18.1818
    endloop
  endfacet
  facet normal 0.660384 -0.182577 0.728395
    outer loop
      vertex 7.48395 8.30605 17.5758
      vertex 1.45432 -11.0853 18.1818
      vertex 2.15447 -10.9708 17.5758
    endloop
  endfacet
  facet normal 0.647475 -0.224093 -0.728395
    outer loop
      vertex 7.48395 8.30605 17.5758
      vertex 7.99568 7.81467 18.1818
      vertex 1.45432 -11.0853 18.1818
    endloop
  endfacet
  facet normal 0.23285 0.842223 0.486252
    outer loop
      vertex -2.15447 10.9708 17.5758
      vertex 7.99568 7.81467 18.1818
      vertex 7.48395 8.30605 17.5758
    endloop
  endfacet
  facet normal 0.285798 0.82576 -0.486252
    outer loop
      vertex -2.15447 10.9708 17.5758
      vertex -1.45432 11.0853 18.1818
      vertex 7.99568 7.81467 18.1818
    endloop
  endfacet
  facet normal -0.647475 0.224093 0.728395
    outer loop
      vertex -7.99568 -7.81467 18.1818
      vertex -0.74832 11.1553 18.7879
      vertex -1.45432 11.0853 18.1818
    endloop
  endfacet
  facet normal -0.631958 0.264707 -0.728395
    outer loop
      vertex -7.99568 -7.81467 18.1818
      vertex -8.47522 -7.29182 18.7879
      vertex -0.74832 11.1553 18.7879
    endloop
  endfacet
  facet normal -0.285798 -0.82576 0.486252
    outer loop
      vertex 1.45432 -11.0853 18.1818
      vertex -8.47522 -7.29182 18.7879
      vertex -7.99568 -7.81467 18.1818
    endloop
  endfacet
  facet normal -0.337596 -0.805971 -0.486252
    outer loop
      vertex 1.45432 -11.0853 18.1818
      vertex 0.74832 -11.1553 18.7879
      vertex -8.47522 -7.29182 18.7879
    endloop
  endfacet
  facet normal 0.647475 -0.224093 0.728395
    outer loop
      vertex 7.99568 7.81467 18.1818
      vertex 0.74832 -11.1553 18.7879
      vertex 1.45432 -11.0853 18.1818
    endloop
  endfacet
  facet normal 0.631958 -0.264707 -0.728395
    outer loop
      vertex 7.99568 7.81467 18.1818
      vertex 8.47522 7.29182 18.7879
      vertex 0.74832 -11.1553 18.7879
    endloop
  endfacet
  facet normal 0.285798 0.82576 0.486252
    outer loop
      vertex -1.45432 11.0853 18.1818
      vertex 8.47522 7.29182 18.7879
      vertex 7.99568 7.81467 18.1818
    endloop
  endfacet
  facet normal 0.337596 0.805971 -0.486252
    outer loop
      vertex -1.45432 11.0853 18.1818
      vertex -0.74832 11.1553 18.7879
      vertex 8.47522 7.29182 18.7879
    endloop
  endfacet
  facet normal -0.631958 0.264707 0.728395
    outer loop
      vertex -8.47522 -7.29182 18.7879
      vertex -0.0393027 11.1803 19.3939
      vertex -0.74832 11.1553 18.7879
    endloop
  endfacet
  facet normal -0.613897 0.304256 -0.728395
    outer loop
      vertex -8.47522 -7.29182 18.7879
      vertex -8.92063 -6.7396 19.3939
      vertex -0.0393027 11.1803 19.3939
    endloop
  endfacet
  facet normal -0.337596 -0.805971 0.486252
    outer loop
      vertex 0.74832 -11.1553 18.7879
      vertex -8.92063 -6.7396 19.3939
      vertex -8.47522 -7.29182 18.7879
    endloop
  endfacet
  facet normal -0.388034 -0.782936 -0.486252
    outer loop
      vertex 0.74832 -11.1553 18.7879
      vertex 0.0393027 -11.1803 19.3939
      vertex -8.92063 -6.7396 19.3939
    endloop
  endfacet
  facet normal 0.631958 -0.264707 0.728395
    outer loop
      vertex 8.47522 7.29182 18.7879
      vertex 0.0393027 -11.1803 19.3939
      vertex 0.74832 -11.1553 18.7879
    endloop
  endfacet
  facet normal 0.613897 -0.304256 -0.728395
    outer loop
      vertex 8.47522 7.29182 18.7879
      vertex 8.92063 6.7396 19.3939
      vertex 0.0393027 -11.1803 19.3939
    endloop
  endfacet
  facet normal 0.337596 0.805971 0.486252
    outer loop
      vertex -0.74832 11.1553 18.7879
      vertex 8.92063 6.7396 19.3939
      vertex 8.47522 7.29182 18.7879
    endloop
  endfacet
  facet normal 0.388034 0.782936 -0.486252
    outer loop
      vertex -0.74832 11.1553 18.7879
      vertex -0.0393027 11.1803 19.3939
      vertex 8.92063 6.7396 19.3939
    endloop
  endfacet
  facet normal -0.613897 0.304256 0.728395
    outer loop
      vertex -8.92063 -6.7396 19.3939
      vertex 0.669873 11.1603 20
      vertex -0.0393027 11.1803 19.3939
    endloop
  endfacet
  facet normal -0.593364 0.342579 -0.728395
    outer loop
      vertex -8.92063 -6.7396 19.3939
      vertex -9.33013 -6.16025 20
      vertex 0.669873 11.1603 20
    endloop
  endfacet
  facet normal -0.388034 -0.782936 0.486252
    outer loop
      vertex 0.0393027 -11.1803 19.3939
      vertex -9.33013 -6.16025 20
      vertex -8.92063 -6.7396 19.3939
    endloop
  endfacet
  facet normal -0.436909 -0.756749 -0.486252
    outer loop
      vertex 0.0393027 -11.1803 19.3939
      vertex -0.669873 -11.1603 20
      vertex -9.33013 -6.16025 20
    endloop
  endfacet
  facet normal 0.613897 -0.304256 0.728395
    outer loop
      vertex 8.92063 6.7396 19.3939
      vertex -0.669873 -11.1603 20
      vertex 0.0393027 -11.1803 19.3939
    endloop
  endfacet
  facet normal 0.593364 -0.342579 -0.728395
    outer loop
      vertex 8.92063 6.7396 19.3939
      vertex 9.33013 6.16025 20
      vertex -0.669873 -11.1603 20
    endloop
  endfacet
  facet normal 0.388034 0.782936 0.486252
    outer loop
      vertex -0.0393027 11.1803 19.3939
      vertex 9.33013 6.16025 20
      vertex 8.92063 6.7396 19.3939
    endloop
  endfacet
  facet normal 0.436909 0.756749 -0.486252
    outer loop
      vertex -0.0393027 11.1803 19.3939
      vertex 0.669873 11.1603 20
      vertex 9.33013 6.16025 20
    endloop
  endfacet
endsolid OpenSCAD_Model
