solid OpenSCAD_Model
  facet normal -1 0 0
    outer loop
      vertex -60 -60 -60
      vertex -60 60 60
      vertex -60 60 -60
    endloop
  endfacet
  facet normal -1 -0 0
    outer loop
      vertex -60 60 60
      vertex -60 -60 -60
      vertex -60 -60 60
    endloop
  endfacet
  facet normal 0 0 1
    outer loop
      vertex 60 60 60
      vertex 50 0 60
      vertex 60 -60 60
    endloop
  endfacet
  facet normal 0 0 1
    outer loop
      vertex 60 60 60
      vertex 49.9013 3.13953 60
      vertex 50 0 60
    endloop
  endfacet
  facet normal 0 0 1
    outer loop
      vertex 60 60 60
      vertex 49.6057 6.26666 60
      vertex 49.9013 3.13953 60
    endloop
  endfacet
  facet normal 0 0 1
    outer loop
      vertex 60 60 60
      vertex 49.1144 9.36907 60
      vertex 49.6057 6.26666 60
    endloop
  endfacet
  facet normal 0 0 1
    outer loop
      vertex 60 60 60
      vertex 48.4292 12.4345 60
      vertex 49.1144 9.36907 60
    endloop
  endfacet
  facet normal 0 0 1
    outer loop
      vertex 60 60 60
      vertex 47.5528 15.4508 60
      vertex 48.4292 12.4345 60
    endloop
  endfacet
  facet normal 0 0 1
    outer loop
      vertex 60 60 60
      vertex 46.4888 18.4062 60
      vertex 47.5528 15.4508 60
    endloop
  endfacet
  facet normal 0 0 1
    outer loop
      vertex 60 60 60
      vertex 45.2414 21.289 60
      vertex 46.4888 18.4062 60
    endloop
  endfacet
  facet normal 0 0 1
    outer loop
      vertex 60 60 60
      vertex 43.8153 24.0877 60
      vertex 45.2414 21.289 60
    endloop
  endfacet
  facet normal 0 0 1
    outer loop
      vertex 60 60 60
      vertex 42.2164 26.7913 60
      vertex 43.8153 24.0877 60
    endloop
  endfacet
  facet normal 0 0 1
    outer loop
      vertex 60 60 60
      vertex 40.4509 29.3893 60
      vertex 42.2164 26.7913 60
    endloop
  endfacet
  facet normal 0 0 1
    outer loop
      vertex 60 60 60
      vertex 38.5257 31.8712 60
      vertex 40.4509 29.3893 60
    endloop
  endfacet
  facet normal 0 0 1
    outer loop
      vertex 60 60 60
      vertex 36.4484 34.2274 60
      vertex 38.5257 31.8712 60
    endloop
  endfacet
  facet normal 0 0 1
    outer loop
      vertex 60 60 60
      vertex 34.2274 36.4484 60
      vertex 36.4484 34.2274 60
    endloop
  endfacet
  facet normal 0 0 1
    outer loop
      vertex 60 60 60
      vertex 31.8712 38.5257 60
      vertex 34.2274 36.4484 60
    endloop
  endfacet
  facet normal 0 0 1
    outer loop
      vertex 60 60 60
      vertex 29.3893 40.4509 60
      vertex 31.8712 38.5257 60
    endloop
  endfacet
  facet normal 0 0 1
    outer loop
      vertex 60 60 60
      vertex 26.7913 42.2164 60
      vertex 29.3893 40.4509 60
    endloop
  endfacet
  facet normal 0 0 1
    outer loop
      vertex 60 60 60
      vertex 24.0877 43.8153 60
      vertex 26.7913 42.2164 60
    endloop
  endfacet
  facet normal 0 0 1
    outer loop
      vertex 60 60 60
      vertex 21.289 45.2414 60
      vertex 24.0877 43.8153 60
    endloop
  endfacet
  facet normal 0 0 1
    outer loop
      vertex 60 60 60
      vertex 18.4062 46.4888 60
      vertex 21.289 45.2414 60
    endloop
  endfacet
  facet normal 0 0 1
    outer loop
      vertex 60 60 60
      vertex 15.4508 47.5528 60
      vertex 18.4062 46.4888 60
    endloop
  endfacet
  facet normal 0 0 1
    outer loop
      vertex 60 60 60
      vertex 12.4345 48.4292 60
      vertex 15.4508 47.5528 60
    endloop
  endfacet
  facet normal 0 0 1
    outer loop
      vertex 60 60 60
      vertex 9.36907 49.1144 60
      vertex 12.4345 48.4292 60
    endloop
  endfacet
  facet normal 0 0 1
    outer loop
      vertex 60 60 60
      vertex 6.26666 49.6057 60
      vertex 9.36907 49.1144 60
    endloop
  endfacet
  facet normal 0 0 1
    outer loop
      vertex 60 60 60
      vertex 3.13953 49.9013 60
      vertex 6.26666 49.6057 60
    endloop
  endfacet
  facet normal 0 0 1
    outer loop
      vertex 60 60 60
      vertex 0 50 60
      vertex 3.13953 49.9013 60
    endloop
  endfacet
  facet normal -0 0 1
    outer loop
      vertex -60 60 60
      vertex 0 50 60
      vertex 60 60 60
    endloop
  endfacet
  facet normal 0 0 1
    outer loop
      vertex 0 50 60
      vertex -60 60 60
      vertex -3.13953 49.9013 60
    endloop
  endfacet
  facet normal 0 0 1
    outer loop
      vertex -49.9013 3.13953 60
      vertex -60 60 60
      vertex -50 0 60
    endloop
  endfacet
  facet normal 0 0 1
    outer loop
      vertex -49.6057 6.26666 60
      vertex -60 60 60
      vertex -49.9013 3.13953 60
    endloop
  endfacet
  facet normal 0 0 1
    outer loop
      vertex -49.1144 9.36907 60
      vertex -60 60 60
      vertex -49.6057 6.26666 60
    endloop
  endfacet
  facet normal 0 0 1
    outer loop
      vertex -48.4292 12.4345 60
      vertex -60 60 60
      vertex -49.1144 9.36907 60
    endloop
  endfacet
  facet normal 0 0 1
    outer loop
      vertex -47.5528 15.4508 60
      vertex -60 60 60
      vertex -48.4292 12.4345 60
    endloop
  endfacet
  facet normal 0 0 1
    outer loop
      vertex -46.4888 18.4062 60
      vertex -60 60 60
      vertex -47.5528 15.4508 60
    endloop
  endfacet
  facet normal 0 0 1
    outer loop
      vertex -45.2414 21.289 60
      vertex -60 60 60
      vertex -46.4888 18.4062 60
    endloop
  endfacet
  facet normal 0 0 1
    outer loop
      vertex -43.8153 24.0877 60
      vertex -60 60 60
      vertex -45.2414 21.289 60
    endloop
  endfacet
  facet normal 0 0 1
    outer loop
      vertex -42.2164 26.7913 60
      vertex -60 60 60
      vertex -43.8153 24.0877 60
    endloop
  endfacet
  facet normal 0 0 1
    outer loop
      vertex -40.4509 29.3893 60
      vertex -60 60 60
      vertex -42.2164 26.7913 60
    endloop
  endfacet
  facet normal 0 0 1
    outer loop
      vertex -38.5257 31.8712 60
      vertex -60 60 60
      vertex -40.4509 29.3893 60
    endloop
  endfacet
  facet normal 0 0 1
    outer loop
      vertex -36.4484 34.2274 60
      vertex -60 60 60
      vertex -38.5257 31.8712 60
    endloop
  endfacet
  facet normal 0 0 1
    outer loop
      vertex -34.2274 36.4484 60
      vertex -60 60 60
      vertex -36.4484 34.2274 60
    endloop
  endfacet
  facet normal 0 0 1
    outer loop
      vertex -31.8712 38.5257 60
      vertex -60 60 60
      vertex -34.2274 36.4484 60
    endloop
  endfacet
  facet normal 0 0 1
    outer loop
      vertex -29.3893 40.4509 60
      vertex -60 60 60
      vertex -31.8712 38.5257 60
    endloop
  endfacet
  facet normal 0 0 1
    outer loop
      vertex -26.7913 42.2164 60
      vertex -60 60 60
      vertex -29.3893 40.4509 60
    endloop
  endfacet
  facet normal 0 0 1
    outer loop
      vertex -24.0877 43.8153 60
      vertex -60 60 60
      vertex -26.7913 42.2164 60
    endloop
  endfacet
  facet normal 0 0 1
    outer loop
      vertex -21.289 45.2414 60
      vertex -60 60 60
      vertex -24.0877 43.8153 60
    endloop
  endfacet
  facet normal 0 0 1
    outer loop
      vertex -18.4062 46.4888 60
      vertex -60 60 60
      vertex -21.289 45.2414 60
    endloop
  endfacet
  facet normal 0 0 1
    outer loop
      vertex -15.4508 47.5528 60
      vertex -60 60 60
      vertex -18.4062 46.4888 60
    endloop
  endfacet
  facet normal 0 0 1
    outer loop
      vertex -12.4345 48.4292 60
      vertex -60 60 60
      vertex -15.4508 47.5528 60
    endloop
  endfacet
  facet normal 0 0 1
    outer loop
      vertex -9.36907 49.1144 60
      vertex -60 60 60
      vertex -12.4345 48.4292 60
    endloop
  endfacet
  facet normal 0 0 1
    outer loop
      vertex -6.26666 49.6057 60
      vertex -60 60 60
      vertex -9.36907 49.1144 60
    endloop
  endfacet
  facet normal 0 0 1
    outer loop
      vertex -3.13953 49.9013 60
      vertex -60 60 60
      vertex -6.26666 49.6057 60
    endloop
  endfacet
  facet normal -0 0 1
    outer loop
      vertex 49.9013 -3.13953 60
      vertex 60 -60 60
      vertex 50 0 60
    endloop
  endfacet
  facet normal -0 0 1
    outer loop
      vertex 49.6057 -6.26666 60
      vertex 60 -60 60
      vertex 49.9013 -3.13953 60
    endloop
  endfacet
  facet normal -0 0 1
    outer loop
      vertex 49.1144 -9.36907 60
      vertex 60 -60 60
      vertex 49.6057 -6.26666 60
    endloop
  endfacet
  facet normal -0 0 1
    outer loop
      vertex 48.4292 -12.4345 60
      vertex 60 -60 60
      vertex 49.1144 -9.36907 60
    endloop
  endfacet
  facet normal -0 0 1
    outer loop
      vertex 47.5528 -15.4508 60
      vertex 60 -60 60
      vertex 48.4292 -12.4345 60
    endloop
  endfacet
  facet normal -0 0 1
    outer loop
      vertex 46.4888 -18.4062 60
      vertex 60 -60 60
      vertex 47.5528 -15.4508 60
    endloop
  endfacet
  facet normal -0 0 1
    outer loop
      vertex 45.2414 -21.289 60
      vertex 60 -60 60
      vertex 46.4888 -18.4062 60
    endloop
  endfacet
  facet normal -0 0 1
    outer loop
      vertex 43.8153 -24.0877 60
      vertex 60 -60 60
      vertex 45.2414 -21.289 60
    endloop
  endfacet
  facet normal -0 0 1
    outer loop
      vertex 42.2164 -26.7913 60
      vertex 60 -60 60
      vertex 43.8153 -24.0877 60
    endloop
  endfacet
  facet normal -0 0 1
    outer loop
      vertex 40.4509 -29.3893 60
      vertex 60 -60 60
      vertex 42.2164 -26.7913 60
    endloop
  endfacet
  facet normal -0 0 1
    outer loop
      vertex 38.5257 -31.8712 60
      vertex 60 -60 60
      vertex 40.4509 -29.3893 60
    endloop
  endfacet
  facet normal -0 0 1
    outer loop
      vertex 36.4484 -34.2274 60
      vertex 60 -60 60
      vertex 38.5257 -31.8712 60
    endloop
  endfacet
  facet normal -0 0 1
    outer loop
      vertex 34.2274 -36.4484 60
      vertex 60 -60 60
      vertex 36.4484 -34.2274 60
    endloop
  endfacet
  facet normal -0 0 1
    outer loop
      vertex 31.8712 -38.5257 60
      vertex 60 -60 60
      vertex 34.2274 -36.4484 60
    endloop
  endfacet
  facet normal -0 0 1
    outer loop
      vertex 29.3893 -40.4509 60
      vertex 60 -60 60
      vertex 31.8712 -38.5257 60
    endloop
  endfacet
  facet normal -0 0 1
    outer loop
      vertex 26.7913 -42.2164 60
      vertex 60 -60 60
      vertex 29.3893 -40.4509 60
    endloop
  endfacet
  facet normal -0 0 1
    outer loop
      vertex 24.0877 -43.8153 60
      vertex 60 -60 60
      vertex 26.7913 -42.2164 60
    endloop
  endfacet
  facet normal -0 0 1
    outer loop
      vertex 21.289 -45.2414 60
      vertex 60 -60 60
      vertex 24.0877 -43.8153 60
    endloop
  endfacet
  facet normal -0 0 1
    outer loop
      vertex 18.4062 -46.4888 60
      vertex 60 -60 60
      vertex 21.289 -45.2414 60
    endloop
  endfacet
  facet normal -0 0 1
    outer loop
      vertex 15.4508 -47.5528 60
      vertex 60 -60 60
      vertex 18.4062 -46.4888 60
    endloop
  endfacet
  facet normal -0 0 1
    outer loop
      vertex 12.4345 -48.4292 60
      vertex 60 -60 60
      vertex 15.4508 -47.5528 60
    endloop
  endfacet
  facet normal -0 0 1
    outer loop
      vertex 9.36907 -49.1144 60
      vertex 60 -60 60
      vertex 12.4345 -48.4292 60
    endloop
  endfacet
  facet normal -0 0 1
    outer loop
      vertex 6.26666 -49.6057 60
      vertex 60 -60 60
      vertex 9.36907 -49.1144 60
    endloop
  endfacet
  facet normal -0 0 1
    outer loop
      vertex 3.13953 -49.9013 60
      vertex 60 -60 60
      vertex 6.26666 -49.6057 60
    endloop
  endfacet
  facet normal -0 0 1
    outer loop
      vertex 0 -50 60
      vertex 60 -60 60
      vertex 3.13953 -49.9013 60
    endloop
  endfacet
  facet normal 0 0 1
    outer loop
      vertex -60 -60 60
      vertex 0 -50 60
      vertex -3.13953 -49.9013 60
    endloop
  endfacet
  facet normal 0 0 1
    outer loop
      vertex -60 -60 60
      vertex -3.13953 -49.9013 60
      vertex -6.26666 -49.6057 60
    endloop
  endfacet
  facet normal 0 0 1
    outer loop
      vertex -60 -60 60
      vertex -50 0 60
      vertex -60 60 60
    endloop
  endfacet
  facet normal 0 0 1
    outer loop
      vertex -50 0 60
      vertex -60 -60 60
      vertex -49.9013 -3.13953 60
    endloop
  endfacet
  facet normal 0 0 1
    outer loop
      vertex 0 -50 60
      vertex -60 -60 60
      vertex 60 -60 60
    endloop
  endfacet
  facet normal 0 0 1
    outer loop
      vertex -9.36907 -49.1144 60
      vertex -60 -60 60
      vertex -6.26666 -49.6057 60
    endloop
  endfacet
  facet normal 0 0 1
    outer loop
      vertex -12.4345 -48.4292 60
      vertex -60 -60 60
      vertex -9.36907 -49.1144 60
    endloop
  endfacet
  facet normal 0 0 1
    outer loop
      vertex -15.4508 -47.5528 60
      vertex -60 -60 60
      vertex -12.4345 -48.4292 60
    endloop
  endfacet
  facet normal 0 0 1
    outer loop
      vertex -18.4062 -46.4888 60
      vertex -60 -60 60
      vertex -15.4508 -47.5528 60
    endloop
  endfacet
  facet normal 0 0 1
    outer loop
      vertex -21.289 -45.2414 60
      vertex -60 -60 60
      vertex -18.4062 -46.4888 60
    endloop
  endfacet
  facet normal 0 0 1
    outer loop
      vertex -24.0877 -43.8153 60
      vertex -60 -60 60
      vertex -21.289 -45.2414 60
    endloop
  endfacet
  facet normal 0 0 1
    outer loop
      vertex -26.7913 -42.2164 60
      vertex -60 -60 60
      vertex -24.0877 -43.8153 60
    endloop
  endfacet
  facet normal 0 0 1
    outer loop
      vertex -29.3893 -40.4509 60
      vertex -60 -60 60
      vertex -26.7913 -42.2164 60
    endloop
  endfacet
  facet normal 0 0 1
    outer loop
      vertex -31.8712 -38.5257 60
      vertex -60 -60 60
      vertex -29.3893 -40.4509 60
    endloop
  endfacet
  facet normal 0 0 1
    outer loop
      vertex -34.2274 -36.4484 60
      vertex -60 -60 60
      vertex -31.8712 -38.5257 60
    endloop
  endfacet
  facet normal 0 0 1
    outer loop
      vertex -36.4484 -34.2274 60
      vertex -60 -60 60
      vertex -34.2274 -36.4484 60
    endloop
  endfacet
  facet normal 0 0 1
    outer loop
      vertex -38.5257 -31.8712 60
      vertex -60 -60 60
      vertex -36.4484 -34.2274 60
    endloop
  endfacet
  facet normal 0 0 1
    outer loop
      vertex -40.4509 -29.3893 60
      vertex -60 -60 60
      vertex -38.5257 -31.8712 60
    endloop
  endfacet
  facet normal 0 0 1
    outer loop
      vertex -42.2164 -26.7913 60
      vertex -60 -60 60
      vertex -40.4509 -29.3893 60
    endloop
  endfacet
  facet normal 0 0 1
    outer loop
      vertex -43.8153 -24.0877 60
      vertex -60 -60 60
      vertex -42.2164 -26.7913 60
    endloop
  endfacet
  facet normal 0 0 1
    outer loop
      vertex -45.2414 -21.289 60
      vertex -60 -60 60
      vertex -43.8153 -24.0877 60
    endloop
  endfacet
  facet normal 0 0 1
    outer loop
      vertex -46.4888 -18.4062 60
      vertex -60 -60 60
      vertex -45.2414 -21.289 60
    endloop
  endfacet
  facet normal 0 0 1
    outer loop
      vertex -47.5528 -15.4508 60
      vertex -60 -60 60
      vertex -46.4888 -18.4062 60
    endloop
  endfacet
  facet normal 0 0 1
    outer loop
      vertex -48.4292 -12.4345 60
      vertex -60 -60 60
      vertex -47.5528 -15.4508 60
    endloop
  endfacet
  facet normal 0 0 1
    outer loop
      vertex -49.1144 -9.36907 60
      vertex -60 -60 60
      vertex -48.4292 -12.4345 60
    endloop
  endfacet
  facet normal 0 0 1
    outer loop
      vertex -49.6057 -6.26666 60
      vertex -60 -60 60
      vertex -49.1144 -9.36907 60
    endloop
  endfacet
  facet normal 0 0 1
    outer loop
      vertex -49.9013 -3.13953 60
      vertex -60 -60 60
      vertex -49.6057 -6.26666 60
    endloop
  endfacet
  facet normal 1 -0 0
    outer loop
      vertex 60 -60 60
      vertex 60 60 -60
      vertex 60 60 60
    endloop
  endfacet
  facet normal 1 0 0
    outer loop
      vertex 60 60 -60
      vertex 60 -60 60
      vertex 60 -60 -60
    endloop
  endfacet
  facet normal 0 0 -1
    outer loop
      vertex 60 -60 -60
      vertex 50 0 -60
      vertex 60 60 -60
    endloop
  endfacet
  facet normal 0 0 -1
    outer loop
      vertex 60 -60 -60
      vertex 49.9013 -3.13953 -60
      vertex 50 0 -60
    endloop
  endfacet
  facet normal 0 0 -1
    outer loop
      vertex 60 -60 -60
      vertex 49.6057 -6.26666 -60
      vertex 49.9013 -3.13953 -60
    endloop
  endfacet
  facet normal 0 0 -1
    outer loop
      vertex 60 -60 -60
      vertex 49.1144 -9.36907 -60
      vertex 49.6057 -6.26666 -60
    endloop
  endfacet
  facet normal 0 0 -1
    outer loop
      vertex 60 -60 -60
      vertex 48.4292 -12.4345 -60
      vertex 49.1144 -9.36907 -60
    endloop
  endfacet
  facet normal 0 0 -1
    outer loop
      vertex 60 -60 -60
      vertex 47.5528 -15.4508 -60
      vertex 48.4292 -12.4345 -60
    endloop
  endfacet
  facet normal 0 0 -1
    outer loop
      vertex 60 -60 -60
      vertex 46.4888 -18.4062 -60
      vertex 47.5528 -15.4508 -60
    endloop
  endfacet
  facet normal 0 0 -1
    outer loop
      vertex 60 -60 -60
      vertex 45.2414 -21.289 -60
      vertex 46.4888 -18.4062 -60
    endloop
  endfacet
  facet normal 0 0 -1
    outer loop
      vertex 60 -60 -60
      vertex 43.8153 -24.0877 -60
      vertex 45.2414 -21.289 -60
    endloop
  endfacet
  facet normal 0 0 -1
    outer loop
      vertex 60 -60 -60
      vertex 42.2164 -26.7913 -60
      vertex 43.8153 -24.0877 -60
    endloop
  endfacet
  facet normal 0 0 -1
    outer loop
      vertex 60 -60 -60
      vertex 40.4509 -29.3893 -60
      vertex 42.2164 -26.7913 -60
    endloop
  endfacet
  facet normal 0 0 -1
    outer loop
      vertex 60 -60 -60
      vertex 38.5257 -31.8712 -60
      vertex 40.4509 -29.3893 -60
    endloop
  endfacet
  facet normal 0 0 -1
    outer loop
      vertex 60 -60 -60
      vertex 36.4484 -34.2274 -60
      vertex 38.5257 -31.8712 -60
    endloop
  endfacet
  facet normal 0 0 -1
    outer loop
      vertex 60 -60 -60
      vertex 34.2274 -36.4484 -60
      vertex 36.4484 -34.2274 -60
    endloop
  endfacet
  facet normal 0 0 -1
    outer loop
      vertex 60 -60 -60
      vertex 31.8712 -38.5257 -60
      vertex 34.2274 -36.4484 -60
    endloop
  endfacet
  facet normal 0 0 -1
    outer loop
      vertex 60 -60 -60
      vertex 29.3893 -40.4509 -60
      vertex 31.8712 -38.5257 -60
    endloop
  endfacet
  facet normal 0 0 -1
    outer loop
      vertex 60 -60 -60
      vertex 26.7913 -42.2164 -60
      vertex 29.3893 -40.4509 -60
    endloop
  endfacet
  facet normal 0 0 -1
    outer loop
      vertex 60 -60 -60
      vertex 24.0877 -43.8153 -60
      vertex 26.7913 -42.2164 -60
    endloop
  endfacet
  facet normal 0 0 -1
    outer loop
      vertex 60 -60 -60
      vertex 21.289 -45.2414 -60
      vertex 24.0877 -43.8153 -60
    endloop
  endfacet
  facet normal 0 0 -1
    outer loop
      vertex 60 -60 -60
      vertex 18.4062 -46.4888 -60
      vertex 21.289 -45.2414 -60
    endloop
  endfacet
  facet normal 0 0 -1
    outer loop
      vertex 60 -60 -60
      vertex 15.4508 -47.5528 -60
      vertex 18.4062 -46.4888 -60
    endloop
  endfacet
  facet normal 0 0 -1
    outer loop
      vertex 60 -60 -60
      vertex 12.4345 -48.4292 -60
      vertex 15.4508 -47.5528 -60
    endloop
  endfacet
  facet normal 0 0 -1
    outer loop
      vertex 60 -60 -60
      vertex 9.36907 -49.1144 -60
      vertex 12.4345 -48.4292 -60
    endloop
  endfacet
  facet normal 0 0 -1
    outer loop
      vertex 60 -60 -60
      vertex 6.26666 -49.6057 -60
      vertex 9.36907 -49.1144 -60
    endloop
  endfacet
  facet normal 0 0 -1
    outer loop
      vertex 60 -60 -60
      vertex 3.13953 -49.9013 -60
      vertex 6.26666 -49.6057 -60
    endloop
  endfacet
  facet normal 0 0 -1
    outer loop
      vertex 60 -60 -60
      vertex 0 -50 -60
      vertex 3.13953 -49.9013 -60
    endloop
  endfacet
  facet normal 0 0 -1
    outer loop
      vertex -60 -60 -60
      vertex 0 -50 -60
      vertex 60 -60 -60
    endloop
  endfacet
  facet normal -0 0 -1
    outer loop
      vertex 0 -50 -60
      vertex -60 -60 -60
      vertex -3.13953 -49.9013 -60
    endloop
  endfacet
  facet normal -0 0 -1
    outer loop
      vertex -49.9013 -3.13953 -60
      vertex -60 -60 -60
      vertex -50 0 -60
    endloop
  endfacet
  facet normal -0 0 -1
    outer loop
      vertex -49.6057 -6.26666 -60
      vertex -60 -60 -60
      vertex -49.9013 -3.13953 -60
    endloop
  endfacet
  facet normal -0 0 -1
    outer loop
      vertex -49.1144 -9.36907 -60
      vertex -60 -60 -60
      vertex -49.6057 -6.26666 -60
    endloop
  endfacet
  facet normal -0 0 -1
    outer loop
      vertex -48.4292 -12.4345 -60
      vertex -60 -60 -60
      vertex -49.1144 -9.36907 -60
    endloop
  endfacet
  facet normal -0 0 -1
    outer loop
      vertex -47.5528 -15.4508 -60
      vertex -60 -60 -60
      vertex -48.4292 -12.4345 -60
    endloop
  endfacet
  facet normal -0 0 -1
    outer loop
      vertex -46.4888 -18.4062 -60
      vertex -60 -60 -60
      vertex -47.5528 -15.4508 -60
    endloop
  endfacet
  facet normal -0 0 -1
    outer loop
      vertex -45.2414 -21.289 -60
      vertex -60 -60 -60
      vertex -46.4888 -18.4062 -60
    endloop
  endfacet
  facet normal -0 0 -1
    outer loop
      vertex -43.8153 -24.0877 -60
      vertex -60 -60 -60
      vertex -45.2414 -21.289 -60
    endloop
  endfacet
  facet normal -0 0 -1
    outer loop
      vertex -42.2164 -26.7913 -60
      vertex -60 -60 -60
      vertex -43.8153 -24.0877 -60
    endloop
  endfacet
  facet normal -0 0 -1
    outer loop
      vertex -40.4509 -29.3893 -60
      vertex -60 -60 -60
      vertex -42.2164 -26.7913 -60
    endloop
  endfacet
  facet normal -0 0 -1
    outer loop
      vertex -38.5257 -31.8712 -60
      vertex -60 -60 -60
      vertex -40.4509 -29.3893 -60
    endloop
  endfacet
  facet normal -0 0 -1
    outer loop
      vertex -36.4484 -34.2274 -60
      vertex -60 -60 -60
      vertex -38.5257 -31.8712 -60
    endloop
  endfacet
  facet normal -0 0 -1
    outer loop
      vertex -34.2274 -36.4484 -60
      vertex -60 -60 -60
      vertex -36.4484 -34.2274 -60
    endloop
  endfacet
  facet normal -0 0 -1
    outer loop
      vertex -31.8712 -38.5257 -60
      vertex -60 -60 -60
      vertex -34.2274 -36.4484 -60
    endloop
  endfacet
  facet normal -0 0 -1
    outer loop
      vertex -29.3893 -40.4509 -60
      vertex -60 -60 -60
      vertex -31.8712 -38.5257 -60
    endloop
  endfacet
  facet normal -0 0 -1
    outer loop
      vertex -26.7913 -42.2164 -60
      vertex -60 -60 -60
      vertex -29.3893 -40.4509 -60
    endloop
  endfacet
  facet normal -0 0 -1
    outer loop
      vertex -24.0877 -43.8153 -60
      vertex -60 -60 -60
      vertex -26.7913 -42.2164 -60
    endloop
  endfacet
  facet normal -0 0 -1
    outer loop
      vertex -21.289 -45.2414 -60
      vertex -60 -60 -60
      vertex -24.0877 -43.8153 -60
    endloop
  endfacet
  facet normal -0 0 -1
    outer loop
      vertex -18.4062 -46.4888 -60
      vertex -60 -60 -60
      vertex -21.289 -45.2414 -60
    endloop
  endfacet
  facet normal -0 0 -1
    outer loop
      vertex -15.4508 -47.5528 -60
      vertex -60 -60 -60
      vertex -18.4062 -46.4888 -60
    endloop
  endfacet
  facet normal -0 0 -1
    outer loop
      vertex -12.4345 -48.4292 -60
      vertex -60 -60 -60
      vertex -15.4508 -47.5528 -60
    endloop
  endfacet
  facet normal -0 0 -1
    outer loop
      vertex -9.36907 -49.1144 -60
      vertex -60 -60 -60
      vertex -12.4345 -48.4292 -60
    endloop
  endfacet
  facet normal -0 0 -1
    outer loop
      vertex -6.26666 -49.6057 -60
      vertex -60 -60 -60
      vertex -9.36907 -49.1144 -60
    endloop
  endfacet
  facet normal -0 0 -1
    outer loop
      vertex -3.13953 -49.9013 -60
      vertex -60 -60 -60
      vertex -6.26666 -49.6057 -60
    endloop
  endfacet
  facet normal 0 0 -1
    outer loop
      vertex 49.9013 3.13953 -60
      vertex 60 60 -60
      vertex 50 0 -60
    endloop
  endfacet
  facet normal 0 0 -1
    outer loop
      vertex 49.6057 6.26666 -60
      vertex 60 60 -60
      vertex 49.9013 3.13953 -60
    endloop
  endfacet
  facet normal 0 0 -1
    outer loop
      vertex 49.1144 9.36907 -60
      vertex 60 60 -60
      vertex 49.6057 6.26666 -60
    endloop
  endfacet
  facet normal 0 0 -1
    outer loop
      vertex 48.4292 12.4345 -60
      vertex 60 60 -60
      vertex 49.1144 9.36907 -60
    endloop
  endfacet
  facet normal 0 0 -1
    outer loop
      vertex 47.5528 15.4508 -60
      vertex 60 60 -60
      vertex 48.4292 12.4345 -60
    endloop
  endfacet
  facet normal 0 0 -1
    outer loop
      vertex 46.4888 18.4062 -60
      vertex 60 60 -60
      vertex 47.5528 15.4508 -60
    endloop
  endfacet
  facet normal 0 0 -1
    outer loop
      vertex 45.2414 21.289 -60
      vertex 60 60 -60
      vertex 46.4888 18.4062 -60
    endloop
  endfacet
  facet normal 0 0 -1
    outer loop
      vertex 43.8153 24.0877 -60
      vertex 60 60 -60
      vertex 45.2414 21.289 -60
    endloop
  endfacet
  facet normal 0 0 -1
    outer loop
      vertex 42.2164 26.7913 -60
      vertex 60 60 -60
      vertex 43.8153 24.0877 -60
    endloop
  endfacet
  facet normal 0 0 -1
    outer loop
      vertex 40.4509 29.3893 -60
      vertex 60 60 -60
      vertex 42.2164 26.7913 -60
    endloop
  endfacet
  facet normal 0 0 -1
    outer loop
      vertex 38.5257 31.8712 -60
      vertex 60 60 -60
      vertex 40.4509 29.3893 -60
    endloop
  endfacet
  facet normal 0 0 -1
    outer loop
      vertex 36.4484 34.2274 -60
      vertex 60 60 -60
      vertex 38.5257 31.8712 -60
    endloop
  endfacet
  facet normal 0 0 -1
    outer loop
      vertex 34.2274 36.4484 -60
      vertex 60 60 -60
      vertex 36.4484 34.2274 -60
    endloop
  endfacet
  facet normal 0 0 -1
    outer loop
      vertex 31.8712 38.5257 -60
      vertex 60 60 -60
      vertex 34.2274 36.4484 -60
    endloop
  endfacet
  facet normal 0 0 -1
    outer loop
      vertex 29.3893 40.4509 -60
      vertex 60 60 -60
      vertex 31.8712 38.5257 -60
    endloop
  endfacet
  facet normal 0 0 -1
    outer loop
      vertex 26.7913 42.2164 -60
      vertex 60 60 -60
      vertex 29.3893 40.4509 -60
    endloop
  endfacet
  facet normal 0 0 -1
    outer loop
      vertex 24.0877 43.8153 -60
      vertex 60 60 -60
      vertex 26.7913 42.2164 -60
    endloop
  endfacet
  facet normal 0 0 -1
    outer loop
      vertex 21.289 45.2414 -60
      vertex 60 60 -60
      vertex 24.0877 43.8153 -60
    endloop
  endfacet
  facet normal 0 0 -1
    outer loop
      vertex 18.4062 46.4888 -60
      vertex 60 60 -60
      vertex 21.289 45.2414 -60
    endloop
  endfacet
  facet normal 0 0 -1
    outer loop
      vertex 15.4508 47.5528 -60
      vertex 60 60 -60
      vertex 18.4062 46.4888 -60
    endloop
  endfacet
  facet normal 0 0 -1
    outer loop
      vertex 12.4345 48.4292 -60
      vertex 60 60 -60
      vertex 15.4508 47.5528 -60
    endloop
  endfacet
  facet normal 0 0 -1
    outer loop
      vertex 9.36907 49.1144 -60
      vertex 60 60 -60
      vertex 12.4345 48.4292 -60
    endloop
  endfacet
  facet normal 0 0 -1
    outer loop
      vertex 6.26666 49.6057 -60
      vertex 60 60 -60
      vertex 9.36907 49.1144 -60
    endloop
  endfacet
  facet normal 0 0 -1
    outer loop
      vertex 3.13953 49.9013 -60
      vertex 60 60 -60
      vertex 6.26666 49.6057 -60
    endloop
  endfacet
  facet normal 0 0 -1
    outer loop
      vertex 0 50 -60
      vertex 60 60 -60
      vertex 3.13953 49.9013 -60
    endloop
  endfacet
  facet normal 0 0 -1
    outer loop
      vertex -60 60 -60
      vertex 0 50 -60
      vertex -3.13953 49.9013 -60
    endloop
  endfacet
  facet normal 0 0 -1
    outer loop
      vertex -60 60 -60
      vertex -3.13953 49.9013 -60
      vertex -6.26666 49.6057 -60
    endloop
  endfacet
  facet normal 0 0 -1
    outer loop
      vertex -60 60 -60
      vertex -50 0 -60
      vertex -60 -60 -60
    endloop
  endfacet
  facet normal 0 0 -1
    outer loop
      vertex -50 0 -60
      vertex -60 60 -60
      vertex -49.9013 3.13953 -60
    endloop
  endfacet
  facet normal 0 0 -1
    outer loop
      vertex 0 50 -60
      vertex -60 60 -60
      vertex 60 60 -60
    endloop
  endfacet
  facet normal 0 0 -1
    outer loop
      vertex -9.36907 49.1144 -60
      vertex -60 60 -60
      vertex -6.26666 49.6057 -60
    endloop
  endfacet
  facet normal 0 0 -1
    outer loop
      vertex -12.4345 48.4292 -60
      vertex -60 60 -60
      vertex -9.36907 49.1144 -60
    endloop
  endfacet
  facet normal 0 0 -1
    outer loop
      vertex -15.4508 47.5528 -60
      vertex -60 60 -60
      vertex -12.4345 48.4292 -60
    endloop
  endfacet
  facet normal 0 0 -1
    outer loop
      vertex -18.4062 46.4888 -60
      vertex -60 60 -60
      vertex -15.4508 47.5528 -60
    endloop
  endfacet
  facet normal 0 0 -1
    outer loop
      vertex -21.289 45.2414 -60
      vertex -60 60 -60
      vertex -18.4062 46.4888 -60
    endloop
  endfacet
  facet normal 0 0 -1
    outer loop
      vertex -24.0877 43.8153 -60
      vertex -60 60 -60
      vertex -21.289 45.2414 -60
    endloop
  endfacet
  facet normal 0 0 -1
    outer loop
      vertex -26.7913 42.2164 -60
      vertex -60 60 -60
      vertex -24.0877 43.8153 -60
    endloop
  endfacet
  facet normal 0 0 -1
    outer loop
      vertex -29.3893 40.4509 -60
      vertex -60 60 -60
      vertex -26.7913 42.2164 -60
    endloop
  endfacet
  facet normal 0 0 -1
    outer loop
      vertex -31.8712 38.5257 -60
      vertex -60 60 -60
      vertex -29.3893 40.4509 -60
    endloop
  endfacet
  facet normal 0 0 -1
    outer loop
      vertex -34.2274 36.4484 -60
      vertex -60 60 -60
      vertex -31.8712 38.5257 -60
    endloop
  endfacet
  facet normal 0 0 -1
    outer loop
      vertex -36.4484 34.2274 -60
      vertex -60 60 -60
      vertex -34.2274 36.4484 -60
    endloop
  endfacet
  facet normal 0 0 -1
    outer loop
      vertex -38.5257 31.8712 -60
      vertex -60 60 -60
      vertex -36.4484 34.2274 -60
    endloop
  endfacet
  facet normal 0 0 -1
    outer loop
      vertex -40.4509 29.3893 -60
      vertex -60 60 -60
      vertex -38.5257 31.8712 -60
    endloop
  endfacet
  facet normal 0 0 -1
    outer loop
      vertex -42.2164 26.7913 -60
      vertex -60 60 -60
      vertex -40.4509 29.3893 -60
    endloop
  endfacet
  facet normal 0 0 -1
    outer loop
      vertex -43.8153 24.0877 -60
      vertex -60 60 -60
      vertex -42.2164 26.7913 -60
    endloop
  endfacet
  facet normal 0 0 -1
    outer loop
      vertex -45.2414 21.289 -60
      vertex -60 60 -60
      vertex -43.8153 24.0877 -60
    endloop
  endfacet
  facet normal 0 0 -1
    outer loop
      vertex -46.4888 18.4062 -60
      vertex -60 60 -60
      vertex -45.2414 21.289 -60
    endloop
  endfacet
  facet normal 0 0 -1
    outer loop
      vertex -47.5528 15.4508 -60
      vertex -60 60 -60
      vertex -46.4888 18.4062 -60
    endloop
  endfacet
  facet normal 0 0 -1
    outer loop
      vertex -48.4292 12.4345 -60
      vertex -60 60 -60
      vertex -47.5528 15.4508 -60
    endloop
  endfacet
  facet normal 0 0 -1
    outer loop
      vertex -49.1144 9.36907 -60
      vertex -60 60 -60
      vertex -48.4292 12.4345 -60
    endloop
  endfacet
  facet normal 0 0 -1
    outer loop
      vertex -49.6057 6.26666 -60
      vertex -60 60 -60
      vertex -49.1144 9.36907 -60
    endloop
  endfacet
  facet normal 0 0 -1
    outer loop
      vertex -49.9013 3.13953 -60
      vertex -60 60 -60
      vertex -49.6057 6.26666 -60
    endloop
  endfacet
  facet normal 0 -1 0
    outer loop
      vertex -60 -60 -60
      vertex 60 -60 60
      vertex -60 -60 60
    endloop
  endfacet
  facet normal 0 -1 -0
    outer loop
      vertex 60 -60 60
      vertex -60 -60 -60
      vertex 60 -60 -60
    endloop
  endfacet
  facet normal 0 1 -0
    outer loop
      vertex 60 60 -60
      vertex -60 60 60
      vertex 60 60 60
    endloop
  endfacet
  facet normal 0 1 0
    outer loop
      vertex -60 60 60
      vertex 60 60 -60
      vertex -60 60 -60
    endloop
  endfacet
  facet normal -0.999507 -0.0314107 0
    outer loop
      vertex 50 0 -60
      vertex 49.9013 3.13953 60
      vertex 49.9013 3.13953 -60
    endloop
  endfacet
  facet normal -0.999507 -0.0314107 0
    outer loop
      vertex 49.9013 3.13953 60
      vertex 50 0 -60
      vertex 50 0 60
    endloop
  endfacet
  facet normal 0.999507 -0.0314107 0
    outer loop
      vertex -50 0 60
      vertex -49.9013 3.13953 -60
      vertex -49.9013 3.13953 60
    endloop
  endfacet
  facet normal 0.999507 -0.0314107 0
    outer loop
      vertex -49.9013 3.13953 -60
      vertex -50 0 60
      vertex -50 0 -60
    endloop
  endfacet
  facet normal -0.0314107 -0.999507 0
    outer loop
      vertex 0 50 -60
      vertex 3.13953 49.9013 60
      vertex 0 50 60
    endloop
  endfacet
  facet normal -0.0314107 -0.999507 -0
    outer loop
      vertex 3.13953 49.9013 60
      vertex 0 50 -60
      vertex 3.13953 49.9013 -60
    endloop
  endfacet
  facet normal 0.0314107 0.999507 -0
    outer loop
      vertex 0 -50 -60
      vertex -3.13953 -49.9013 60
      vertex 0 -50 60
    endloop
  endfacet
  facet normal 0.0314107 0.999507 0
    outer loop
      vertex -3.13953 -49.9013 60
      vertex 0 -50 -60
      vertex -3.13953 -49.9013 -60
    endloop
  endfacet
  facet normal -0.707107 -0.707107 0
    outer loop
      vertex 36.4484 34.2274 -60
      vertex 34.2274 36.4484 60
      vertex 34.2274 36.4484 -60
    endloop
  endfacet
  facet normal -0.707107 -0.707107 0
    outer loop
      vertex 34.2274 36.4484 60
      vertex 36.4484 34.2274 -60
      vertex 36.4484 34.2274 60
    endloop
  endfacet
  facet normal 0.661311 -0.750112 0
    outer loop
      vertex -34.2274 36.4484 -60
      vertex -31.8712 38.5257 60
      vertex -34.2274 36.4484 60
    endloop
  endfacet
  facet normal 0.661311 -0.750112 0
    outer loop
      vertex -31.8712 38.5257 60
      vertex -34.2274 36.4484 -60
      vertex -31.8712 38.5257 -60
    endloop
  endfacet
  facet normal 0.338738 -0.940881 0
    outer loop
      vertex -18.4062 46.4888 -60
      vertex -15.4508 47.5528 60
      vertex -18.4062 46.4888 60
    endloop
  endfacet
  facet normal 0.338738 -0.940881 0
    outer loop
      vertex -15.4508 47.5528 60
      vertex -18.4062 46.4888 -60
      vertex -15.4508 47.5528 -60
    endloop
  endfacet
  facet normal -0.917755 -0.397148 0
    outer loop
      vertex 46.4888 18.4062 -60
      vertex 45.2414 21.289 60
      vertex 45.2414 21.289 -60
    endloop
  endfacet
  facet normal -0.917755 -0.397148 0
    outer loop
      vertex 45.2414 21.289 60
      vertex 46.4888 18.4062 -60
      vertex 46.4888 18.4062 60
    endloop
  endfacet
  facet normal -0.397148 -0.917755 0
    outer loop
      vertex 18.4062 46.4888 -60
      vertex 21.289 45.2414 60
      vertex 18.4062 46.4888 60
    endloop
  endfacet
  facet normal -0.397148 -0.917755 -0
    outer loop
      vertex 21.289 45.2414 60
      vertex 18.4062 46.4888 -60
      vertex 21.289 45.2414 -60
    endloop
  endfacet
  facet normal -0.562083 -0.827081 0
    outer loop
      vertex 26.7913 42.2164 -60
      vertex 29.3893 40.4509 60
      vertex 26.7913 42.2164 60
    endloop
  endfacet
  facet normal -0.562083 -0.827081 -0
    outer loop
      vertex 29.3893 40.4509 60
      vertex 26.7913 42.2164 -60
      vertex 29.3893 40.4509 -60
    endloop
  endfacet
  facet normal 0.917755 -0.397148 0
    outer loop
      vertex -46.4888 18.4062 60
      vertex -45.2414 21.289 -60
      vertex -45.2414 21.289 60
    endloop
  endfacet
  facet normal 0.917755 -0.397148 0
    outer loop
      vertex -45.2414 21.289 -60
      vertex -46.4888 18.4062 60
      vertex -46.4888 18.4062 -60
    endloop
  endfacet
  facet normal 0.156435 -0.987688 0
    outer loop
      vertex -9.36907 49.1144 -60
      vertex -6.26666 49.6057 60
      vertex -9.36907 49.1144 60
    endloop
  endfacet
  facet normal 0.156435 -0.987688 0
    outer loop
      vertex -6.26666 49.6057 60
      vertex -9.36907 49.1144 -60
      vertex -6.26666 49.6057 -60
    endloop
  endfacet
  facet normal -0.975917 -0.218143 0
    outer loop
      vertex 49.1144 9.36907 -60
      vertex 48.4292 12.4345 60
      vertex 48.4292 12.4345 -60
    endloop
  endfacet
  facet normal -0.975917 -0.218143 0
    outer loop
      vertex 48.4292 12.4345 60
      vertex 49.1144 9.36907 -60
      vertex 49.1144 9.36907 60
    endloop
  endfacet
  facet normal -0.995562 -0.0941082 0
    outer loop
      vertex 49.9013 3.13953 -60
      vertex 49.6057 6.26666 60
      vertex 49.6057 6.26666 -60
    endloop
  endfacet
  facet normal -0.995562 -0.0941082 0
    outer loop
      vertex 49.6057 6.26666 60
      vertex 49.9013 3.13953 -60
      vertex 49.9013 3.13953 60
    endloop
  endfacet
  facet normal -0.827081 -0.562083 0
    outer loop
      vertex 42.2164 26.7913 -60
      vertex 40.4509 29.3893 60
      vertex 40.4509 29.3893 -60
    endloop
  endfacet
  facet normal -0.827081 -0.562083 0
    outer loop
      vertex 40.4509 29.3893 60
      vertex 42.2164 26.7913 -60
      vertex 42.2164 26.7913 60
    endloop
  endfacet
  facet normal -0.891007 -0.45399 0
    outer loop
      vertex 45.2414 21.289 -60
      vertex 43.8153 24.0877 60
      vertex 43.8153 24.0877 -60
    endloop
  endfacet
  facet normal -0.891007 -0.45399 0
    outer loop
      vertex 43.8153 24.0877 60
      vertex 45.2414 21.289 -60
      vertex 45.2414 21.289 60
    endloop
  endfacet
  facet normal -0.218143 -0.975917 0
    outer loop
      vertex 9.36907 49.1144 -60
      vertex 12.4345 48.4292 60
      vertex 9.36907 49.1144 60
    endloop
  endfacet
  facet normal -0.218143 -0.975917 -0
    outer loop
      vertex 12.4345 48.4292 60
      vertex 9.36907 49.1144 -60
      vertex 12.4345 48.4292 -60
    endloop
  endfacet
  facet normal -0.156435 -0.987688 0
    outer loop
      vertex 6.26666 49.6057 -60
      vertex 9.36907 49.1144 60
      vertex 6.26666 49.6057 60
    endloop
  endfacet
  facet normal -0.156435 -0.987688 -0
    outer loop
      vertex 9.36907 49.1144 60
      vertex 6.26666 49.6057 -60
      vertex 9.36907 49.1144 -60
    endloop
  endfacet
  facet normal -0.509042 -0.860742 0
    outer loop
      vertex 24.0877 43.8153 -60
      vertex 26.7913 42.2164 60
      vertex 24.0877 43.8153 60
    endloop
  endfacet
  facet normal -0.509042 -0.860742 -0
    outer loop
      vertex 26.7913 42.2164 60
      vertex 24.0877 43.8153 -60
      vertex 26.7913 42.2164 -60
    endloop
  endfacet
  facet normal -0.612908 -0.790154 0
    outer loop
      vertex 29.3893 40.4509 -60
      vertex 31.8712 38.5257 60
      vertex 29.3893 40.4509 60
    endloop
  endfacet
  facet normal -0.612908 -0.790154 -0
    outer loop
      vertex 31.8712 38.5257 60
      vertex 29.3893 40.4509 -60
      vertex 31.8712 38.5257 -60
    endloop
  endfacet
  facet normal 0.975917 -0.218143 0
    outer loop
      vertex -49.1144 9.36907 60
      vertex -48.4292 12.4345 -60
      vertex -48.4292 12.4345 60
    endloop
  endfacet
  facet normal 0.975917 -0.218143 0
    outer loop
      vertex -48.4292 12.4345 -60
      vertex -49.1144 9.36907 60
      vertex -49.1144 9.36907 -60
    endloop
  endfacet
  facet normal 0.790154 -0.612908 0
    outer loop
      vertex -40.4509 29.3893 60
      vertex -38.5257 31.8712 -60
      vertex -38.5257 31.8712 60
    endloop
  endfacet
  facet normal 0.790154 -0.612908 0
    outer loop
      vertex -38.5257 31.8712 -60
      vertex -40.4509 29.3893 60
      vertex -40.4509 29.3893 -60
    endloop
  endfacet
  facet normal 0.707107 -0.707107 0
    outer loop
      vertex -36.4484 34.2274 60
      vertex -34.2274 36.4484 -60
      vertex -34.2274 36.4484 60
    endloop
  endfacet
  facet normal 0.707107 -0.707107 0
    outer loop
      vertex -34.2274 36.4484 -60
      vertex -36.4484 34.2274 60
      vertex -36.4484 34.2274 -60
    endloop
  endfacet
  facet normal 0.987688 -0.156435 0
    outer loop
      vertex -49.6057 6.26666 60
      vertex -49.1144 9.36907 -60
      vertex -49.1144 9.36907 60
    endloop
  endfacet
  facet normal 0.987688 -0.156435 0
    outer loop
      vertex -49.1144 9.36907 -60
      vertex -49.6057 6.26666 60
      vertex -49.6057 6.26666 -60
    endloop
  endfacet
  facet normal 0.509042 -0.860742 0
    outer loop
      vertex -26.7913 42.2164 -60
      vertex -24.0877 43.8153 60
      vertex -26.7913 42.2164 60
    endloop
  endfacet
  facet normal 0.509042 -0.860742 0
    outer loop
      vertex -24.0877 43.8153 60
      vertex -26.7913 42.2164 -60
      vertex -24.0877 43.8153 -60
    endloop
  endfacet
  facet normal 0.562083 -0.827081 0
    outer loop
      vertex -29.3893 40.4509 -60
      vertex -26.7913 42.2164 60
      vertex -29.3893 40.4509 60
    endloop
  endfacet
  facet normal 0.562083 -0.827081 0
    outer loop
      vertex -26.7913 42.2164 60
      vertex -29.3893 40.4509 -60
      vertex -26.7913 42.2164 -60
    endloop
  endfacet
  facet normal 0.218143 -0.975917 0
    outer loop
      vertex -12.4345 48.4292 -60
      vertex -9.36907 49.1144 60
      vertex -12.4345 48.4292 60
    endloop
  endfacet
  facet normal 0.218143 -0.975917 0
    outer loop
      vertex -9.36907 49.1144 60
      vertex -12.4345 48.4292 -60
      vertex -9.36907 49.1144 -60
    endloop
  endfacet
  facet normal 0.0941082 -0.995562 0
    outer loop
      vertex -6.26666 49.6057 -60
      vertex -3.13953 49.9013 60
      vertex -6.26666 49.6057 60
    endloop
  endfacet
  facet normal 0.0941082 -0.995562 0
    outer loop
      vertex -3.13953 49.9013 60
      vertex -6.26666 49.6057 -60
      vertex -3.13953 49.9013 -60
    endloop
  endfacet
  facet normal -0.218143 0.975917 0
    outer loop
      vertex 12.4345 -48.4292 -60
      vertex 9.36907 -49.1144 60
      vertex 12.4345 -48.4292 60
    endloop
  endfacet
  facet normal -0.218143 0.975917 0
    outer loop
      vertex 9.36907 -49.1144 60
      vertex 12.4345 -48.4292 -60
      vertex 9.36907 -49.1144 -60
    endloop
  endfacet
  facet normal -0.860742 0.509042 0
    outer loop
      vertex 42.2164 -26.7913 -60
      vertex 43.8153 -24.0877 60
      vertex 43.8153 -24.0877 -60
    endloop
  endfacet
  facet normal -0.860742 0.509042 0
    outer loop
      vertex 43.8153 -24.0877 60
      vertex 42.2164 -26.7913 -60
      vertex 42.2164 -26.7913 60
    endloop
  endfacet
  facet normal -0.995562 0.0941082 0
    outer loop
      vertex 49.6057 -6.26666 -60
      vertex 49.9013 -3.13953 60
      vertex 49.9013 -3.13953 -60
    endloop
  endfacet
  facet normal -0.995562 0.0941082 0
    outer loop
      vertex 49.9013 -3.13953 60
      vertex 49.6057 -6.26666 -60
      vertex 49.6057 -6.26666 60
    endloop
  endfacet
  facet normal 0.661311 0.750112 -0
    outer loop
      vertex -31.8712 -38.5257 -60
      vertex -34.2274 -36.4484 60
      vertex -31.8712 -38.5257 60
    endloop
  endfacet
  facet normal 0.661311 0.750112 0
    outer loop
      vertex -34.2274 -36.4484 60
      vertex -31.8712 -38.5257 -60
      vertex -34.2274 -36.4484 -60
    endloop
  endfacet
  facet normal 0.707107 0.707107 0
    outer loop
      vertex -34.2274 -36.4484 60
      vertex -36.4484 -34.2274 -60
      vertex -36.4484 -34.2274 60
    endloop
  endfacet
  facet normal 0.707107 0.707107 0
    outer loop
      vertex -36.4484 -34.2274 -60
      vertex -34.2274 -36.4484 60
      vertex -34.2274 -36.4484 -60
    endloop
  endfacet
  facet normal 0.397148 0.917755 -0
    outer loop
      vertex -18.4062 -46.4888 -60
      vertex -21.289 -45.2414 60
      vertex -18.4062 -46.4888 60
    endloop
  endfacet
  facet normal 0.397148 0.917755 0
    outer loop
      vertex -21.289 -45.2414 60
      vertex -18.4062 -46.4888 -60
      vertex -21.289 -45.2414 -60
    endloop
  endfacet
  facet normal 0.509042 0.860742 -0
    outer loop
      vertex -24.0877 -43.8153 -60
      vertex -26.7913 -42.2164 60
      vertex -24.0877 -43.8153 60
    endloop
  endfacet
  facet normal 0.509042 0.860742 0
    outer loop
      vertex -26.7913 -42.2164 60
      vertex -24.0877 -43.8153 -60
      vertex -26.7913 -42.2164 -60
    endloop
  endfacet
  facet normal 0.156435 0.987688 -0
    outer loop
      vertex -6.26666 -49.6057 -60
      vertex -9.36907 -49.1144 60
      vertex -6.26666 -49.6057 60
    endloop
  endfacet
  facet normal 0.156435 0.987688 0
    outer loop
      vertex -9.36907 -49.1144 60
      vertex -6.26666 -49.6057 -60
      vertex -9.36907 -49.1144 -60
    endloop
  endfacet
  facet normal 0.827081 0.562083 0
    outer loop
      vertex -40.4509 -29.3893 60
      vertex -42.2164 -26.7913 -60
      vertex -42.2164 -26.7913 60
    endloop
  endfacet
  facet normal 0.827081 0.562083 0
    outer loop
      vertex -42.2164 -26.7913 -60
      vertex -40.4509 -29.3893 60
      vertex -40.4509 -29.3893 -60
    endloop
  endfacet
  facet normal 0.975917 0.218143 0
    outer loop
      vertex -48.4292 -12.4345 60
      vertex -49.1144 -9.36907 -60
      vertex -49.1144 -9.36907 60
    endloop
  endfacet
  facet normal 0.975917 0.218143 0
    outer loop
      vertex -49.1144 -9.36907 -60
      vertex -48.4292 -12.4345 60
      vertex -48.4292 -12.4345 -60
    endloop
  endfacet
  facet normal 0.940881 0.338738 0
    outer loop
      vertex -46.4888 -18.4062 60
      vertex -47.5528 -15.4508 -60
      vertex -47.5528 -15.4508 60
    endloop
  endfacet
  facet normal 0.940881 0.338738 0
    outer loop
      vertex -47.5528 -15.4508 -60
      vertex -46.4888 -18.4062 60
      vertex -46.4888 -18.4062 -60
    endloop
  endfacet
  facet normal -0.987688 -0.156435 0
    outer loop
      vertex 49.6057 6.26666 -60
      vertex 49.1144 9.36907 60
      vertex 49.1144 9.36907 -60
    endloop
  endfacet
  facet normal -0.987688 -0.156435 0
    outer loop
      vertex 49.1144 9.36907 60
      vertex 49.6057 6.26666 -60
      vertex 49.6057 6.26666 60
    endloop
  endfacet
  facet normal -0.940881 -0.338738 0
    outer loop
      vertex 47.5528 15.4508 -60
      vertex 46.4888 18.4062 60
      vertex 46.4888 18.4062 -60
    endloop
  endfacet
  facet normal -0.940881 -0.338738 0
    outer loop
      vertex 46.4888 18.4062 60
      vertex 47.5528 15.4508 -60
      vertex 47.5528 15.4508 60
    endloop
  endfacet
  facet normal -0.960294 -0.278991 0
    outer loop
      vertex 48.4292 12.4345 -60
      vertex 47.5528 15.4508 60
      vertex 47.5528 15.4508 -60
    endloop
  endfacet
  facet normal -0.960294 -0.278991 0
    outer loop
      vertex 47.5528 15.4508 60
      vertex 48.4292 12.4345 -60
      vertex 48.4292 12.4345 60
    endloop
  endfacet
  facet normal -0.750112 -0.661311 0
    outer loop
      vertex 38.5257 31.8712 -60
      vertex 36.4484 34.2274 60
      vertex 36.4484 34.2274 -60
    endloop
  endfacet
  facet normal -0.750112 -0.661311 0
    outer loop
      vertex 36.4484 34.2274 60
      vertex 38.5257 31.8712 -60
      vertex 38.5257 31.8712 60
    endloop
  endfacet
  facet normal -0.278991 -0.960294 0
    outer loop
      vertex 12.4345 48.4292 -60
      vertex 15.4508 47.5528 60
      vertex 12.4345 48.4292 60
    endloop
  endfacet
  facet normal -0.278991 -0.960294 -0
    outer loop
      vertex 15.4508 47.5528 60
      vertex 12.4345 48.4292 -60
      vertex 15.4508 47.5528 -60
    endloop
  endfacet
  facet normal -0.338738 -0.940881 0
    outer loop
      vertex 15.4508 47.5528 -60
      vertex 18.4062 46.4888 60
      vertex 15.4508 47.5528 60
    endloop
  endfacet
  facet normal -0.338738 -0.940881 -0
    outer loop
      vertex 18.4062 46.4888 60
      vertex 15.4508 47.5528 -60
      vertex 18.4062 46.4888 -60
    endloop
  endfacet
  facet normal -0.0941082 -0.995562 0
    outer loop
      vertex 3.13953 49.9013 -60
      vertex 6.26666 49.6057 60
      vertex 3.13953 49.9013 60
    endloop
  endfacet
  facet normal -0.0941082 -0.995562 -0
    outer loop
      vertex 6.26666 49.6057 60
      vertex 3.13953 49.9013 -60
      vertex 6.26666 49.6057 -60
    endloop
  endfacet
  facet normal -0.45399 -0.891007 0
    outer loop
      vertex 21.289 45.2414 -60
      vertex 24.0877 43.8153 60
      vertex 21.289 45.2414 60
    endloop
  endfacet
  facet normal -0.45399 -0.891007 -0
    outer loop
      vertex 24.0877 43.8153 60
      vertex 21.289 45.2414 -60
      vertex 24.0877 43.8153 -60
    endloop
  endfacet
  facet normal -0.661311 -0.750112 0
    outer loop
      vertex 31.8712 38.5257 -60
      vertex 34.2274 36.4484 60
      vertex 31.8712 38.5257 60
    endloop
  endfacet
  facet normal -0.661311 -0.750112 -0
    outer loop
      vertex 34.2274 36.4484 60
      vertex 31.8712 38.5257 -60
      vertex 34.2274 36.4484 -60
    endloop
  endfacet
  facet normal 0.750112 -0.661311 0
    outer loop
      vertex -38.5257 31.8712 60
      vertex -36.4484 34.2274 -60
      vertex -36.4484 34.2274 60
    endloop
  endfacet
  facet normal 0.750112 -0.661311 0
    outer loop
      vertex -36.4484 34.2274 -60
      vertex -38.5257 31.8712 60
      vertex -38.5257 31.8712 -60
    endloop
  endfacet
  facet normal 0.860742 -0.509042 0
    outer loop
      vertex -43.8153 24.0877 60
      vertex -42.2164 26.7913 -60
      vertex -42.2164 26.7913 60
    endloop
  endfacet
  facet normal 0.860742 -0.509042 0
    outer loop
      vertex -42.2164 26.7913 -60
      vertex -43.8153 24.0877 60
      vertex -43.8153 24.0877 -60
    endloop
  endfacet
  facet normal 0.891007 -0.45399 0
    outer loop
      vertex -45.2414 21.289 60
      vertex -43.8153 24.0877 -60
      vertex -43.8153 24.0877 60
    endloop
  endfacet
  facet normal 0.891007 -0.45399 0
    outer loop
      vertex -43.8153 24.0877 -60
      vertex -45.2414 21.289 60
      vertex -45.2414 21.289 -60
    endloop
  endfacet
  facet normal 0.827081 -0.562083 0
    outer loop
      vertex -42.2164 26.7913 60
      vertex -40.4509 29.3893 -60
      vertex -40.4509 29.3893 60
    endloop
  endfacet
  facet normal 0.827081 -0.562083 0
    outer loop
      vertex -40.4509 29.3893 -60
      vertex -42.2164 26.7913 60
      vertex -42.2164 26.7913 -60
    endloop
  endfacet
  facet normal 0.960294 -0.278991 0
    outer loop
      vertex -48.4292 12.4345 60
      vertex -47.5528 15.4508 -60
      vertex -47.5528 15.4508 60
    endloop
  endfacet
  facet normal 0.960294 -0.278991 0
    outer loop
      vertex -47.5528 15.4508 -60
      vertex -48.4292 12.4345 60
      vertex -48.4292 12.4345 -60
    endloop
  endfacet
  facet normal 0.940881 -0.338738 0
    outer loop
      vertex -47.5528 15.4508 60
      vertex -46.4888 18.4062 -60
      vertex -46.4888 18.4062 60
    endloop
  endfacet
  facet normal 0.940881 -0.338738 0
    outer loop
      vertex -46.4888 18.4062 -60
      vertex -47.5528 15.4508 60
      vertex -47.5528 15.4508 -60
    endloop
  endfacet
  facet normal 0.995562 -0.0941082 0
    outer loop
      vertex -49.9013 3.13953 60
      vertex -49.6057 6.26666 -60
      vertex -49.6057 6.26666 60
    endloop
  endfacet
  facet normal 0.995562 -0.0941082 0
    outer loop
      vertex -49.6057 6.26666 -60
      vertex -49.9013 3.13953 60
      vertex -49.9013 3.13953 -60
    endloop
  endfacet
  facet normal 0.45399 -0.891007 0
    outer loop
      vertex -24.0877 43.8153 -60
      vertex -21.289 45.2414 60
      vertex -24.0877 43.8153 60
    endloop
  endfacet
  facet normal 0.45399 -0.891007 0
    outer loop
      vertex -21.289 45.2414 60
      vertex -24.0877 43.8153 -60
      vertex -21.289 45.2414 -60
    endloop
  endfacet
  facet normal 0.397148 -0.917755 0
    outer loop
      vertex -21.289 45.2414 -60
      vertex -18.4062 46.4888 60
      vertex -21.289 45.2414 60
    endloop
  endfacet
  facet normal 0.397148 -0.917755 0
    outer loop
      vertex -18.4062 46.4888 60
      vertex -21.289 45.2414 -60
      vertex -18.4062 46.4888 -60
    endloop
  endfacet
  facet normal 0.612908 -0.790154 0
    outer loop
      vertex -31.8712 38.5257 -60
      vertex -29.3893 40.4509 60
      vertex -31.8712 38.5257 60
    endloop
  endfacet
  facet normal 0.612908 -0.790154 0
    outer loop
      vertex -29.3893 40.4509 60
      vertex -31.8712 38.5257 -60
      vertex -29.3893 40.4509 -60
    endloop
  endfacet
  facet normal 0.278991 -0.960294 0
    outer loop
      vertex -15.4508 47.5528 -60
      vertex -12.4345 48.4292 60
      vertex -15.4508 47.5528 60
    endloop
  endfacet
  facet normal 0.278991 -0.960294 0
    outer loop
      vertex -12.4345 48.4292 60
      vertex -15.4508 47.5528 -60
      vertex -12.4345 48.4292 -60
    endloop
  endfacet
  facet normal 0.0314107 -0.999507 0
    outer loop
      vertex -3.13953 49.9013 -60
      vertex 0 50 60
      vertex -3.13953 49.9013 60
    endloop
  endfacet
  facet normal 0.0314107 -0.999507 0
    outer loop
      vertex 0 50 60
      vertex -3.13953 49.9013 -60
      vertex 0 50 -60
    endloop
  endfacet
  facet normal -0.999507 0.0314107 0
    outer loop
      vertex 49.9013 -3.13953 -60
      vertex 50 0 60
      vertex 50 0 -60
    endloop
  endfacet
  facet normal -0.999507 0.0314107 0
    outer loop
      vertex 50 0 60
      vertex 49.9013 -3.13953 -60
      vertex 49.9013 -3.13953 60
    endloop
  endfacet
  facet normal -0.0314107 0.999507 0
    outer loop
      vertex 3.13953 -49.9013 -60
      vertex 0 -50 60
      vertex 3.13953 -49.9013 60
    endloop
  endfacet
  facet normal -0.0314107 0.999507 0
    outer loop
      vertex 0 -50 60
      vertex 3.13953 -49.9013 -60
      vertex 0 -50 -60
    endloop
  endfacet
  facet normal -0.156435 0.987688 0
    outer loop
      vertex 9.36907 -49.1144 -60
      vertex 6.26666 -49.6057 60
      vertex 9.36907 -49.1144 60
    endloop
  endfacet
  facet normal -0.156435 0.987688 0
    outer loop
      vertex 6.26666 -49.6057 60
      vertex 9.36907 -49.1144 -60
      vertex 6.26666 -49.6057 -60
    endloop
  endfacet
  facet normal -0.278991 0.960294 0
    outer loop
      vertex 15.4508 -47.5528 -60
      vertex 12.4345 -48.4292 60
      vertex 15.4508 -47.5528 60
    endloop
  endfacet
  facet normal -0.278991 0.960294 0
    outer loop
      vertex 12.4345 -48.4292 60
      vertex 15.4508 -47.5528 -60
      vertex 12.4345 -48.4292 -60
    endloop
  endfacet
  facet normal -0.661311 0.750112 0
    outer loop
      vertex 34.2274 -36.4484 -60
      vertex 31.8712 -38.5257 60
      vertex 34.2274 -36.4484 60
    endloop
  endfacet
  facet normal -0.661311 0.750112 0
    outer loop
      vertex 31.8712 -38.5257 60
      vertex 34.2274 -36.4484 -60
      vertex 31.8712 -38.5257 -60
    endloop
  endfacet
  facet normal -0.612908 0.790154 0
    outer loop
      vertex 31.8712 -38.5257 -60
      vertex 29.3893 -40.4509 60
      vertex 31.8712 -38.5257 60
    endloop
  endfacet
  facet normal -0.612908 0.790154 0
    outer loop
      vertex 29.3893 -40.4509 60
      vertex 31.8712 -38.5257 -60
      vertex 29.3893 -40.4509 -60
    endloop
  endfacet
  facet normal -0.707107 0.707107 0
    outer loop
      vertex 34.2274 -36.4484 -60
      vertex 36.4484 -34.2274 60
      vertex 36.4484 -34.2274 -60
    endloop
  endfacet
  facet normal -0.707107 0.707107 0
    outer loop
      vertex 36.4484 -34.2274 60
      vertex 34.2274 -36.4484 -60
      vertex 34.2274 -36.4484 60
    endloop
  endfacet
  facet normal -0.509042 0.860742 0
    outer loop
      vertex 26.7913 -42.2164 -60
      vertex 24.0877 -43.8153 60
      vertex 26.7913 -42.2164 60
    endloop
  endfacet
  facet normal -0.509042 0.860742 0
    outer loop
      vertex 24.0877 -43.8153 60
      vertex 26.7913 -42.2164 -60
      vertex 24.0877 -43.8153 -60
    endloop
  endfacet
  facet normal -0.562083 0.827081 0
    outer loop
      vertex 29.3893 -40.4509 -60
      vertex 26.7913 -42.2164 60
      vertex 29.3893 -40.4509 60
    endloop
  endfacet
  facet normal -0.562083 0.827081 0
    outer loop
      vertex 26.7913 -42.2164 60
      vertex 29.3893 -40.4509 -60
      vertex 26.7913 -42.2164 -60
    endloop
  endfacet
  facet normal -0.397148 0.917755 0
    outer loop
      vertex 21.289 -45.2414 -60
      vertex 18.4062 -46.4888 60
      vertex 21.289 -45.2414 60
    endloop
  endfacet
  facet normal -0.397148 0.917755 0
    outer loop
      vertex 18.4062 -46.4888 60
      vertex 21.289 -45.2414 -60
      vertex 18.4062 -46.4888 -60
    endloop
  endfacet
  facet normal -0.750112 0.661311 0
    outer loop
      vertex 36.4484 -34.2274 -60
      vertex 38.5257 -31.8712 60
      vertex 38.5257 -31.8712 -60
    endloop
  endfacet
  facet normal -0.750112 0.661311 0
    outer loop
      vertex 38.5257 -31.8712 60
      vertex 36.4484 -34.2274 -60
      vertex 36.4484 -34.2274 60
    endloop
  endfacet
  facet normal -0.827081 0.562083 0
    outer loop
      vertex 40.4509 -29.3893 -60
      vertex 42.2164 -26.7913 60
      vertex 42.2164 -26.7913 -60
    endloop
  endfacet
  facet normal -0.827081 0.562083 0
    outer loop
      vertex 42.2164 -26.7913 60
      vertex 40.4509 -29.3893 -60
      vertex 40.4509 -29.3893 60
    endloop
  endfacet
  facet normal -0.891007 0.45399 0
    outer loop
      vertex 43.8153 -24.0877 -60
      vertex 45.2414 -21.289 60
      vertex 45.2414 -21.289 -60
    endloop
  endfacet
  facet normal -0.891007 0.45399 0
    outer loop
      vertex 45.2414 -21.289 60
      vertex 43.8153 -24.0877 -60
      vertex 43.8153 -24.0877 60
    endloop
  endfacet
  facet normal -0.940881 0.338738 0
    outer loop
      vertex 46.4888 -18.4062 -60
      vertex 47.5528 -15.4508 60
      vertex 47.5528 -15.4508 -60
    endloop
  endfacet
  facet normal -0.940881 0.338738 0
    outer loop
      vertex 47.5528 -15.4508 60
      vertex 46.4888 -18.4062 -60
      vertex 46.4888 -18.4062 60
    endloop
  endfacet
  facet normal -0.975917 0.218143 0
    outer loop
      vertex 48.4292 -12.4345 -60
      vertex 49.1144 -9.36907 60
      vertex 49.1144 -9.36907 -60
    endloop
  endfacet
  facet normal -0.975917 0.218143 0
    outer loop
      vertex 49.1144 -9.36907 60
      vertex 48.4292 -12.4345 -60
      vertex 48.4292 -12.4345 60
    endloop
  endfacet
  facet normal 0.562083 0.827081 -0
    outer loop
      vertex -26.7913 -42.2164 -60
      vertex -29.3893 -40.4509 60
      vertex -26.7913 -42.2164 60
    endloop
  endfacet
  facet normal 0.562083 0.827081 0
    outer loop
      vertex -29.3893 -40.4509 60
      vertex -26.7913 -42.2164 -60
      vertex -29.3893 -40.4509 -60
    endloop
  endfacet
  facet normal 0.45399 0.891007 -0
    outer loop
      vertex -21.289 -45.2414 -60
      vertex -24.0877 -43.8153 60
      vertex -21.289 -45.2414 60
    endloop
  endfacet
  facet normal 0.45399 0.891007 0
    outer loop
      vertex -24.0877 -43.8153 60
      vertex -21.289 -45.2414 -60
      vertex -24.0877 -43.8153 -60
    endloop
  endfacet
  facet normal 0.218143 0.975917 -0
    outer loop
      vertex -9.36907 -49.1144 -60
      vertex -12.4345 -48.4292 60
      vertex -9.36907 -49.1144 60
    endloop
  endfacet
  facet normal 0.218143 0.975917 0
    outer loop
      vertex -12.4345 -48.4292 60
      vertex -9.36907 -49.1144 -60
      vertex -12.4345 -48.4292 -60
    endloop
  endfacet
  facet normal 0.338738 0.940881 -0
    outer loop
      vertex -15.4508 -47.5528 -60
      vertex -18.4062 -46.4888 60
      vertex -15.4508 -47.5528 60
    endloop
  endfacet
  facet normal 0.338738 0.940881 0
    outer loop
      vertex -18.4062 -46.4888 60
      vertex -15.4508 -47.5528 -60
      vertex -18.4062 -46.4888 -60
    endloop
  endfacet
  facet normal 0.278991 0.960294 -0
    outer loop
      vertex -12.4345 -48.4292 -60
      vertex -15.4508 -47.5528 60
      vertex -12.4345 -48.4292 60
    endloop
  endfacet
  facet normal 0.278991 0.960294 0
    outer loop
      vertex -15.4508 -47.5528 60
      vertex -12.4345 -48.4292 -60
      vertex -15.4508 -47.5528 -60
    endloop
  endfacet
  facet normal 0.0941082 0.995562 -0
    outer loop
      vertex -3.13953 -49.9013 -60
      vertex -6.26666 -49.6057 60
      vertex -3.13953 -49.9013 60
    endloop
  endfacet
  facet normal 0.0941082 0.995562 0
    outer loop
      vertex -6.26666 -49.6057 60
      vertex -3.13953 -49.9013 -60
      vertex -6.26666 -49.6057 -60
    endloop
  endfacet
  facet normal 0.860742 0.509042 0
    outer loop
      vertex -42.2164 -26.7913 60
      vertex -43.8153 -24.0877 -60
      vertex -43.8153 -24.0877 60
    endloop
  endfacet
  facet normal 0.860742 0.509042 0
    outer loop
      vertex -43.8153 -24.0877 -60
      vertex -42.2164 -26.7913 60
      vertex -42.2164 -26.7913 -60
    endloop
  endfacet
  facet normal 0.917755 0.397148 0
    outer loop
      vertex -45.2414 -21.289 60
      vertex -46.4888 -18.4062 -60
      vertex -46.4888 -18.4062 60
    endloop
  endfacet
  facet normal 0.917755 0.397148 0
    outer loop
      vertex -46.4888 -18.4062 -60
      vertex -45.2414 -21.289 60
      vertex -45.2414 -21.289 -60
    endloop
  endfacet
  facet normal 0.891007 0.45399 0
    outer loop
      vertex -43.8153 -24.0877 60
      vertex -45.2414 -21.289 -60
      vertex -45.2414 -21.289 60
    endloop
  endfacet
  facet normal 0.891007 0.45399 0
    outer loop
      vertex -45.2414 -21.289 -60
      vertex -43.8153 -24.0877 60
      vertex -43.8153 -24.0877 -60
    endloop
  endfacet
  facet normal 0.790154 0.612908 0
    outer loop
      vertex -38.5257 -31.8712 60
      vertex -40.4509 -29.3893 -60
      vertex -40.4509 -29.3893 60
    endloop
  endfacet
  facet normal 0.790154 0.612908 0
    outer loop
      vertex -40.4509 -29.3893 -60
      vertex -38.5257 -31.8712 60
      vertex -38.5257 -31.8712 -60
    endloop
  endfacet
  facet normal 0.960294 0.278991 0
    outer loop
      vertex -47.5528 -15.4508 60
      vertex -48.4292 -12.4345 -60
      vertex -48.4292 -12.4345 60
    endloop
  endfacet
  facet normal 0.960294 0.278991 0
    outer loop
      vertex -48.4292 -12.4345 -60
      vertex -47.5528 -15.4508 60
      vertex -47.5528 -15.4508 -60
    endloop
  endfacet
  facet normal 0.987688 0.156435 0
    outer loop
      vertex -49.1144 -9.36907 60
      vertex -49.6057 -6.26666 -60
      vertex -49.6057 -6.26666 60
    endloop
  endfacet
  facet normal 0.987688 0.156435 0
    outer loop
      vertex -49.6057 -6.26666 -60
      vertex -49.1144 -9.36907 60
      vertex -49.1144 -9.36907 -60
    endloop
  endfacet
  facet normal 0.999507 0.0314107 0
    outer loop
      vertex -49.9013 -3.13953 60
      vertex -50 0 -60
      vertex -50 0 60
    endloop
  endfacet
  facet normal 0.999507 0.0314107 0
    outer loop
      vertex -50 0 -60
      vertex -49.9013 -3.13953 60
      vertex -49.9013 -3.13953 -60
    endloop
  endfacet
  facet normal -0.790154 -0.612908 0
    outer loop
      vertex 40.4509 29.3893 -60
      vertex 38.5257 31.8712 60
      vertex 38.5257 31.8712 -60
    endloop
  endfacet
  facet normal -0.790154 -0.612908 0
    outer loop
      vertex 38.5257 31.8712 60
      vertex 40.4509 29.3893 -60
      vertex 40.4509 29.3893 60
    endloop
  endfacet
  facet normal -0.860742 -0.509042 0
    outer loop
      vertex 43.8153 24.0877 -60
      vertex 42.2164 26.7913 60
      vertex 42.2164 26.7913 -60
    endloop
  endfacet
  facet normal -0.860742 -0.509042 0
    outer loop
      vertex 42.2164 26.7913 60
      vertex 43.8153 24.0877 -60
      vertex 43.8153 24.0877 60
    endloop
  endfacet
  facet normal -0.0941082 0.995562 0
    outer loop
      vertex 6.26666 -49.6057 -60
      vertex 3.13953 -49.9013 60
      vertex 6.26666 -49.6057 60
    endloop
  endfacet
  facet normal -0.0941082 0.995562 0
    outer loop
      vertex 3.13953 -49.9013 60
      vertex 6.26666 -49.6057 -60
      vertex 3.13953 -49.9013 -60
    endloop
  endfacet
  facet normal -0.338738 0.940881 0
    outer loop
      vertex 18.4062 -46.4888 -60
      vertex 15.4508 -47.5528 60
      vertex 18.4062 -46.4888 60
    endloop
  endfacet
  facet normal -0.338738 0.940881 0
    outer loop
      vertex 15.4508 -47.5528 60
      vertex 18.4062 -46.4888 -60
      vertex 15.4508 -47.5528 -60
    endloop
  endfacet
  facet normal -0.45399 0.891007 0
    outer loop
      vertex 24.0877 -43.8153 -60
      vertex 21.289 -45.2414 60
      vertex 24.0877 -43.8153 60
    endloop
  endfacet
  facet normal -0.45399 0.891007 0
    outer loop
      vertex 21.289 -45.2414 60
      vertex 24.0877 -43.8153 -60
      vertex 21.289 -45.2414 -60
    endloop
  endfacet
  facet normal -0.790154 0.612908 0
    outer loop
      vertex 38.5257 -31.8712 -60
      vertex 40.4509 -29.3893 60
      vertex 40.4509 -29.3893 -60
    endloop
  endfacet
  facet normal -0.790154 0.612908 0
    outer loop
      vertex 40.4509 -29.3893 60
      vertex 38.5257 -31.8712 -60
      vertex 38.5257 -31.8712 60
    endloop
  endfacet
  facet normal -0.917755 0.397148 0
    outer loop
      vertex 45.2414 -21.289 -60
      vertex 46.4888 -18.4062 60
      vertex 46.4888 -18.4062 -60
    endloop
  endfacet
  facet normal -0.917755 0.397148 0
    outer loop
      vertex 46.4888 -18.4062 60
      vertex 45.2414 -21.289 -60
      vertex 45.2414 -21.289 60
    endloop
  endfacet
  facet normal -0.960294 0.278991 0
    outer loop
      vertex 47.5528 -15.4508 -60
      vertex 48.4292 -12.4345 60
      vertex 48.4292 -12.4345 -60
    endloop
  endfacet
  facet normal -0.960294 0.278991 0
    outer loop
      vertex 48.4292 -12.4345 60
      vertex 47.5528 -15.4508 -60
      vertex 47.5528 -15.4508 60
    endloop
  endfacet
  facet normal -0.987688 0.156435 0
    outer loop
      vertex 49.1144 -9.36907 -60
      vertex 49.6057 -6.26666 60
      vertex 49.6057 -6.26666 -60
    endloop
  endfacet
  facet normal -0.987688 0.156435 0
    outer loop
      vertex 49.6057 -6.26666 60
      vertex 49.1144 -9.36907 -60
      vertex 49.1144 -9.36907 60
    endloop
  endfacet
  facet normal 0.612908 0.790154 -0
    outer loop
      vertex -29.3893 -40.4509 -60
      vertex -31.8712 -38.5257 60
      vertex -29.3893 -40.4509 60
    endloop
  endfacet
  facet normal 0.612908 0.790154 0
    outer loop
      vertex -31.8712 -38.5257 60
      vertex -29.3893 -40.4509 -60
      vertex -31.8712 -38.5257 -60
    endloop
  endfacet
  facet normal 0.750112 0.661311 0
    outer loop
      vertex -36.4484 -34.2274 60
      vertex -38.5257 -31.8712 -60
      vertex -38.5257 -31.8712 60
    endloop
  endfacet
  facet normal 0.750112 0.661311 0
    outer loop
      vertex -38.5257 -31.8712 -60
      vertex -36.4484 -34.2274 60
      vertex -36.4484 -34.2274 -60
    endloop
  endfacet
  facet normal 0.995562 0.0941082 0
    outer loop
      vertex -49.6057 -6.26666 60
      vertex -49.9013 -3.13953 -60
      vertex -49.9013 -3.13953 60
    endloop
  endfacet
  facet normal 0.995562 0.0941082 0
    outer loop
      vertex -49.9013 -3.13953 -60
      vertex -49.6057 -6.26666 60
      vertex -49.6057 -6.26666 -60
    endloop
  endfacet
endsolid OpenSCAD_Model
