solid OpenSCAD_Model
  facet normal 0.999506 0.0314243 0
    outer loop
      vertex 1 0 0
      vertex 0.998026 0.0627899 -0.0627899
      vertex 0.998026 0.0627899 0.0627899
    endloop
  endfacet
  facet normal -0.999506 0.0314243 0
    outer loop
      vertex -0.998026 0.0627899 -0.0627899
      vertex -1 0 0
      vertex -0.998026 0.0627899 0.0627899
    endloop
  endfacet
  facet normal 0.0314234 0.999506 -0
    outer loop
      vertex 0.0627899 0.998026 -0.998026
      vertex 0.0470692 0.99852 0.99852
      vertex 0.0627899 0.998026 0.998026
    endloop
  endfacet
  facet normal 0.0314244 0.999506 8.44585e-009
    outer loop
      vertex 0.0157052 0.999506 -0.999506
      vertex 0.0470692 0.99852 0.99852
      vertex 0.0627899 0.998026 -0.998026
    endloop
  endfacet
  facet normal 0.0314247 0.999506 4.99394e-009
    outer loop
      vertex 0.0470692 0.99852 0.99852
      vertex 0.0157052 0.999506 -0.999506
      vertex 0 1 0.999999
    endloop
  endfacet
  facet normal 0.031424 0.999506 0
    outer loop
      vertex 0 1 0.999999
      vertex 0.0157052 0.999506 -0.999506
      vertex 0 1 -1
    endloop
  endfacet
  facet normal -0.0314244 -0.999506 -8.44585e-009
    outer loop
      vertex -0.0470692 -0.99852 -0.99852
      vertex -0.0157052 -0.999506 0.999506
      vertex -0.0627899 -0.998026 0.998026
    endloop
  endfacet
  facet normal -0.0314234 -0.999506 0
    outer loop
      vertex -0.0470692 -0.99852 -0.99852
      vertex -0.0627899 -0.998026 0.998026
      vertex -0.0627899 -0.998026 -0.998026
    endloop
  endfacet
  facet normal -0.0314247 -0.999506 -4.99394e-009
    outer loop
      vertex 0 -1 -0.999999
      vertex -0.0157052 -0.999506 0.999506
      vertex -0.0470692 -0.99852 -0.99852
    endloop
  endfacet
  facet normal -0.031424 -0.999506 0
    outer loop
      vertex -0.0157052 -0.999506 0.999506
      vertex 0 -1 -0.999999
      vertex 0 -1 1
    endloop
  endfacet
  facet normal 0.707107 0.707107 0
    outer loop
      vertex 0.728969 0.684546 0.684546
      vertex 0.684546 0.728969 -0.728969
      vertex 0.684546 0.728969 0.728969
    endloop
  endfacet
  facet normal 0.707107 0.707107 0
    outer loop
      vertex 0.684546 0.728969 -0.728969
      vertex 0.728969 0.684546 0.684546
      vertex 0.728969 0.684546 -0.684546
    endloop
  endfacet
  facet normal -0.661307 0.750115 0
    outer loop
      vertex -0.637424 0.770513 0.770513
      vertex -0.684546 0.728969 -0.728969
      vertex -0.684546 0.728969 0.728969
    endloop
  endfacet
  facet normal -0.661307 0.750115 0
    outer loop
      vertex -0.684546 0.728969 -0.728969
      vertex -0.637424 0.770513 0.770513
      vertex -0.637424 0.770513 -0.770513
    endloop
  endfacet
  facet normal -0.33874 0.94088 0
    outer loop
      vertex -0.309016 0.951056 0.951056
      vertex -0.368124 0.929776 -0.929776
      vertex -0.368124 0.929776 0.929776
    endloop
  endfacet
  facet normal -0.33874 0.94088 0
    outer loop
      vertex -0.368124 0.929776 -0.929776
      vertex -0.309016 0.951056 0.951056
      vertex -0.309016 0.951056 -0.951056
    endloop
  endfacet
  facet normal 0.91775 0.397158 0
    outer loop
      vertex 0.929776 0.368124 0.368124
      vertex 0.904826 0.425778 -0.425778
      vertex 0.904826 0.425778 0.425778
    endloop
  endfacet
  facet normal 0.91775 0.397158 0
    outer loop
      vertex 0.904826 0.425778 -0.425778
      vertex 0.929776 0.368124 0.368124
      vertex 0.929776 0.368124 -0.368124
    endloop
  endfacet
  facet normal 0.397158 0.91775 -0
    outer loop
      vertex 0.425778 0.904826 -0.904826
      vertex 0.368124 0.929776 0.929776
      vertex 0.425778 0.904826 0.904826
    endloop
  endfacet
  facet normal 0.397158 0.91775 0
    outer loop
      vertex 0.368124 0.929776 0.929776
      vertex 0.425778 0.904826 -0.904826
      vertex 0.368124 0.929776 -0.929776
    endloop
  endfacet
  facet normal 0.562084 0.82708 -0
    outer loop
      vertex 0.587785 0.809016 -0.809016
      vertex 0.535827 0.844327 0.844327
      vertex 0.587785 0.809016 0.809016
    endloop
  endfacet
  facet normal 0.562084 0.82708 0
    outer loop
      vertex 0.535827 0.844327 0.844327
      vertex 0.587785 0.809016 -0.809016
      vertex 0.535827 0.844327 -0.844327
    endloop
  endfacet
  facet normal -0.91775 0.397158 0
    outer loop
      vertex -0.929776 0.368124 -0.368124
      vertex -0.904826 0.425778 0.425778
      vertex -0.904826 0.425778 -0.425778
    endloop
  endfacet
  facet normal -0.91775 0.397158 0
    outer loop
      vertex -0.904826 0.425778 0.425778
      vertex -0.929776 0.368124 -0.368124
      vertex -0.929776 0.368124 0.368124
    endloop
  endfacet
  facet normal -0.750115 0.661307 0
    outer loop
      vertex -0.770513 0.637424 -0.637424
      vertex -0.728969 0.684546 0.684546
      vertex -0.728969 0.684546 -0.684546
    endloop
  endfacet
  facet normal -0.750115 0.661307 0
    outer loop
      vertex -0.728969 0.684546 0.684546
      vertex -0.770513 0.637424 -0.637424
      vertex -0.770513 0.637424 0.637424
    endloop
  endfacet
  facet normal -0.156437 0.987688 0
    outer loop
      vertex -0.125333 0.992114 0.992114
      vertex -0.187381 0.982286 -0.982286
      vertex -0.187381 0.982286 0.982286
    endloop
  endfacet
  facet normal -0.156437 0.987688 0
    outer loop
      vertex -0.187381 0.982286 -0.982286
      vertex -0.125333 0.992114 0.992114
      vertex -0.125333 0.992114 -0.992114
    endloop
  endfacet
  facet normal 0.94088 -0.33874 0
    outer loop
      vertex 0.929776 -0.368124 0.368124
      vertex 0.951056 -0.309016 -0.309016
      vertex 0.951056 -0.309016 0.309016
    endloop
  endfacet
  facet normal 0.94088 -0.33874 0
    outer loop
      vertex 0.951056 -0.309016 -0.309016
      vertex 0.929776 -0.368124 0.368124
      vertex 0.929776 -0.368124 -0.368124
    endloop
  endfacet
  facet normal -0.790156 -0.612906 0
    outer loop
      vertex -0.770513 -0.637424 -0.637424
      vertex -0.809016 -0.587785 0.587785
      vertex -0.809016 -0.587785 -0.587785
    endloop
  endfacet
  facet normal -0.790156 -0.612906 0
    outer loop
      vertex -0.809016 -0.587785 0.587785
      vertex -0.770513 -0.637424 -0.637424
      vertex -0.770513 -0.637424 0.637424
    endloop
  endfacet
  facet normal 0.987688 0.156437 0
    outer loop
      vertex 0.992114 0.125333 0.125333
      vertex 0.982286 0.187381 -0.187381
      vertex 0.982286 0.187381 0.187381
    endloop
  endfacet
  facet normal 0.987688 0.156437 0
    outer loop
      vertex 0.982286 0.187381 -0.187381
      vertex 0.992114 0.125333 0.125333
      vertex 0.992114 0.125333 -0.125333
    endloop
  endfacet
  facet normal 0.995562 0.0941049 0
    outer loop
      vertex 0.998026 0.0627899 0.0627899
      vertex 0.992114 0.125333 -0.125333
      vertex 0.992114 0.125333 0.125333
    endloop
  endfacet
  facet normal 0.995562 0.0941049 0
    outer loop
      vertex 0.992114 0.125333 -0.125333
      vertex 0.998026 0.0627899 0.0627899
      vertex 0.998026 0.0627899 -0.0627899
    endloop
  endfacet
  facet normal 0.82708 0.562084 0
    outer loop
      vertex 0.844327 0.535827 0.535827
      vertex 0.809016 0.587785 -0.587785
      vertex 0.809016 0.587785 0.587785
    endloop
  endfacet
  facet normal 0.82708 0.562084 0
    outer loop
      vertex 0.809016 0.587785 -0.587785
      vertex 0.844327 0.535827 0.535827
      vertex 0.844327 0.535827 -0.535827
    endloop
  endfacet
  facet normal 0.750115 0.661307 0
    outer loop
      vertex 0.770513 0.637424 0.637424
      vertex 0.728969 0.684546 -0.684546
      vertex 0.728969 0.684546 0.684546
    endloop
  endfacet
  facet normal 0.750115 0.661307 0
    outer loop
      vertex 0.728969 0.684546 -0.684546
      vertex 0.770513 0.637424 0.637424
      vertex 0.770513 0.637424 -0.637424
    endloop
  endfacet
  facet normal 0.891013 0.453977 0
    outer loop
      vertex 0.904826 0.425778 0.425778
      vertex 0.876307 0.481753 -0.481753
      vertex 0.876307 0.481753 0.481753
    endloop
  endfacet
  facet normal 0.891013 0.453977 0
    outer loop
      vertex 0.876307 0.481753 -0.481753
      vertex 0.904826 0.425778 0.425778
      vertex 0.904826 0.425778 -0.425778
    endloop
  endfacet
  facet normal 0.218131 0.975919 -0
    outer loop
      vertex 0.24869 0.968583 -0.968583
      vertex 0.187381 0.982286 0.982286
      vertex 0.24869 0.968583 0.968583
    endloop
  endfacet
  facet normal 0.218131 0.975919 0
    outer loop
      vertex 0.187381 0.982286 0.982286
      vertex 0.24869 0.968583 -0.968583
      vertex 0.187381 0.982286 -0.982286
    endloop
  endfacet
  facet normal 0.278993 0.960293 -0
    outer loop
      vertex 0.309016 0.951056 -0.951056
      vertex 0.24869 0.968583 0.968583
      vertex 0.309016 0.951056 0.951056
    endloop
  endfacet
  facet normal 0.278993 0.960293 0
    outer loop
      vertex 0.24869 0.968583 0.968583
      vertex 0.309016 0.951056 -0.951056
      vertex 0.24869 0.968583 -0.968583
    endloop
  endfacet
  facet normal 0.156437 0.987688 -0
    outer loop
      vertex 0.187381 0.982286 -0.982286
      vertex 0.125333 0.992114 0.992114
      vertex 0.187381 0.982286 0.982286
    endloop
  endfacet
  facet normal 0.156437 0.987688 0
    outer loop
      vertex 0.125333 0.992114 0.992114
      vertex 0.187381 0.982286 -0.982286
      vertex 0.125333 0.992114 -0.992114
    endloop
  endfacet
  facet normal 0.509049 0.860737 -0
    outer loop
      vertex 0.535827 0.844327 -0.844327
      vertex 0.481753 0.876307 0.876307
      vertex 0.535827 0.844327 0.844327
    endloop
  endfacet
  facet normal 0.509049 0.860737 0
    outer loop
      vertex 0.481753 0.876307 0.876307
      vertex 0.535827 0.844327 -0.844327
      vertex 0.481753 0.876307 -0.876307
    endloop
  endfacet
  facet normal 0.612906 0.790156 -0
    outer loop
      vertex 0.637424 0.770513 -0.770513
      vertex 0.587785 0.809016 0.809016
      vertex 0.637424 0.770513 0.770513
    endloop
  endfacet
  facet normal 0.612906 0.790156 0
    outer loop
      vertex 0.587785 0.809016 0.809016
      vertex 0.637424 0.770513 -0.770513
      vertex 0.587785 0.809016 -0.809016
    endloop
  endfacet
  facet normal -0.975919 0.218131 0
    outer loop
      vertex -0.982286 0.187381 -0.187381
      vertex -0.968583 0.24869 0.24869
      vertex -0.968583 0.24869 -0.24869
    endloop
  endfacet
  facet normal -0.975919 0.218131 0
    outer loop
      vertex -0.968583 0.24869 0.24869
      vertex -0.982286 0.187381 -0.187381
      vertex -0.982286 0.187381 0.187381
    endloop
  endfacet
  facet normal -0.790156 0.612906 0
    outer loop
      vertex -0.809016 0.587785 -0.587785
      vertex -0.770513 0.637424 0.637424
      vertex -0.770513 0.637424 -0.637424
    endloop
  endfacet
  facet normal -0.790156 0.612906 0
    outer loop
      vertex -0.770513 0.637424 0.637424
      vertex -0.809016 0.587785 -0.587785
      vertex -0.809016 0.587785 0.587785
    endloop
  endfacet
  facet normal -0.860737 0.509049 0
    outer loop
      vertex -0.876307 0.481753 -0.481753
      vertex -0.844327 0.535827 0.535827
      vertex -0.844327 0.535827 -0.535827
    endloop
  endfacet
  facet normal -0.860737 0.509049 0
    outer loop
      vertex -0.844327 0.535827 0.535827
      vertex -0.876307 0.481753 -0.481753
      vertex -0.876307 0.481753 0.481753
    endloop
  endfacet
  facet normal -0.960293 0.278993 0
    outer loop
      vertex -0.968583 0.24869 -0.24869
      vertex -0.951056 0.309016 0.309016
      vertex -0.951056 0.309016 -0.309016
    endloop
  endfacet
  facet normal -0.960293 0.278993 0
    outer loop
      vertex -0.951056 0.309016 0.309016
      vertex -0.968583 0.24869 -0.24869
      vertex -0.968583 0.24869 0.24869
    endloop
  endfacet
  facet normal -0.987688 0.156437 0
    outer loop
      vertex -0.992114 0.125333 -0.125333
      vertex -0.982286 0.187381 0.187381
      vertex -0.982286 0.187381 -0.187381
    endloop
  endfacet
  facet normal -0.987688 0.156437 0
    outer loop
      vertex -0.982286 0.187381 0.187381
      vertex -0.992114 0.125333 -0.125333
      vertex -0.992114 0.125333 0.125333
    endloop
  endfacet
  facet normal -0.509049 0.860737 0
    outer loop
      vertex -0.481753 0.876307 0.876307
      vertex -0.535827 0.844327 -0.844327
      vertex -0.535827 0.844327 0.844327
    endloop
  endfacet
  facet normal -0.509049 0.860737 0
    outer loop
      vertex -0.535827 0.844327 -0.844327
      vertex -0.481753 0.876307 0.876307
      vertex -0.481753 0.876307 -0.876307
    endloop
  endfacet
  facet normal -0.453977 0.891013 0
    outer loop
      vertex -0.425778 0.904826 0.904826
      vertex -0.481753 0.876307 -0.876307
      vertex -0.481753 0.876307 0.876307
    endloop
  endfacet
  facet normal -0.453977 0.891013 0
    outer loop
      vertex -0.481753 0.876307 -0.876307
      vertex -0.425778 0.904826 0.904826
      vertex -0.425778 0.904826 -0.904826
    endloop
  endfacet
  facet normal -0.562084 0.82708 0
    outer loop
      vertex -0.535827 0.844327 0.844327
      vertex -0.587785 0.809016 -0.809016
      vertex -0.587785 0.809016 0.809016
    endloop
  endfacet
  facet normal -0.562084 0.82708 0
    outer loop
      vertex -0.587785 0.809016 -0.809016
      vertex -0.535827 0.844327 0.844327
      vertex -0.535827 0.844327 -0.844327
    endloop
  endfacet
  facet normal -0.218131 0.975919 0
    outer loop
      vertex -0.187381 0.982286 0.982286
      vertex -0.24869 0.968583 -0.968583
      vertex -0.24869 0.968583 0.968583
    endloop
  endfacet
  facet normal -0.218131 0.975919 0
    outer loop
      vertex -0.24869 0.968583 -0.968583
      vertex -0.187381 0.982286 0.982286
      vertex -0.187381 0.982286 -0.982286
    endloop
  endfacet
  facet normal -0.0941049 0.995562 0
    outer loop
      vertex -0.0627899 0.998026 0.998026
      vertex -0.125333 0.992114 -0.992114
      vertex -0.125333 0.992114 0.992114
    endloop
  endfacet
  facet normal -0.0941049 0.995562 0
    outer loop
      vertex -0.125333 0.992114 -0.992114
      vertex -0.0627899 0.998026 0.998026
      vertex -0.0627899 0.998026 -0.998026
    endloop
  endfacet
  facet normal 0.987688 -0.156437 0
    outer loop
      vertex 0.982286 -0.187381 0.187381
      vertex 0.992114 -0.125333 -0.125333
      vertex 0.992114 -0.125333 0.125333
    endloop
  endfacet
  facet normal 0.987688 -0.156437 0
    outer loop
      vertex 0.992114 -0.125333 -0.125333
      vertex 0.982286 -0.187381 0.187381
      vertex 0.982286 -0.187381 -0.187381
    endloop
  endfacet
  facet normal 0.33874 -0.94088 0
    outer loop
      vertex 0.309016 -0.951056 0.951056
      vertex 0.368124 -0.929776 -0.929776
      vertex 0.368124 -0.929776 0.929776
    endloop
  endfacet
  facet normal 0.33874 -0.94088 0
    outer loop
      vertex 0.368124 -0.929776 -0.929776
      vertex 0.309016 -0.951056 0.951056
      vertex 0.309016 -0.951056 -0.951056
    endloop
  endfacet
  facet normal 0.218131 -0.975919 0
    outer loop
      vertex 0.187381 -0.982286 0.982286
      vertex 0.24869 -0.968583 -0.968583
      vertex 0.24869 -0.968583 0.968583
    endloop
  endfacet
  facet normal 0.218131 -0.975919 0
    outer loop
      vertex 0.24869 -0.968583 -0.968583
      vertex 0.187381 -0.982286 0.982286
      vertex 0.187381 -0.982286 -0.982286
    endloop
  endfacet
  facet normal 0.707107 -0.707107 0
    outer loop
      vertex 0.684546 -0.728969 0.728969
      vertex 0.728969 -0.684546 -0.684546
      vertex 0.728969 -0.684546 0.684546
    endloop
  endfacet
  facet normal 0.707107 -0.707107 0
    outer loop
      vertex 0.728969 -0.684546 -0.684546
      vertex 0.684546 -0.728969 0.728969
      vertex 0.684546 -0.728969 -0.728969
    endloop
  endfacet
  facet normal 0.397158 -0.91775 0
    outer loop
      vertex 0.368124 -0.929776 0.929776
      vertex 0.425778 -0.904826 -0.904826
      vertex 0.425778 -0.904826 0.904826
    endloop
  endfacet
  facet normal 0.397158 -0.91775 0
    outer loop
      vertex 0.425778 -0.904826 -0.904826
      vertex 0.368124 -0.929776 0.929776
      vertex 0.368124 -0.929776 -0.929776
    endloop
  endfacet
  facet normal 0.82708 -0.562084 0
    outer loop
      vertex 0.809016 -0.587785 0.587785
      vertex 0.844327 -0.535827 -0.535827
      vertex 0.844327 -0.535827 0.535827
    endloop
  endfacet
  facet normal 0.82708 -0.562084 0
    outer loop
      vertex 0.844327 -0.535827 -0.535827
      vertex 0.809016 -0.587785 0.587785
      vertex 0.809016 -0.587785 -0.587785
    endloop
  endfacet
  facet normal -0.612906 -0.790156 0
    outer loop
      vertex -0.637424 -0.770513 -0.770513
      vertex -0.587785 -0.809016 0.809016
      vertex -0.637424 -0.770513 0.770513
    endloop
  endfacet
  facet normal -0.612906 -0.790156 -0
    outer loop
      vertex -0.587785 -0.809016 0.809016
      vertex -0.637424 -0.770513 -0.770513
      vertex -0.587785 -0.809016 -0.809016
    endloop
  endfacet
  facet normal -0.397158 -0.91775 0
    outer loop
      vertex -0.425778 -0.904826 -0.904826
      vertex -0.368124 -0.929776 0.929776
      vertex -0.425778 -0.904826 0.904826
    endloop
  endfacet
  facet normal -0.397158 -0.91775 -0
    outer loop
      vertex -0.368124 -0.929776 0.929776
      vertex -0.425778 -0.904826 -0.904826
      vertex -0.368124 -0.929776 -0.929776
    endloop
  endfacet
  facet normal -0.509049 -0.860737 0
    outer loop
      vertex -0.535827 -0.844327 -0.844327
      vertex -0.481753 -0.876307 0.876307
      vertex -0.535827 -0.844327 0.844327
    endloop
  endfacet
  facet normal -0.509049 -0.860737 -0
    outer loop
      vertex -0.481753 -0.876307 0.876307
      vertex -0.535827 -0.844327 -0.844327
      vertex -0.481753 -0.876307 -0.876307
    endloop
  endfacet
  facet normal -0.156437 -0.987688 0
    outer loop
      vertex -0.187381 -0.982286 -0.982286
      vertex -0.125333 -0.992114 0.992114
      vertex -0.187381 -0.982286 0.982286
    endloop
  endfacet
  facet normal -0.156437 -0.987688 -0
    outer loop
      vertex -0.125333 -0.992114 0.992114
      vertex -0.187381 -0.982286 -0.982286
      vertex -0.125333 -0.992114 -0.992114
    endloop
  endfacet
  facet normal -0.860737 -0.509049 0
    outer loop
      vertex -0.844327 -0.535827 -0.535827
      vertex -0.876307 -0.481753 0.481753
      vertex -0.876307 -0.481753 -0.481753
    endloop
  endfacet
  facet normal -0.860737 -0.509049 0
    outer loop
      vertex -0.876307 -0.481753 0.481753
      vertex -0.844327 -0.535827 -0.535827
      vertex -0.844327 -0.535827 0.535827
    endloop
  endfacet
  facet normal -0.82708 -0.562084 0
    outer loop
      vertex -0.809016 -0.587785 -0.587785
      vertex -0.844327 -0.535827 0.535827
      vertex -0.844327 -0.535827 -0.535827
    endloop
  endfacet
  facet normal -0.82708 -0.562084 0
    outer loop
      vertex -0.844327 -0.535827 0.535827
      vertex -0.809016 -0.587785 -0.587785
      vertex -0.809016 -0.587785 0.587785
    endloop
  endfacet
  facet normal -0.975919 -0.218131 0
    outer loop
      vertex -0.968583 -0.24869 -0.24869
      vertex -0.982286 -0.187381 0.187381
      vertex -0.982286 -0.187381 -0.187381
    endloop
  endfacet
  facet normal -0.975919 -0.218131 0
    outer loop
      vertex -0.982286 -0.187381 0.187381
      vertex -0.968583 -0.24869 -0.24869
      vertex -0.968583 -0.24869 0.24869
    endloop
  endfacet
  facet normal -0.960293 -0.278993 0
    outer loop
      vertex -0.951056 -0.309016 -0.309016
      vertex -0.968583 -0.24869 0.24869
      vertex -0.968583 -0.24869 -0.24869
    endloop
  endfacet
  facet normal -0.960293 -0.278993 0
    outer loop
      vertex -0.968583 -0.24869 0.24869
      vertex -0.951056 -0.309016 -0.309016
      vertex -0.951056 -0.309016 0.309016
    endloop
  endfacet
  facet normal 0.975919 0.218131 0
    outer loop
      vertex 0.982286 0.187381 0.187381
      vertex 0.968583 0.24869 -0.24869
      vertex 0.968583 0.24869 0.24869
    endloop
  endfacet
  facet normal 0.975919 0.218131 0
    outer loop
      vertex 0.968583 0.24869 -0.24869
      vertex 0.982286 0.187381 0.187381
      vertex 0.982286 0.187381 -0.187381
    endloop
  endfacet
  facet normal 0.960293 0.278993 0
    outer loop
      vertex 0.968583 0.24869 0.24869
      vertex 0.951056 0.309016 -0.309016
      vertex 0.951056 0.309016 0.309016
    endloop
  endfacet
  facet normal 0.960293 0.278993 0
    outer loop
      vertex 0.951056 0.309016 -0.309016
      vertex 0.968583 0.24869 0.24869
      vertex 0.968583 0.24869 -0.24869
    endloop
  endfacet
  facet normal 0.94088 0.33874 0
    outer loop
      vertex 0.951056 0.309016 0.309016
      vertex 0.929776 0.368124 -0.368124
      vertex 0.929776 0.368124 0.368124
    endloop
  endfacet
  facet normal 0.94088 0.33874 0
    outer loop
      vertex 0.929776 0.368124 -0.368124
      vertex 0.951056 0.309016 0.309016
      vertex 0.951056 0.309016 -0.309016
    endloop
  endfacet
  facet normal 0.790156 0.612906 0
    outer loop
      vertex 0.809016 0.587785 0.587785
      vertex 0.770513 0.637424 -0.637424
      vertex 0.770513 0.637424 0.637424
    endloop
  endfacet
  facet normal 0.790156 0.612906 0
    outer loop
      vertex 0.770513 0.637424 -0.637424
      vertex 0.809016 0.587785 0.587785
      vertex 0.809016 0.587785 -0.587785
    endloop
  endfacet
  facet normal 0.33874 0.94088 -0
    outer loop
      vertex 0.368124 0.929776 -0.929776
      vertex 0.309016 0.951056 0.951056
      vertex 0.368124 0.929776 0.929776
    endloop
  endfacet
  facet normal 0.33874 0.94088 0
    outer loop
      vertex 0.309016 0.951056 0.951056
      vertex 0.368124 0.929776 -0.929776
      vertex 0.309016 0.951056 -0.951056
    endloop
  endfacet
  facet normal 0.0941049 0.995562 -0
    outer loop
      vertex 0.125333 0.992114 -0.992114
      vertex 0.0627899 0.998026 0.998026
      vertex 0.125333 0.992114 0.992114
    endloop
  endfacet
  facet normal 0.0941049 0.995562 0
    outer loop
      vertex 0.0627899 0.998026 0.998026
      vertex 0.125333 0.992114 -0.992114
      vertex 0.0627899 0.998026 -0.998026
    endloop
  endfacet
  facet normal 0.661307 0.750115 -0
    outer loop
      vertex 0.684546 0.728969 -0.728969
      vertex 0.637424 0.770513 0.770513
      vertex 0.684546 0.728969 0.728969
    endloop
  endfacet
  facet normal 0.661307 0.750115 0
    outer loop
      vertex 0.637424 0.770513 0.770513
      vertex 0.684546 0.728969 -0.728969
      vertex 0.637424 0.770513 -0.770513
    endloop
  endfacet
  facet normal -0.707107 0.707107 0
    outer loop
      vertex -0.728969 0.684546 -0.684546
      vertex -0.684546 0.728969 0.728969
      vertex -0.684546 0.728969 -0.728969
    endloop
  endfacet
  facet normal -0.707107 0.707107 0
    outer loop
      vertex -0.684546 0.728969 0.728969
      vertex -0.728969 0.684546 -0.684546
      vertex -0.728969 0.684546 0.684546
    endloop
  endfacet
  facet normal -0.82708 0.562084 0
    outer loop
      vertex -0.844327 0.535827 -0.535827
      vertex -0.809016 0.587785 0.587785
      vertex -0.809016 0.587785 -0.587785
    endloop
  endfacet
  facet normal -0.82708 0.562084 0
    outer loop
      vertex -0.809016 0.587785 0.587785
      vertex -0.844327 0.535827 -0.535827
      vertex -0.844327 0.535827 0.535827
    endloop
  endfacet
  facet normal -0.94088 0.33874 0
    outer loop
      vertex -0.951056 0.309016 -0.309016
      vertex -0.929776 0.368124 0.368124
      vertex -0.929776 0.368124 -0.368124
    endloop
  endfacet
  facet normal -0.94088 0.33874 0
    outer loop
      vertex -0.929776 0.368124 0.368124
      vertex -0.951056 0.309016 -0.309016
      vertex -0.951056 0.309016 0.309016
    endloop
  endfacet
  facet normal -0.995562 0.0941049 0
    outer loop
      vertex -0.998026 0.0627899 -0.0627899
      vertex -0.992114 0.125333 0.125333
      vertex -0.992114 0.125333 -0.125333
    endloop
  endfacet
  facet normal -0.995562 0.0941049 0
    outer loop
      vertex -0.992114 0.125333 0.125333
      vertex -0.998026 0.0627899 -0.0627899
      vertex -0.998026 0.0627899 0.0627899
    endloop
  endfacet
  facet normal -0.397158 0.91775 0
    outer loop
      vertex -0.368124 0.929776 0.929776
      vertex -0.425778 0.904826 -0.904826
      vertex -0.425778 0.904826 0.904826
    endloop
  endfacet
  facet normal -0.397158 0.91775 0
    outer loop
      vertex -0.425778 0.904826 -0.904826
      vertex -0.368124 0.929776 0.929776
      vertex -0.368124 0.929776 -0.929776
    endloop
  endfacet
  facet normal -0.0314247 0.999506 4.99394e-009
    outer loop
      vertex -0.0157052 0.999506 -0.999506
      vertex -0.0470692 0.99852 0.99852
      vertex 0 1 0.999999
    endloop
  endfacet
  facet normal -0.0314234 0.999506 0
    outer loop
      vertex -0.0470692 0.99852 0.99852
      vertex -0.0627899 0.998026 -0.998026
      vertex -0.0627899 0.998026 0.998026
    endloop
  endfacet
  facet normal -0.0314244 0.999506 8.44585e-009
    outer loop
      vertex -0.0470692 0.99852 0.99852
      vertex -0.0157052 0.999506 -0.999506
      vertex -0.0627899 0.998026 -0.998026
    endloop
  endfacet
  facet normal -0.031424 0.999506 0
    outer loop
      vertex -0.0157052 0.999506 -0.999506
      vertex 0 1 0.999999
      vertex 0 1 -1
    endloop
  endfacet
  facet normal 0.999506 -0.0314243 0
    outer loop
      vertex 0.998026 -0.0627899 0.0627899
      vertex 0.998026 -0.0627899 -0.0627899
      vertex 1 0 0
    endloop
  endfacet
  facet normal 0.031424 -0.999506 0
    outer loop
      vertex 0 -1 -0.999999
      vertex 0.0157052 -0.999506 0.999506
      vertex 0 -1 1
    endloop
  endfacet
  facet normal 0.0314244 -0.999506 -8.44585e-009
    outer loop
      vertex 0.0157052 -0.999506 0.999506
      vertex 0.0470692 -0.99852 -0.99852
      vertex 0.0627899 -0.998026 0.998026
    endloop
  endfacet
  facet normal 0.0314234 -0.999506 0
    outer loop
      vertex 0.0627899 -0.998026 0.998026
      vertex 0.0470692 -0.99852 -0.99852
      vertex 0.0627899 -0.998026 -0.998026
    endloop
  endfacet
  facet normal 0.0314247 -0.999506 -4.99394e-009
    outer loop
      vertex 0.0157052 -0.999506 0.999506
      vertex 0 -1 -0.999999
      vertex 0.0470692 -0.99852 -0.99852
    endloop
  endfacet
  facet normal 0.156437 -0.987688 0
    outer loop
      vertex 0.125333 -0.992114 0.992114
      vertex 0.187381 -0.982286 -0.982286
      vertex 0.187381 -0.982286 0.982286
    endloop
  endfacet
  facet normal 0.156437 -0.987688 0
    outer loop
      vertex 0.187381 -0.982286 -0.982286
      vertex 0.125333 -0.992114 0.992114
      vertex 0.125333 -0.992114 -0.992114
    endloop
  endfacet
  facet normal 0.278993 -0.960293 0
    outer loop
      vertex 0.24869 -0.968583 0.968583
      vertex 0.309016 -0.951056 -0.951056
      vertex 0.309016 -0.951056 0.951056
    endloop
  endfacet
  facet normal 0.278993 -0.960293 0
    outer loop
      vertex 0.309016 -0.951056 -0.951056
      vertex 0.24869 -0.968583 0.968583
      vertex 0.24869 -0.968583 -0.968583
    endloop
  endfacet
  facet normal 0.612906 -0.790156 0
    outer loop
      vertex 0.587785 -0.809016 0.809016
      vertex 0.637424 -0.770513 -0.770513
      vertex 0.637424 -0.770513 0.770513
    endloop
  endfacet
  facet normal 0.612906 -0.790156 0
    outer loop
      vertex 0.637424 -0.770513 -0.770513
      vertex 0.587785 -0.809016 0.809016
      vertex 0.587785 -0.809016 -0.809016
    endloop
  endfacet
  facet normal 0.562084 -0.82708 0
    outer loop
      vertex 0.535827 -0.844327 0.844327
      vertex 0.587785 -0.809016 -0.809016
      vertex 0.587785 -0.809016 0.809016
    endloop
  endfacet
  facet normal 0.562084 -0.82708 0
    outer loop
      vertex 0.587785 -0.809016 -0.809016
      vertex 0.535827 -0.844327 0.844327
      vertex 0.535827 -0.844327 -0.844327
    endloop
  endfacet
  facet normal 0.661307 -0.750115 0
    outer loop
      vertex 0.637424 -0.770513 0.770513
      vertex 0.684546 -0.728969 -0.728969
      vertex 0.684546 -0.728969 0.728969
    endloop
  endfacet
  facet normal 0.661307 -0.750115 0
    outer loop
      vertex 0.684546 -0.728969 -0.728969
      vertex 0.637424 -0.770513 0.770513
      vertex 0.637424 -0.770513 -0.770513
    endloop
  endfacet
  facet normal 0.509049 -0.860737 0
    outer loop
      vertex 0.481753 -0.876307 0.876307
      vertex 0.535827 -0.844327 -0.844327
      vertex 0.535827 -0.844327 0.844327
    endloop
  endfacet
  facet normal 0.509049 -0.860737 0
    outer loop
      vertex 0.535827 -0.844327 -0.844327
      vertex 0.481753 -0.876307 0.876307
      vertex 0.481753 -0.876307 -0.876307
    endloop
  endfacet
  facet normal 0.453977 -0.891013 0
    outer loop
      vertex 0.425778 -0.904826 0.904826
      vertex 0.481753 -0.876307 -0.876307
      vertex 0.481753 -0.876307 0.876307
    endloop
  endfacet
  facet normal 0.453977 -0.891013 0
    outer loop
      vertex 0.481753 -0.876307 -0.876307
      vertex 0.425778 -0.904826 0.904826
      vertex 0.425778 -0.904826 -0.904826
    endloop
  endfacet
  facet normal 0.750115 -0.661307 0
    outer loop
      vertex 0.728969 -0.684546 0.684546
      vertex 0.770513 -0.637424 -0.637424
      vertex 0.770513 -0.637424 0.637424
    endloop
  endfacet
  facet normal 0.750115 -0.661307 0
    outer loop
      vertex 0.770513 -0.637424 -0.637424
      vertex 0.728969 -0.684546 0.684546
      vertex 0.728969 -0.684546 -0.684546
    endloop
  endfacet
  facet normal 0.790156 -0.612906 0
    outer loop
      vertex 0.770513 -0.637424 0.637424
      vertex 0.809016 -0.587785 -0.587785
      vertex 0.809016 -0.587785 0.587785
    endloop
  endfacet
  facet normal 0.790156 -0.612906 0
    outer loop
      vertex 0.809016 -0.587785 -0.587785
      vertex 0.770513 -0.637424 0.637424
      vertex 0.770513 -0.637424 -0.637424
    endloop
  endfacet
  facet normal 0.891013 -0.453977 0
    outer loop
      vertex 0.876307 -0.481753 0.481753
      vertex 0.904826 -0.425778 -0.425778
      vertex 0.904826 -0.425778 0.425778
    endloop
  endfacet
  facet normal 0.891013 -0.453977 0
    outer loop
      vertex 0.904826 -0.425778 -0.425778
      vertex 0.876307 -0.481753 0.481753
      vertex 0.876307 -0.481753 -0.481753
    endloop
  endfacet
  facet normal 0.91775 -0.397158 0
    outer loop
      vertex 0.904826 -0.425778 0.425778
      vertex 0.929776 -0.368124 -0.368124
      vertex 0.929776 -0.368124 0.368124
    endloop
  endfacet
  facet normal 0.91775 -0.397158 0
    outer loop
      vertex 0.929776 -0.368124 -0.368124
      vertex 0.904826 -0.425778 0.425778
      vertex 0.904826 -0.425778 -0.425778
    endloop
  endfacet
  facet normal 0.960293 -0.278993 0
    outer loop
      vertex 0.951056 -0.309016 0.309016
      vertex 0.968583 -0.24869 -0.24869
      vertex 0.968583 -0.24869 0.24869
    endloop
  endfacet
  facet normal 0.960293 -0.278993 0
    outer loop
      vertex 0.968583 -0.24869 -0.24869
      vertex 0.951056 -0.309016 0.309016
      vertex 0.951056 -0.309016 -0.309016
    endloop
  endfacet
  facet normal 0.995562 -0.0941049 0
    outer loop
      vertex 0.992114 -0.125333 0.125333
      vertex 0.998026 -0.0627899 -0.0627899
      vertex 0.998026 -0.0627899 0.0627899
    endloop
  endfacet
  facet normal 0.995562 -0.0941049 0
    outer loop
      vertex 0.998026 -0.0627899 -0.0627899
      vertex 0.992114 -0.125333 0.125333
      vertex 0.992114 -0.125333 -0.125333
    endloop
  endfacet
  facet normal -0.707107 -0.707107 0
    outer loop
      vertex -0.684546 -0.728969 -0.728969
      vertex -0.728969 -0.684546 0.684546
      vertex -0.728969 -0.684546 -0.684546
    endloop
  endfacet
  facet normal -0.707107 -0.707107 0
    outer loop
      vertex -0.728969 -0.684546 0.684546
      vertex -0.684546 -0.728969 -0.728969
      vertex -0.684546 -0.728969 0.728969
    endloop
  endfacet
  facet normal -0.661307 -0.750115 0
    outer loop
      vertex -0.684546 -0.728969 -0.728969
      vertex -0.637424 -0.770513 0.770513
      vertex -0.684546 -0.728969 0.728969
    endloop
  endfacet
  facet normal -0.661307 -0.750115 -0
    outer loop
      vertex -0.637424 -0.770513 0.770513
      vertex -0.684546 -0.728969 -0.728969
      vertex -0.637424 -0.770513 -0.770513
    endloop
  endfacet
  facet normal -0.453977 -0.891013 0
    outer loop
      vertex -0.481753 -0.876307 -0.876307
      vertex -0.425778 -0.904826 0.904826
      vertex -0.481753 -0.876307 0.876307
    endloop
  endfacet
  facet normal -0.453977 -0.891013 -0
    outer loop
      vertex -0.425778 -0.904826 0.904826
      vertex -0.481753 -0.876307 -0.876307
      vertex -0.425778 -0.904826 -0.904826
    endloop
  endfacet
  facet normal -0.218131 -0.975919 0
    outer loop
      vertex -0.24869 -0.968583 -0.968583
      vertex -0.187381 -0.982286 0.982286
      vertex -0.24869 -0.968583 0.968583
    endloop
  endfacet
  facet normal -0.218131 -0.975919 -0
    outer loop
      vertex -0.187381 -0.982286 0.982286
      vertex -0.24869 -0.968583 -0.968583
      vertex -0.187381 -0.982286 -0.982286
    endloop
  endfacet
  facet normal -0.33874 -0.94088 0
    outer loop
      vertex -0.368124 -0.929776 -0.929776
      vertex -0.309016 -0.951056 0.951056
      vertex -0.368124 -0.929776 0.929776
    endloop
  endfacet
  facet normal -0.33874 -0.94088 -0
    outer loop
      vertex -0.309016 -0.951056 0.951056
      vertex -0.368124 -0.929776 -0.929776
      vertex -0.309016 -0.951056 -0.951056
    endloop
  endfacet
  facet normal -0.278993 -0.960293 0
    outer loop
      vertex -0.309016 -0.951056 -0.951056
      vertex -0.24869 -0.968583 0.968583
      vertex -0.309016 -0.951056 0.951056
    endloop
  endfacet
  facet normal -0.278993 -0.960293 -0
    outer loop
      vertex -0.24869 -0.968583 0.968583
      vertex -0.309016 -0.951056 -0.951056
      vertex -0.24869 -0.968583 -0.968583
    endloop
  endfacet
  facet normal -0.0941049 -0.995562 0
    outer loop
      vertex -0.125333 -0.992114 -0.992114
      vertex -0.0627899 -0.998026 0.998026
      vertex -0.125333 -0.992114 0.992114
    endloop
  endfacet
  facet normal -0.0941049 -0.995562 -0
    outer loop
      vertex -0.0627899 -0.998026 0.998026
      vertex -0.125333 -0.992114 -0.992114
      vertex -0.0627899 -0.998026 -0.998026
    endloop
  endfacet
  facet normal -0.750115 -0.661307 0
    outer loop
      vertex -0.728969 -0.684546 -0.684546
      vertex -0.770513 -0.637424 0.637424
      vertex -0.770513 -0.637424 -0.637424
    endloop
  endfacet
  facet normal -0.750115 -0.661307 0
    outer loop
      vertex -0.770513 -0.637424 0.637424
      vertex -0.728969 -0.684546 -0.684546
      vertex -0.728969 -0.684546 0.684546
    endloop
  endfacet
  facet normal -0.91775 -0.397158 0
    outer loop
      vertex -0.904826 -0.425778 -0.425778
      vertex -0.929776 -0.368124 0.368124
      vertex -0.929776 -0.368124 -0.368124
    endloop
  endfacet
  facet normal -0.91775 -0.397158 0
    outer loop
      vertex -0.929776 -0.368124 0.368124
      vertex -0.904826 -0.425778 -0.425778
      vertex -0.904826 -0.425778 0.425778
    endloop
  endfacet
  facet normal -0.891013 -0.453977 0
    outer loop
      vertex -0.876307 -0.481753 -0.481753
      vertex -0.904826 -0.425778 0.425778
      vertex -0.904826 -0.425778 -0.425778
    endloop
  endfacet
  facet normal -0.891013 -0.453977 0
    outer loop
      vertex -0.904826 -0.425778 0.425778
      vertex -0.876307 -0.481753 -0.481753
      vertex -0.876307 -0.481753 0.481753
    endloop
  endfacet
  facet normal -0.94088 -0.33874 0
    outer loop
      vertex -0.929776 -0.368124 -0.368124
      vertex -0.951056 -0.309016 0.309016
      vertex -0.951056 -0.309016 -0.309016
    endloop
  endfacet
  facet normal -0.94088 -0.33874 0
    outer loop
      vertex -0.951056 -0.309016 0.309016
      vertex -0.929776 -0.368124 -0.368124
      vertex -0.929776 -0.368124 0.368124
    endloop
  endfacet
  facet normal -0.987688 -0.156437 0
    outer loop
      vertex -0.982286 -0.187381 -0.187381
      vertex -0.992114 -0.125333 0.125333
      vertex -0.992114 -0.125333 -0.125333
    endloop
  endfacet
  facet normal -0.987688 -0.156437 0
    outer loop
      vertex -0.992114 -0.125333 0.125333
      vertex -0.982286 -0.187381 -0.187381
      vertex -0.982286 -0.187381 0.187381
    endloop
  endfacet
  facet normal -0.999506 -0.0314243 -0
    outer loop
      vertex -0.998026 -0.0627899 0.0627899
      vertex -1 0 0
      vertex -0.998026 -0.0627899 -0.0627899
    endloop
  endfacet
  facet normal 0.860737 0.509049 0
    outer loop
      vertex 0.876307 0.481753 0.481753
      vertex 0.844327 0.535827 -0.535827
      vertex 0.844327 0.535827 0.535827
    endloop
  endfacet
  facet normal 0.860737 0.509049 0
    outer loop
      vertex 0.844327 0.535827 -0.535827
      vertex 0.876307 0.481753 0.481753
      vertex 0.876307 0.481753 -0.481753
    endloop
  endfacet
  facet normal 0.453977 0.891013 -0
    outer loop
      vertex 0.481753 0.876307 -0.876307
      vertex 0.425778 0.904826 0.904826
      vertex 0.481753 0.876307 0.876307
    endloop
  endfacet
  facet normal 0.453977 0.891013 0
    outer loop
      vertex 0.425778 0.904826 0.904826
      vertex 0.481753 0.876307 -0.876307
      vertex 0.425778 0.904826 -0.904826
    endloop
  endfacet
  facet normal -0.891013 0.453977 0
    outer loop
      vertex -0.904826 0.425778 -0.425778
      vertex -0.876307 0.481753 0.481753
      vertex -0.876307 0.481753 -0.481753
    endloop
  endfacet
  facet normal -0.891013 0.453977 0
    outer loop
      vertex -0.876307 0.481753 0.481753
      vertex -0.904826 0.425778 -0.425778
      vertex -0.904826 0.425778 0.425778
    endloop
  endfacet
  facet normal -0.612906 0.790156 0
    outer loop
      vertex -0.587785 0.809016 0.809016
      vertex -0.637424 0.770513 -0.770513
      vertex -0.637424 0.770513 0.770513
    endloop
  endfacet
  facet normal -0.612906 0.790156 0
    outer loop
      vertex -0.637424 0.770513 -0.770513
      vertex -0.587785 0.809016 0.809016
      vertex -0.587785 0.809016 -0.809016
    endloop
  endfacet
  facet normal -0.278993 0.960293 0
    outer loop
      vertex -0.24869 0.968583 0.968583
      vertex -0.309016 0.951056 -0.951056
      vertex -0.309016 0.951056 0.951056
    endloop
  endfacet
  facet normal -0.278993 0.960293 0
    outer loop
      vertex -0.309016 0.951056 -0.951056
      vertex -0.24869 0.968583 0.968583
      vertex -0.24869 0.968583 -0.968583
    endloop
  endfacet
  facet normal 0.0941049 -0.995562 0
    outer loop
      vertex 0.0627899 -0.998026 0.998026
      vertex 0.125333 -0.992114 -0.992114
      vertex 0.125333 -0.992114 0.992114
    endloop
  endfacet
  facet normal 0.0941049 -0.995562 0
    outer loop
      vertex 0.125333 -0.992114 -0.992114
      vertex 0.0627899 -0.998026 0.998026
      vertex 0.0627899 -0.998026 -0.998026
    endloop
  endfacet
  facet normal 0.860737 -0.509049 0
    outer loop
      vertex 0.844327 -0.535827 0.535827
      vertex 0.876307 -0.481753 -0.481753
      vertex 0.876307 -0.481753 0.481753
    endloop
  endfacet
  facet normal 0.860737 -0.509049 0
    outer loop
      vertex 0.876307 -0.481753 -0.481753
      vertex 0.844327 -0.535827 0.535827
      vertex 0.844327 -0.535827 -0.535827
    endloop
  endfacet
  facet normal 0.975919 -0.218131 0
    outer loop
      vertex 0.968583 -0.24869 0.24869
      vertex 0.982286 -0.187381 -0.187381
      vertex 0.982286 -0.187381 0.187381
    endloop
  endfacet
  facet normal 0.975919 -0.218131 0
    outer loop
      vertex 0.982286 -0.187381 -0.187381
      vertex 0.968583 -0.24869 0.24869
      vertex 0.968583 -0.24869 -0.24869
    endloop
  endfacet
  facet normal -0.562084 -0.82708 0
    outer loop
      vertex -0.587785 -0.809016 -0.809016
      vertex -0.535827 -0.844327 0.844327
      vertex -0.587785 -0.809016 0.809016
    endloop
  endfacet
  facet normal -0.562084 -0.82708 -0
    outer loop
      vertex -0.535827 -0.844327 0.844327
      vertex -0.587785 -0.809016 -0.809016
      vertex -0.535827 -0.844327 -0.844327
    endloop
  endfacet
  facet normal -0.995562 -0.0941049 0
    outer loop
      vertex -0.992114 -0.125333 -0.125333
      vertex -0.998026 -0.0627899 0.0627899
      vertex -0.998026 -0.0627899 -0.0627899
    endloop
  endfacet
  facet normal -0.995562 -0.0941049 0
    outer loop
      vertex -0.998026 -0.0627899 0.0627899
      vertex -0.992114 -0.125333 -0.125333
      vertex -0.992114 -0.125333 0.125333
    endloop
  endfacet
  facet normal 0.999506 0 0.0314243
    outer loop
      vertex 0.998026 0.0627899 0.0627899
      vertex 0.998026 -0.0627899 0.0627899
      vertex 1 0 0
    endloop
  endfacet
  facet normal -0.0314234 0 0.999506
    outer loop
      vertex -0.0627899 -0.998026 0.998026
      vertex -0.0470692 0.99852 0.99852
      vertex -0.0627899 0.998026 0.998026
    endloop
  endfacet
  facet normal -0.0314244 8.44585e-009 0.999506
    outer loop
      vertex -0.0470692 0.99852 0.99852
      vertex -0.0627899 -0.998026 0.998026
      vertex -0.0157052 -0.999506 0.999506
    endloop
  endfacet
  facet normal 0.509049 0 -0.860737
    outer loop
      vertex 0.481753 -0.876307 -0.876307
      vertex 0.535827 0.844327 -0.844327
      vertex 0.535827 -0.844327 -0.844327
    endloop
  endfacet
  facet normal 0.509049 0 -0.860737
    outer loop
      vertex 0.535827 0.844327 -0.844327
      vertex 0.481753 -0.876307 -0.876307
      vertex 0.481753 0.876307 -0.876307
    endloop
  endfacet
  facet normal 0.612906 0 0.790156
    outer loop
      vertex 0.587785 0.809016 0.809016
      vertex 0.637424 -0.770513 0.770513
      vertex 0.637424 0.770513 0.770513
    endloop
  endfacet
  facet normal 0.612906 0 0.790156
    outer loop
      vertex 0.637424 -0.770513 0.770513
      vertex 0.587785 0.809016 0.809016
      vertex 0.587785 -0.809016 0.809016
    endloop
  endfacet
  facet normal 0.860737 0 0.509049
    outer loop
      vertex 0.844327 0.535827 0.535827
      vertex 0.876307 -0.481753 0.481753
      vertex 0.876307 0.481753 0.481753
    endloop
  endfacet
  facet normal 0.860737 0 0.509049
    outer loop
      vertex 0.876307 -0.481753 0.481753
      vertex 0.844327 0.535827 0.535827
      vertex 0.844327 -0.535827 0.535827
    endloop
  endfacet
  facet normal -0.707107 0 -0.707107
    outer loop
      vertex -0.684546 0.728969 -0.728969
      vertex -0.728969 -0.684546 -0.684546
      vertex -0.728969 0.684546 -0.684546
    endloop
  endfacet
  facet normal -0.707107 0 -0.707107
    outer loop
      vertex -0.728969 -0.684546 -0.684546
      vertex -0.684546 0.728969 -0.728969
      vertex -0.684546 -0.728969 -0.728969
    endloop
  endfacet
  facet normal -0.397158 0 0.91775
    outer loop
      vertex -0.425778 0.904826 0.904826
      vertex -0.368124 -0.929776 0.929776
      vertex -0.368124 0.929776 0.929776
    endloop
  endfacet
  facet normal -0.397158 0 0.91775
    outer loop
      vertex -0.368124 -0.929776 0.929776
      vertex -0.425778 0.904826 0.904826
      vertex -0.425778 -0.904826 0.904826
    endloop
  endfacet
  facet normal -0.860737 0 0.509049
    outer loop
      vertex -0.876307 -0.481753 0.481753
      vertex -0.844327 0.535827 0.535827
      vertex -0.876307 0.481753 0.481753
    endloop
  endfacet
  facet normal -0.860737 0 0.509049
    outer loop
      vertex -0.844327 0.535827 0.535827
      vertex -0.876307 -0.481753 0.481753
      vertex -0.844327 -0.535827 0.535827
    endloop
  endfacet
  facet normal -0.860737 0 -0.509049
    outer loop
      vertex -0.844327 0.535827 -0.535827
      vertex -0.876307 -0.481753 -0.481753
      vertex -0.876307 0.481753 -0.481753
    endloop
  endfacet
  facet normal -0.860737 0 -0.509049
    outer loop
      vertex -0.876307 -0.481753 -0.481753
      vertex -0.844327 0.535827 -0.535827
      vertex -0.844327 -0.535827 -0.535827
    endloop
  endfacet
  facet normal -0.987688 0 -0.156437
    outer loop
      vertex -0.982286 0.187381 -0.187381
      vertex -0.992114 -0.125333 -0.125333
      vertex -0.992114 0.125333 -0.125333
    endloop
  endfacet
  facet normal -0.987688 0 -0.156437
    outer loop
      vertex -0.992114 -0.125333 -0.125333
      vertex -0.982286 0.187381 -0.187381
      vertex -0.982286 -0.187381 -0.187381
    endloop
  endfacet
  facet normal 0.960293 0 -0.278993
    outer loop
      vertex 0.968583 -0.24869 -0.24869
      vertex 0.951056 0.309016 -0.309016
      vertex 0.968583 0.24869 -0.24869
    endloop
  endfacet
  facet normal 0.960293 0 -0.278993
    outer loop
      vertex 0.951056 0.309016 -0.309016
      vertex 0.968583 -0.24869 -0.24869
      vertex 0.951056 -0.309016 -0.309016
    endloop
  endfacet
  facet normal 0.156437 0 0.987688
    outer loop
      vertex 0.125333 0.992114 0.992114
      vertex 0.187381 -0.982286 0.982286
      vertex 0.187381 0.982286 0.982286
    endloop
  endfacet
  facet normal 0.156437 0 0.987688
    outer loop
      vertex 0.187381 -0.982286 0.982286
      vertex 0.125333 0.992114 0.992114
      vertex 0.125333 -0.992114 0.992114
    endloop
  endfacet
  facet normal 0.707107 0 0.707107
    outer loop
      vertex 0.684546 0.728969 0.728969
      vertex 0.728969 -0.684546 0.684546
      vertex 0.728969 0.684546 0.684546
    endloop
  endfacet
  facet normal 0.707107 0 0.707107
    outer loop
      vertex 0.728969 -0.684546 0.684546
      vertex 0.684546 0.728969 0.728969
      vertex 0.684546 -0.728969 0.728969
    endloop
  endfacet
  facet normal 0.82708 0 0.562084
    outer loop
      vertex 0.809016 0.587785 0.587785
      vertex 0.844327 -0.535827 0.535827
      vertex 0.844327 0.535827 0.535827
    endloop
  endfacet
  facet normal 0.82708 0 0.562084
    outer loop
      vertex 0.844327 -0.535827 0.535827
      vertex 0.809016 0.587785 0.587785
      vertex 0.809016 -0.587785 0.587785
    endloop
  endfacet
  facet normal 0.750115 0 0.661307
    outer loop
      vertex 0.728969 0.684546 0.684546
      vertex 0.770513 -0.637424 0.637424
      vertex 0.770513 0.637424 0.637424
    endloop
  endfacet
  facet normal 0.750115 0 0.661307
    outer loop
      vertex 0.770513 -0.637424 0.637424
      vertex 0.728969 0.684546 0.684546
      vertex 0.728969 -0.684546 0.684546
    endloop
  endfacet
  facet normal -0.156437 0 0.987688
    outer loop
      vertex -0.187381 0.982286 0.982286
      vertex -0.125333 -0.992114 0.992114
      vertex -0.125333 0.992114 0.992114
    endloop
  endfacet
  facet normal -0.156437 0 0.987688
    outer loop
      vertex -0.125333 -0.992114 0.992114
      vertex -0.187381 0.982286 0.982286
      vertex -0.187381 -0.982286 0.982286
    endloop
  endfacet
  facet normal -0.0941049 0 0.995562
    outer loop
      vertex -0.125333 0.992114 0.992114
      vertex -0.0627899 -0.998026 0.998026
      vertex -0.0627899 0.998026 0.998026
    endloop
  endfacet
  facet normal -0.0941049 0 0.995562
    outer loop
      vertex -0.0627899 -0.998026 0.998026
      vertex -0.125333 0.992114 0.992114
      vertex -0.125333 -0.992114 0.992114
    endloop
  endfacet
  facet normal -0.218131 0 0.975919
    outer loop
      vertex -0.24869 0.968583 0.968583
      vertex -0.187381 -0.982286 0.982286
      vertex -0.187381 0.982286 0.982286
    endloop
  endfacet
  facet normal -0.218131 0 0.975919
    outer loop
      vertex -0.187381 -0.982286 0.982286
      vertex -0.24869 0.968583 0.968583
      vertex -0.24869 -0.968583 0.968583
    endloop
  endfacet
  facet normal -0.278993 0 0.960293
    outer loop
      vertex -0.309016 0.951056 0.951056
      vertex -0.24869 -0.968583 0.968583
      vertex -0.24869 0.968583 0.968583
    endloop
  endfacet
  facet normal -0.278993 0 0.960293
    outer loop
      vertex -0.24869 -0.968583 0.968583
      vertex -0.309016 0.951056 0.951056
      vertex -0.309016 -0.951056 0.951056
    endloop
  endfacet
  facet normal -0.94088 0 0.33874
    outer loop
      vertex -0.951056 -0.309016 0.309016
      vertex -0.929776 0.368124 0.368124
      vertex -0.951056 0.309016 0.309016
    endloop
  endfacet
  facet normal -0.94088 0 0.33874
    outer loop
      vertex -0.929776 0.368124 0.368124
      vertex -0.951056 -0.309016 0.309016
      vertex -0.929776 -0.368124 0.368124
    endloop
  endfacet
  facet normal -0.790156 0 0.612906
    outer loop
      vertex -0.809016 -0.587785 0.587785
      vertex -0.770513 0.637424 0.637424
      vertex -0.809016 0.587785 0.587785
    endloop
  endfacet
  facet normal -0.790156 0 0.612906
    outer loop
      vertex -0.770513 0.637424 0.637424
      vertex -0.809016 -0.587785 0.587785
      vertex -0.770513 -0.637424 0.637424
    endloop
  endfacet
  facet normal 0.0314234 0 -0.999506
    outer loop
      vertex 0.0470692 -0.99852 -0.99852
      vertex 0.0627899 0.998026 -0.998026
      vertex 0.0627899 -0.998026 -0.998026
    endloop
  endfacet
  facet normal 0.0314244 -8.44585e-009 -0.999506
    outer loop
      vertex 0.0627899 0.998026 -0.998026
      vertex 0.0470692 -0.99852 -0.99852
      vertex 0.0157052 0.999506 -0.999506
    endloop
  endfacet
  facet normal 0.397158 0 -0.91775
    outer loop
      vertex 0.368124 -0.929776 -0.929776
      vertex 0.425778 0.904826 -0.904826
      vertex 0.425778 -0.904826 -0.904826
    endloop
  endfacet
  facet normal 0.397158 0 -0.91775
    outer loop
      vertex 0.425778 0.904826 -0.904826
      vertex 0.368124 -0.929776 -0.929776
      vertex 0.368124 0.929776 -0.929776
    endloop
  endfacet
  facet normal 0.860737 0 -0.509049
    outer loop
      vertex 0.876307 -0.481753 -0.481753
      vertex 0.844327 0.535827 -0.535827
      vertex 0.876307 0.481753 -0.481753
    endloop
  endfacet
  facet normal 0.860737 0 -0.509049
    outer loop
      vertex 0.844327 0.535827 -0.535827
      vertex 0.876307 -0.481753 -0.481753
      vertex 0.844327 -0.535827 -0.535827
    endloop
  endfacet
  facet normal 0.987688 0 -0.156437
    outer loop
      vertex 0.992114 -0.125333 -0.125333
      vertex 0.982286 0.187381 -0.187381
      vertex 0.992114 0.125333 -0.125333
    endloop
  endfacet
  facet normal 0.987688 0 -0.156437
    outer loop
      vertex 0.982286 0.187381 -0.187381
      vertex 0.992114 -0.125333 -0.125333
      vertex 0.982286 -0.187381 -0.187381
    endloop
  endfacet
  facet normal 0.278993 0 0.960293
    outer loop
      vertex 0.24869 0.968583 0.968583
      vertex 0.309016 -0.951056 0.951056
      vertex 0.309016 0.951056 0.951056
    endloop
  endfacet
  facet normal 0.278993 0 0.960293
    outer loop
      vertex 0.309016 -0.951056 0.951056
      vertex 0.24869 0.968583 0.968583
      vertex 0.24869 -0.968583 0.968583
    endloop
  endfacet
  facet normal 0.0314095 2.43295e-007 0.999507
    outer loop
      vertex 0 1 0.999999
      vertex 0.0157052 -0.999506 0.999506
      vertex 0.0470692 0.99852 0.99852
    endloop
  endfacet
  facet normal 0.0314088 2.38301e-007 0.999507
    outer loop
      vertex 0.0157052 -0.999506 0.999506
      vertex 0 1 0.999999
      vertex 0 -1 1
    endloop
  endfacet
  facet normal 0.891013 0 0.453977
    outer loop
      vertex 0.876307 0.481753 0.481753
      vertex 0.904826 -0.425778 0.425778
      vertex 0.904826 0.425778 0.425778
    endloop
  endfacet
  facet normal 0.891013 0 0.453977
    outer loop
      vertex 0.904826 -0.425778 0.425778
      vertex 0.876307 0.481753 0.481753
      vertex 0.876307 -0.481753 0.481753
    endloop
  endfacet
  facet normal -0.707107 0 0.707107
    outer loop
      vertex -0.728969 -0.684546 0.684546
      vertex -0.684546 0.728969 0.728969
      vertex -0.728969 0.684546 0.684546
    endloop
  endfacet
  facet normal -0.707107 0 0.707107
    outer loop
      vertex -0.684546 0.728969 0.728969
      vertex -0.728969 -0.684546 0.684546
      vertex -0.684546 -0.728969 0.728969
    endloop
  endfacet
  facet normal -0.453977 0 0.891013
    outer loop
      vertex -0.481753 0.876307 0.876307
      vertex -0.425778 -0.904826 0.904826
      vertex -0.425778 0.904826 0.904826
    endloop
  endfacet
  facet normal -0.453977 0 0.891013
    outer loop
      vertex -0.425778 -0.904826 0.904826
      vertex -0.481753 0.876307 0.876307
      vertex -0.481753 -0.876307 0.876307
    endloop
  endfacet
  facet normal 0.960293 0 0.278993
    outer loop
      vertex 0.951056 0.309016 0.309016
      vertex 0.968583 -0.24869 0.24869
      vertex 0.968583 0.24869 0.24869
    endloop
  endfacet
  facet normal 0.960293 0 0.278993
    outer loop
      vertex 0.968583 -0.24869 0.24869
      vertex 0.951056 0.309016 0.309016
      vertex 0.951056 -0.309016 0.309016
    endloop
  endfacet
  facet normal 0.995562 0 0.0941049
    outer loop
      vertex 0.992114 0.125333 0.125333
      vertex 0.998026 -0.0627899 0.0627899
      vertex 0.998026 0.0627899 0.0627899
    endloop
  endfacet
  facet normal 0.995562 0 0.0941049
    outer loop
      vertex 0.998026 -0.0627899 0.0627899
      vertex 0.992114 0.125333 0.125333
      vertex 0.992114 -0.125333 0.125333
    endloop
  endfacet
  facet normal -0.999506 0 0.0314243
    outer loop
      vertex -0.998026 0.0627899 0.0627899
      vertex -1 0 0
      vertex -0.998026 -0.0627899 0.0627899
    endloop
  endfacet
  facet normal -0.91775 0 0.397158
    outer loop
      vertex -0.929776 -0.368124 0.368124
      vertex -0.904826 0.425778 0.425778
      vertex -0.929776 0.368124 0.368124
    endloop
  endfacet
  facet normal -0.91775 0 0.397158
    outer loop
      vertex -0.904826 0.425778 0.425778
      vertex -0.929776 -0.368124 0.368124
      vertex -0.904826 -0.425778 0.425778
    endloop
  endfacet
  facet normal -0.960293 0 0.278993
    outer loop
      vertex -0.968583 -0.24869 0.24869
      vertex -0.951056 0.309016 0.309016
      vertex -0.968583 0.24869 0.24869
    endloop
  endfacet
  facet normal -0.960293 0 0.278993
    outer loop
      vertex -0.951056 0.309016 0.309016
      vertex -0.968583 -0.24869 0.24869
      vertex -0.951056 -0.309016 0.309016
    endloop
  endfacet
  facet normal -0.562084 0 -0.82708
    outer loop
      vertex -0.587785 -0.809016 -0.809016
      vertex -0.535827 0.844327 -0.844327
      vertex -0.535827 -0.844327 -0.844327
    endloop
  endfacet
  facet normal -0.562084 0 -0.82708
    outer loop
      vertex -0.535827 0.844327 -0.844327
      vertex -0.587785 -0.809016 -0.809016
      vertex -0.587785 0.809016 -0.809016
    endloop
  endfacet
  facet normal -0.891013 0 -0.453977
    outer loop
      vertex -0.876307 0.481753 -0.481753
      vertex -0.904826 -0.425778 -0.425778
      vertex -0.904826 0.425778 -0.425778
    endloop
  endfacet
  facet normal -0.891013 0 -0.453977
    outer loop
      vertex -0.904826 -0.425778 -0.425778
      vertex -0.876307 0.481753 -0.481753
      vertex -0.876307 -0.481753 -0.481753
    endloop
  endfacet
  facet normal -0.790156 0 -0.612906
    outer loop
      vertex -0.770513 0.637424 -0.637424
      vertex -0.809016 -0.587785 -0.587785
      vertex -0.809016 0.587785 -0.587785
    endloop
  endfacet
  facet normal -0.790156 0 -0.612906
    outer loop
      vertex -0.809016 -0.587785 -0.587785
      vertex -0.770513 0.637424 -0.637424
      vertex -0.770513 -0.637424 -0.637424
    endloop
  endfacet
  facet normal -0.750115 0 -0.661307
    outer loop
      vertex -0.728969 0.684546 -0.684546
      vertex -0.770513 -0.637424 -0.637424
      vertex -0.770513 0.637424 -0.637424
    endloop
  endfacet
  facet normal -0.750115 0 -0.661307
    outer loop
      vertex -0.770513 -0.637424 -0.637424
      vertex -0.728969 0.684546 -0.684546
      vertex -0.728969 -0.684546 -0.684546
    endloop
  endfacet
  facet normal -0.91775 0 -0.397158
    outer loop
      vertex -0.904826 0.425778 -0.425778
      vertex -0.929776 -0.368124 -0.368124
      vertex -0.929776 0.368124 -0.368124
    endloop
  endfacet
  facet normal -0.91775 0 -0.397158
    outer loop
      vertex -0.929776 -0.368124 -0.368124
      vertex -0.904826 0.425778 -0.425778
      vertex -0.904826 -0.425778 -0.425778
    endloop
  endfacet
  facet normal -0.94088 0 -0.33874
    outer loop
      vertex -0.929776 0.368124 -0.368124
      vertex -0.951056 -0.309016 -0.309016
      vertex -0.951056 0.309016 -0.309016
    endloop
  endfacet
  facet normal -0.94088 0 -0.33874
    outer loop
      vertex -0.951056 -0.309016 -0.309016
      vertex -0.929776 0.368124 -0.368124
      vertex -0.929776 -0.368124 -0.368124
    endloop
  endfacet
  facet normal -0.995562 0 -0.0941049
    outer loop
      vertex -0.992114 0.125333 -0.125333
      vertex -0.998026 -0.0627899 -0.0627899
      vertex -0.998026 0.0627899 -0.0627899
    endloop
  endfacet
  facet normal -0.995562 0 -0.0941049
    outer loop
      vertex -0.998026 -0.0627899 -0.0627899
      vertex -0.992114 0.125333 -0.125333
      vertex -0.992114 -0.125333 -0.125333
    endloop
  endfacet
  facet normal -0.999506 0 -0.0314243
    outer loop
      vertex -0.998026 -0.0627899 -0.0627899
      vertex -1 0 0
      vertex -0.998026 0.0627899 -0.0627899
    endloop
  endfacet
  facet normal -0.0314234 -0 -0.999506
    outer loop
      vertex -0.0627899 0.998026 -0.998026
      vertex -0.0470692 -0.99852 -0.99852
      vertex -0.0627899 -0.998026 -0.998026
    endloop
  endfacet
  facet normal -0.0314244 -8.44585e-009 -0.999506
    outer loop
      vertex -0.0470692 -0.99852 -0.99852
      vertex -0.0627899 0.998026 -0.998026
      vertex -0.0157052 0.999506 -0.999506
    endloop
  endfacet
  facet normal 0.661307 0 -0.750115
    outer loop
      vertex 0.637424 -0.770513 -0.770513
      vertex 0.684546 0.728969 -0.728969
      vertex 0.684546 -0.728969 -0.728969
    endloop
  endfacet
  facet normal 0.661307 0 -0.750115
    outer loop
      vertex 0.684546 0.728969 -0.728969
      vertex 0.637424 -0.770513 -0.770513
      vertex 0.637424 0.770513 -0.770513
    endloop
  endfacet
  facet normal 0.707107 0 -0.707107
    outer loop
      vertex 0.728969 -0.684546 -0.684546
      vertex 0.684546 0.728969 -0.728969
      vertex 0.728969 0.684546 -0.684546
    endloop
  endfacet
  facet normal 0.707107 0 -0.707107
    outer loop
      vertex 0.684546 0.728969 -0.728969
      vertex 0.728969 -0.684546 -0.684546
      vertex 0.684546 -0.728969 -0.728969
    endloop
  endfacet
  facet normal 0.82708 0 -0.562084
    outer loop
      vertex 0.844327 -0.535827 -0.535827
      vertex 0.809016 0.587785 -0.587785
      vertex 0.844327 0.535827 -0.535827
    endloop
  endfacet
  facet normal 0.82708 0 -0.562084
    outer loop
      vertex 0.809016 0.587785 -0.587785
      vertex 0.844327 -0.535827 -0.535827
      vertex 0.809016 -0.587785 -0.587785
    endloop
  endfacet
  facet normal 0.790156 0 -0.612906
    outer loop
      vertex 0.809016 -0.587785 -0.587785
      vertex 0.770513 0.637424 -0.637424
      vertex 0.809016 0.587785 -0.587785
    endloop
  endfacet
  facet normal 0.790156 0 -0.612906
    outer loop
      vertex 0.770513 0.637424 -0.637424
      vertex 0.809016 -0.587785 -0.587785
      vertex 0.770513 -0.637424 -0.637424
    endloop
  endfacet
  facet normal 0.0941049 0 -0.995562
    outer loop
      vertex 0.0627899 -0.998026 -0.998026
      vertex 0.125333 0.992114 -0.992114
      vertex 0.125333 -0.992114 -0.992114
    endloop
  endfacet
  facet normal 0.0941049 0 -0.995562
    outer loop
      vertex 0.125333 0.992114 -0.992114
      vertex 0.0627899 -0.998026 -0.998026
      vertex 0.0627899 0.998026 -0.998026
    endloop
  endfacet
  facet normal 0.94088 0 -0.33874
    outer loop
      vertex 0.951056 -0.309016 -0.309016
      vertex 0.929776 0.368124 -0.368124
      vertex 0.951056 0.309016 -0.309016
    endloop
  endfacet
  facet normal 0.94088 0 -0.33874
    outer loop
      vertex 0.929776 0.368124 -0.368124
      vertex 0.951056 -0.309016 -0.309016
      vertex 0.929776 -0.368124 -0.368124
    endloop
  endfacet
  facet normal 0.891013 0 -0.453977
    outer loop
      vertex 0.904826 -0.425778 -0.425778
      vertex 0.876307 0.481753 -0.481753
      vertex 0.904826 0.425778 -0.425778
    endloop
  endfacet
  facet normal 0.891013 0 -0.453977
    outer loop
      vertex 0.876307 0.481753 -0.481753
      vertex 0.904826 -0.425778 -0.425778
      vertex 0.876307 -0.481753 -0.481753
    endloop
  endfacet
  facet normal 0.397158 0 0.91775
    outer loop
      vertex 0.368124 0.929776 0.929776
      vertex 0.425778 -0.904826 0.904826
      vertex 0.425778 0.904826 0.904826
    endloop
  endfacet
  facet normal 0.397158 0 0.91775
    outer loop
      vertex 0.425778 -0.904826 0.904826
      vertex 0.368124 0.929776 0.929776
      vertex 0.368124 -0.929776 0.929776
    endloop
  endfacet
  facet normal 0.661307 0 0.750115
    outer loop
      vertex 0.637424 0.770513 0.770513
      vertex 0.684546 -0.728969 0.728969
      vertex 0.684546 0.728969 0.728969
    endloop
  endfacet
  facet normal 0.661307 0 0.750115
    outer loop
      vertex 0.684546 -0.728969 0.728969
      vertex 0.637424 0.770513 0.770513
      vertex 0.637424 -0.770513 0.770513
    endloop
  endfacet
  facet normal -0.0314088 2.38301e-007 0.999507
    outer loop
      vertex 0 1 0.999999
      vertex -0.0157052 -0.999506 0.999506
      vertex 0 -1 1
    endloop
  endfacet
  facet normal -0.0314095 2.43295e-007 0.999507
    outer loop
      vertex -0.0157052 -0.999506 0.999506
      vertex 0 1 0.999999
      vertex -0.0470692 0.99852 0.99852
    endloop
  endfacet
  facet normal 0.995562 0 -0.0941049
    outer loop
      vertex 0.998026 -0.0627899 -0.0627899
      vertex 0.992114 0.125333 -0.125333
      vertex 0.998026 0.0627899 -0.0627899
    endloop
  endfacet
  facet normal 0.995562 0 -0.0941049
    outer loop
      vertex 0.992114 0.125333 -0.125333
      vertex 0.998026 -0.0627899 -0.0627899
      vertex 0.992114 -0.125333 -0.125333
    endloop
  endfacet
  facet normal 0.999506 0 -0.0314243
    outer loop
      vertex 1 0 0
      vertex 0.998026 -0.0627899 -0.0627899
      vertex 0.998026 0.0627899 -0.0627899
    endloop
  endfacet
  facet normal -0.33874 0 0.94088
    outer loop
      vertex -0.368124 0.929776 0.929776
      vertex -0.309016 -0.951056 0.951056
      vertex -0.309016 0.951056 0.951056
    endloop
  endfacet
  facet normal -0.33874 0 0.94088
    outer loop
      vertex -0.309016 -0.951056 0.951056
      vertex -0.368124 0.929776 0.929776
      vertex -0.368124 -0.929776 0.929776
    endloop
  endfacet
  facet normal -0.509049 0 0.860737
    outer loop
      vertex -0.535827 0.844327 0.844327
      vertex -0.481753 -0.876307 0.876307
      vertex -0.481753 0.876307 0.876307
    endloop
  endfacet
  facet normal -0.509049 0 0.860737
    outer loop
      vertex -0.481753 -0.876307 0.876307
      vertex -0.535827 0.844327 0.844327
      vertex -0.535827 -0.844327 0.844327
    endloop
  endfacet
  facet normal 0.94088 0 0.33874
    outer loop
      vertex 0.929776 0.368124 0.368124
      vertex 0.951056 -0.309016 0.309016
      vertex 0.951056 0.309016 0.309016
    endloop
  endfacet
  facet normal 0.94088 0 0.33874
    outer loop
      vertex 0.951056 -0.309016 0.309016
      vertex 0.929776 0.368124 0.368124
      vertex 0.929776 -0.368124 0.368124
    endloop
  endfacet
  facet normal 0.91775 0 0.397158
    outer loop
      vertex 0.904826 0.425778 0.425778
      vertex 0.929776 -0.368124 0.368124
      vertex 0.929776 0.368124 0.368124
    endloop
  endfacet
  facet normal 0.91775 0 0.397158
    outer loop
      vertex 0.929776 -0.368124 0.368124
      vertex 0.904826 0.425778 0.425778
      vertex 0.904826 -0.425778 0.425778
    endloop
  endfacet
  facet normal 0.975919 0 0.218131
    outer loop
      vertex 0.968583 0.24869 0.24869
      vertex 0.982286 -0.187381 0.187381
      vertex 0.982286 0.187381 0.187381
    endloop
  endfacet
  facet normal 0.975919 0 0.218131
    outer loop
      vertex 0.982286 -0.187381 0.187381
      vertex 0.968583 0.24869 0.24869
      vertex 0.968583 -0.24869 0.24869
    endloop
  endfacet
  facet normal 0.987688 0 0.156437
    outer loop
      vertex 0.982286 0.187381 0.187381
      vertex 0.992114 -0.125333 0.125333
      vertex 0.992114 0.125333 0.125333
    endloop
  endfacet
  facet normal 0.987688 0 0.156437
    outer loop
      vertex 0.992114 -0.125333 0.125333
      vertex 0.982286 0.187381 0.187381
      vertex 0.982286 -0.187381 0.187381
    endloop
  endfacet
  facet normal -0.891013 0 0.453977
    outer loop
      vertex -0.904826 -0.425778 0.425778
      vertex -0.876307 0.481753 0.481753
      vertex -0.904826 0.425778 0.425778
    endloop
  endfacet
  facet normal -0.891013 0 0.453977
    outer loop
      vertex -0.876307 0.481753 0.481753
      vertex -0.904826 -0.425778 0.425778
      vertex -0.876307 -0.481753 0.481753
    endloop
  endfacet
  facet normal -0.995562 0 0.0941049
    outer loop
      vertex -0.998026 -0.0627899 0.0627899
      vertex -0.992114 0.125333 0.125333
      vertex -0.998026 0.0627899 0.0627899
    endloop
  endfacet
  facet normal -0.995562 0 0.0941049
    outer loop
      vertex -0.992114 0.125333 0.125333
      vertex -0.998026 -0.0627899 0.0627899
      vertex -0.992114 -0.125333 0.125333
    endloop
  endfacet
  facet normal -0.661307 0 -0.750115
    outer loop
      vertex -0.684546 -0.728969 -0.728969
      vertex -0.637424 0.770513 -0.770513
      vertex -0.637424 -0.770513 -0.770513
    endloop
  endfacet
  facet normal -0.661307 0 -0.750115
    outer loop
      vertex -0.637424 0.770513 -0.770513
      vertex -0.684546 -0.728969 -0.728969
      vertex -0.684546 0.728969 -0.728969
    endloop
  endfacet
  facet normal -0.612906 0 -0.790156
    outer loop
      vertex -0.637424 -0.770513 -0.770513
      vertex -0.587785 0.809016 -0.809016
      vertex -0.587785 -0.809016 -0.809016
    endloop
  endfacet
  facet normal -0.612906 0 -0.790156
    outer loop
      vertex -0.587785 0.809016 -0.809016
      vertex -0.637424 -0.770513 -0.770513
      vertex -0.637424 0.770513 -0.770513
    endloop
  endfacet
  facet normal -0.397158 0 -0.91775
    outer loop
      vertex -0.425778 -0.904826 -0.904826
      vertex -0.368124 0.929776 -0.929776
      vertex -0.368124 -0.929776 -0.929776
    endloop
  endfacet
  facet normal -0.397158 0 -0.91775
    outer loop
      vertex -0.368124 0.929776 -0.929776
      vertex -0.425778 -0.904826 -0.904826
      vertex -0.425778 0.904826 -0.904826
    endloop
  endfacet
  facet normal -0.453977 0 -0.891013
    outer loop
      vertex -0.481753 -0.876307 -0.876307
      vertex -0.425778 0.904826 -0.904826
      vertex -0.425778 -0.904826 -0.904826
    endloop
  endfacet
  facet normal -0.453977 0 -0.891013
    outer loop
      vertex -0.425778 0.904826 -0.904826
      vertex -0.481753 -0.876307 -0.876307
      vertex -0.481753 0.876307 -0.876307
    endloop
  endfacet
  facet normal -0.82708 0 -0.562084
    outer loop
      vertex -0.809016 0.587785 -0.587785
      vertex -0.844327 -0.535827 -0.535827
      vertex -0.844327 0.535827 -0.535827
    endloop
  endfacet
  facet normal -0.82708 0 -0.562084
    outer loop
      vertex -0.844327 -0.535827 -0.535827
      vertex -0.809016 0.587785 -0.587785
      vertex -0.809016 -0.587785 -0.587785
    endloop
  endfacet
  facet normal -0.975919 0 -0.218131
    outer loop
      vertex -0.968583 0.24869 -0.24869
      vertex -0.982286 -0.187381 -0.187381
      vertex -0.982286 0.187381 -0.187381
    endloop
  endfacet
  facet normal -0.975919 0 -0.218131
    outer loop
      vertex -0.982286 -0.187381 -0.187381
      vertex -0.968583 0.24869 -0.24869
      vertex -0.968583 -0.24869 -0.24869
    endloop
  endfacet
  facet normal -0.960293 0 -0.278993
    outer loop
      vertex -0.951056 0.309016 -0.309016
      vertex -0.968583 -0.24869 -0.24869
      vertex -0.968583 0.24869 -0.24869
    endloop
  endfacet
  facet normal -0.960293 0 -0.278993
    outer loop
      vertex -0.968583 -0.24869 -0.24869
      vertex -0.951056 0.309016 -0.309016
      vertex -0.951056 -0.309016 -0.309016
    endloop
  endfacet
  facet normal 0.0314095 -2.43295e-007 -0.999507
    outer loop
      vertex 0 -1 -0.999999
      vertex 0.0157052 0.999506 -0.999506
      vertex 0.0470692 -0.99852 -0.99852
    endloop
  endfacet
  facet normal 0.0314088 -2.38301e-007 -0.999507
    outer loop
      vertex 0.0157052 0.999506 -0.999506
      vertex 0 -1 -0.999999
      vertex 0 1 -1
    endloop
  endfacet
  facet normal -0.156437 0 -0.987688
    outer loop
      vertex -0.187381 -0.982286 -0.982286
      vertex -0.125333 0.992114 -0.992114
      vertex -0.125333 -0.992114 -0.992114
    endloop
  endfacet
  facet normal -0.156437 0 -0.987688
    outer loop
      vertex -0.125333 0.992114 -0.992114
      vertex -0.187381 -0.982286 -0.982286
      vertex -0.187381 0.982286 -0.982286
    endloop
  endfacet
  facet normal -0.0941049 0 -0.995562
    outer loop
      vertex -0.125333 -0.992114 -0.992114
      vertex -0.0627899 0.998026 -0.998026
      vertex -0.0627899 -0.998026 -0.998026
    endloop
  endfacet
  facet normal -0.0941049 0 -0.995562
    outer loop
      vertex -0.0627899 0.998026 -0.998026
      vertex -0.125333 -0.992114 -0.992114
      vertex -0.125333 0.992114 -0.992114
    endloop
  endfacet
  facet normal -0.278993 0 -0.960293
    outer loop
      vertex -0.309016 -0.951056 -0.951056
      vertex -0.24869 0.968583 -0.968583
      vertex -0.24869 -0.968583 -0.968583
    endloop
  endfacet
  facet normal -0.278993 0 -0.960293
    outer loop
      vertex -0.24869 0.968583 -0.968583
      vertex -0.309016 -0.951056 -0.951056
      vertex -0.309016 0.951056 -0.951056
    endloop
  endfacet
  facet normal -0.33874 0 -0.94088
    outer loop
      vertex -0.368124 -0.929776 -0.929776
      vertex -0.309016 0.951056 -0.951056
      vertex -0.309016 -0.951056 -0.951056
    endloop
  endfacet
  facet normal -0.33874 0 -0.94088
    outer loop
      vertex -0.309016 0.951056 -0.951056
      vertex -0.368124 -0.929776 -0.929776
      vertex -0.368124 0.929776 -0.929776
    endloop
  endfacet
  facet normal 0.453977 0 -0.891013
    outer loop
      vertex 0.425778 -0.904826 -0.904826
      vertex 0.481753 0.876307 -0.876307
      vertex 0.481753 -0.876307 -0.876307
    endloop
  endfacet
  facet normal 0.453977 0 -0.891013
    outer loop
      vertex 0.481753 0.876307 -0.876307
      vertex 0.425778 -0.904826 -0.904826
      vertex 0.425778 0.904826 -0.904826
    endloop
  endfacet
  facet normal 0.612906 0 -0.790156
    outer loop
      vertex 0.587785 -0.809016 -0.809016
      vertex 0.637424 0.770513 -0.770513
      vertex 0.637424 -0.770513 -0.770513
    endloop
  endfacet
  facet normal 0.612906 0 -0.790156
    outer loop
      vertex 0.637424 0.770513 -0.770513
      vertex 0.587785 -0.809016 -0.809016
      vertex 0.587785 0.809016 -0.809016
    endloop
  endfacet
  facet normal 0.750115 0 -0.661307
    outer loop
      vertex 0.770513 -0.637424 -0.637424
      vertex 0.728969 0.684546 -0.684546
      vertex 0.770513 0.637424 -0.637424
    endloop
  endfacet
  facet normal 0.750115 0 -0.661307
    outer loop
      vertex 0.728969 0.684546 -0.684546
      vertex 0.770513 -0.637424 -0.637424
      vertex 0.728969 -0.684546 -0.684546
    endloop
  endfacet
  facet normal 0.156437 0 -0.987688
    outer loop
      vertex 0.125333 -0.992114 -0.992114
      vertex 0.187381 0.982286 -0.982286
      vertex 0.187381 -0.982286 -0.982286
    endloop
  endfacet
  facet normal 0.156437 0 -0.987688
    outer loop
      vertex 0.187381 0.982286 -0.982286
      vertex 0.125333 -0.992114 -0.992114
      vertex 0.125333 0.992114 -0.992114
    endloop
  endfacet
  facet normal 0.218131 0 -0.975919
    outer loop
      vertex 0.187381 -0.982286 -0.982286
      vertex 0.24869 0.968583 -0.968583
      vertex 0.24869 -0.968583 -0.968583
    endloop
  endfacet
  facet normal 0.218131 0 -0.975919
    outer loop
      vertex 0.24869 0.968583 -0.968583
      vertex 0.187381 -0.982286 -0.982286
      vertex 0.187381 0.982286 -0.982286
    endloop
  endfacet
  facet normal 0.278993 0 -0.960293
    outer loop
      vertex 0.24869 -0.968583 -0.968583
      vertex 0.309016 0.951056 -0.951056
      vertex 0.309016 -0.951056 -0.951056
    endloop
  endfacet
  facet normal 0.278993 0 -0.960293
    outer loop
      vertex 0.309016 0.951056 -0.951056
      vertex 0.24869 -0.968583 -0.968583
      vertex 0.24869 0.968583 -0.968583
    endloop
  endfacet
  facet normal 0.33874 0 -0.94088
    outer loop
      vertex 0.309016 -0.951056 -0.951056
      vertex 0.368124 0.929776 -0.929776
      vertex 0.368124 -0.929776 -0.929776
    endloop
  endfacet
  facet normal 0.33874 0 -0.94088
    outer loop
      vertex 0.368124 0.929776 -0.929776
      vertex 0.309016 -0.951056 -0.951056
      vertex 0.309016 0.951056 -0.951056
    endloop
  endfacet
  facet normal 0.91775 0 -0.397158
    outer loop
      vertex 0.929776 -0.368124 -0.368124
      vertex 0.904826 0.425778 -0.425778
      vertex 0.929776 0.368124 -0.368124
    endloop
  endfacet
  facet normal 0.91775 0 -0.397158
    outer loop
      vertex 0.904826 0.425778 -0.425778
      vertex 0.929776 -0.368124 -0.368124
      vertex 0.904826 -0.425778 -0.425778
    endloop
  endfacet
  facet normal 0.975919 0 -0.218131
    outer loop
      vertex 0.982286 -0.187381 -0.187381
      vertex 0.968583 0.24869 -0.24869
      vertex 0.982286 0.187381 -0.187381
    endloop
  endfacet
  facet normal 0.975919 0 -0.218131
    outer loop
      vertex 0.968583 0.24869 -0.24869
      vertex 0.982286 -0.187381 -0.187381
      vertex 0.968583 -0.24869 -0.24869
    endloop
  endfacet
  facet normal 0.0941049 0 0.995562
    outer loop
      vertex 0.0627899 0.998026 0.998026
      vertex 0.125333 -0.992114 0.992114
      vertex 0.125333 0.992114 0.992114
    endloop
  endfacet
  facet normal 0.0941049 0 0.995562
    outer loop
      vertex 0.125333 -0.992114 0.992114
      vertex 0.0627899 0.998026 0.998026
      vertex 0.0627899 -0.998026 0.998026
    endloop
  endfacet
  facet normal 0.0314234 0 0.999506
    outer loop
      vertex 0.0470692 0.99852 0.99852
      vertex 0.0627899 -0.998026 0.998026
      vertex 0.0627899 0.998026 0.998026
    endloop
  endfacet
  facet normal 0.0314244 8.44585e-009 0.999506
    outer loop
      vertex 0.0627899 -0.998026 0.998026
      vertex 0.0470692 0.99852 0.99852
      vertex 0.0157052 -0.999506 0.999506
    endloop
  endfacet
  facet normal 0.33874 0 0.94088
    outer loop
      vertex 0.309016 0.951056 0.951056
      vertex 0.368124 -0.929776 0.929776
      vertex 0.368124 0.929776 0.929776
    endloop
  endfacet
  facet normal 0.33874 0 0.94088
    outer loop
      vertex 0.368124 -0.929776 0.929776
      vertex 0.309016 0.951056 0.951056
      vertex 0.309016 -0.951056 0.951056
    endloop
  endfacet
  facet normal 0.218131 0 0.975919
    outer loop
      vertex 0.187381 0.982286 0.982286
      vertex 0.24869 -0.968583 0.968583
      vertex 0.24869 0.968583 0.968583
    endloop
  endfacet
  facet normal 0.218131 0 0.975919
    outer loop
      vertex 0.24869 -0.968583 0.968583
      vertex 0.187381 0.982286 0.982286
      vertex 0.187381 -0.982286 0.982286
    endloop
  endfacet
  facet normal 0.509049 0 0.860737
    outer loop
      vertex 0.481753 0.876307 0.876307
      vertex 0.535827 -0.844327 0.844327
      vertex 0.535827 0.844327 0.844327
    endloop
  endfacet
  facet normal 0.509049 0 0.860737
    outer loop
      vertex 0.535827 -0.844327 0.844327
      vertex 0.481753 0.876307 0.876307
      vertex 0.481753 -0.876307 0.876307
    endloop
  endfacet
  facet normal 0.790156 0 0.612906
    outer loop
      vertex 0.770513 0.637424 0.637424
      vertex 0.809016 -0.587785 0.587785
      vertex 0.809016 0.587785 0.587785
    endloop
  endfacet
  facet normal 0.790156 0 0.612906
    outer loop
      vertex 0.809016 -0.587785 0.587785
      vertex 0.770513 0.637424 0.637424
      vertex 0.770513 -0.637424 0.637424
    endloop
  endfacet
  facet normal -0.750115 0 0.661307
    outer loop
      vertex -0.770513 -0.637424 0.637424
      vertex -0.728969 0.684546 0.684546
      vertex -0.770513 0.637424 0.637424
    endloop
  endfacet
  facet normal -0.750115 0 0.661307
    outer loop
      vertex -0.728969 0.684546 0.684546
      vertex -0.770513 -0.637424 0.637424
      vertex -0.728969 -0.684546 0.684546
    endloop
  endfacet
  facet normal -0.661307 0 0.750115
    outer loop
      vertex -0.684546 0.728969 0.728969
      vertex -0.637424 -0.770513 0.770513
      vertex -0.637424 0.770513 0.770513
    endloop
  endfacet
  facet normal -0.661307 0 0.750115
    outer loop
      vertex -0.637424 -0.770513 0.770513
      vertex -0.684546 0.728969 0.728969
      vertex -0.684546 -0.728969 0.728969
    endloop
  endfacet
  facet normal -0.612906 0 0.790156
    outer loop
      vertex -0.637424 0.770513 0.770513
      vertex -0.587785 -0.809016 0.809016
      vertex -0.587785 0.809016 0.809016
    endloop
  endfacet
  facet normal -0.612906 0 0.790156
    outer loop
      vertex -0.587785 -0.809016 0.809016
      vertex -0.637424 0.770513 0.770513
      vertex -0.637424 -0.770513 0.770513
    endloop
  endfacet
  facet normal -0.562084 0 0.82708
    outer loop
      vertex -0.587785 0.809016 0.809016
      vertex -0.535827 -0.844327 0.844327
      vertex -0.535827 0.844327 0.844327
    endloop
  endfacet
  facet normal -0.562084 0 0.82708
    outer loop
      vertex -0.535827 -0.844327 0.844327
      vertex -0.587785 0.809016 0.809016
      vertex -0.587785 -0.809016 0.809016
    endloop
  endfacet
  facet normal -0.975919 0 0.218131
    outer loop
      vertex -0.982286 -0.187381 0.187381
      vertex -0.968583 0.24869 0.24869
      vertex -0.982286 0.187381 0.187381
    endloop
  endfacet
  facet normal -0.975919 0 0.218131
    outer loop
      vertex -0.968583 0.24869 0.24869
      vertex -0.982286 -0.187381 0.187381
      vertex -0.968583 -0.24869 0.24869
    endloop
  endfacet
  facet normal -0.987688 0 0.156437
    outer loop
      vertex -0.992114 -0.125333 0.125333
      vertex -0.982286 0.187381 0.187381
      vertex -0.992114 0.125333 0.125333
    endloop
  endfacet
  facet normal -0.987688 0 0.156437
    outer loop
      vertex -0.982286 0.187381 0.187381
      vertex -0.992114 -0.125333 0.125333
      vertex -0.982286 -0.187381 0.187381
    endloop
  endfacet
  facet normal -0.509049 0 -0.860737
    outer loop
      vertex -0.535827 -0.844327 -0.844327
      vertex -0.481753 0.876307 -0.876307
      vertex -0.481753 -0.876307 -0.876307
    endloop
  endfacet
  facet normal -0.509049 0 -0.860737
    outer loop
      vertex -0.481753 0.876307 -0.876307
      vertex -0.535827 -0.844327 -0.844327
      vertex -0.535827 0.844327 -0.844327
    endloop
  endfacet
  facet normal -0.0314088 -2.38301e-007 -0.999507
    outer loop
      vertex 0 -1 -0.999999
      vertex -0.0157052 0.999506 -0.999506
      vertex 0 1 -1
    endloop
  endfacet
  facet normal -0.0314095 -2.43295e-007 -0.999507
    outer loop
      vertex -0.0157052 0.999506 -0.999506
      vertex 0 -1 -0.999999
      vertex -0.0470692 -0.99852 -0.99852
    endloop
  endfacet
  facet normal -0.218131 0 -0.975919
    outer loop
      vertex -0.24869 -0.968583 -0.968583
      vertex -0.187381 0.982286 -0.982286
      vertex -0.187381 -0.982286 -0.982286
    endloop
  endfacet
  facet normal -0.218131 0 -0.975919
    outer loop
      vertex -0.187381 0.982286 -0.982286
      vertex -0.24869 -0.968583 -0.968583
      vertex -0.24869 0.968583 -0.968583
    endloop
  endfacet
  facet normal 0.562084 0 -0.82708
    outer loop
      vertex 0.535827 -0.844327 -0.844327
      vertex 0.587785 0.809016 -0.809016
      vertex 0.587785 -0.809016 -0.809016
    endloop
  endfacet
  facet normal 0.562084 0 -0.82708
    outer loop
      vertex 0.587785 0.809016 -0.809016
      vertex 0.535827 -0.844327 -0.844327
      vertex 0.535827 0.844327 -0.844327
    endloop
  endfacet
  facet normal 0.562084 0 0.82708
    outer loop
      vertex 0.535827 0.844327 0.844327
      vertex 0.587785 -0.809016 0.809016
      vertex 0.587785 0.809016 0.809016
    endloop
  endfacet
  facet normal 0.562084 0 0.82708
    outer loop
      vertex 0.587785 -0.809016 0.809016
      vertex 0.535827 0.844327 0.844327
      vertex 0.535827 -0.844327 0.844327
    endloop
  endfacet
  facet normal 0.453977 0 0.891013
    outer loop
      vertex 0.425778 0.904826 0.904826
      vertex 0.481753 -0.876307 0.876307
      vertex 0.481753 0.876307 0.876307
    endloop
  endfacet
  facet normal 0.453977 0 0.891013
    outer loop
      vertex 0.481753 -0.876307 0.876307
      vertex 0.425778 0.904826 0.904826
      vertex 0.425778 -0.904826 0.904826
    endloop
  endfacet
  facet normal -0.82708 0 0.562084
    outer loop
      vertex -0.844327 -0.535827 0.535827
      vertex -0.809016 0.587785 0.587785
      vertex -0.844327 0.535827 0.535827
    endloop
  endfacet
  facet normal -0.82708 0 0.562084
    outer loop
      vertex -0.809016 0.587785 0.587785
      vertex -0.844327 -0.535827 0.535827
      vertex -0.809016 -0.587785 0.587785
    endloop
  endfacet
endsolid OpenSCAD_Model
