solid OpenSCAD_Model
  facet normal -1 0 0
    outer loop
      vertex -9 -13 41
      vertex -9 -19 45
      vertex -9 5.42342e-031 45
    endloop
  endfacet
  facet normal -1 0 0
    outer loop
      vertex -9 -19 2.44249e-015
      vertex -9 -19 45
      vertex -9 -15.3759 10.4599
    endloop
  endfacet
  facet normal -1 0 0
    outer loop
      vertex -9 -19 2.44249e-015
      vertex -9 -15.3759 10.4599
      vertex -9 -15.3759 9.54008
    endloop
  endfacet
  facet normal -1 0 0
    outer loop
      vertex -9 -19 2.44249e-015
      vertex -9 -15.3759 9.54008
      vertex -9 -15.1846 8.64033
    endloop
  endfacet
  facet normal -1 0 0
    outer loop
      vertex -9 -19 2.44249e-015
      vertex -9 -15.1846 8.64033
      vertex -9 -14.8105 7.8
    endloop
  endfacet
  facet normal -1 0 0
    outer loop
      vertex -9 -19 2.44249e-015
      vertex -9 -14.8105 7.8
      vertex -9 -14.2698 7.05583
    endloop
  endfacet
  facet normal -1 0 0
    outer loop
      vertex -9 -19 2.44249e-015
      vertex -9 -14.2698 7.05583
      vertex -9 -13.5863 6.44033
    endloop
  endfacet
  facet normal -1 0 0
    outer loop
      vertex -9 -19 2.44249e-015
      vertex -9 -13.5863 6.44033
      vertex -9 -12.7896 5.9804
    endloop
  endfacet
  facet normal -1 0 0
    outer loop
      vertex -9 -19 2.44249e-015
      vertex -9 -12.7896 5.9804
      vertex -9 5.42342e-031 2.44249e-015
    endloop
  endfacet
  facet normal -1 0 0
    outer loop
      vertex -9 -11 5.6
      vertex -9 5.42342e-031 2.44249e-015
      vertex -9 -11.9148 5.69615
    endloop
  endfacet
  facet normal -1 0 0
    outer loop
      vertex -9 -10.0852 5.69615
      vertex -9 5.42342e-031 2.44249e-015
      vertex -9 -11 5.6
    endloop
  endfacet
  facet normal -1 0 0
    outer loop
      vertex -9 -9.21036 5.9804
      vertex -9 5.42342e-031 2.44249e-015
      vertex -9 -10.0852 5.69615
    endloop
  endfacet
  facet normal -1 0 0
    outer loop
      vertex -9 -8.41374 6.44033
      vertex -9 5.42342e-031 2.44249e-015
      vertex -9 -9.21036 5.9804
    endloop
  endfacet
  facet normal -1 0 0
    outer loop
      vertex -9 -13.5863 26.4403
      vertex -9 -10.0852 14.3038
      vertex -9 -11 14.4
    endloop
  endfacet
  facet normal -1 0 0
    outer loop
      vertex -9 -11.9148 25.6962
      vertex -9 -8.41374 13.5597
      vertex -9 -12.7896 25.9804
    endloop
  endfacet
  facet normal -1 0 0
    outer loop
      vertex -9 -8.41374 6.44033
      vertex -9 -7.73016 7.05583
      vertex -9 5.42342e-031 2.44249e-015
    endloop
  endfacet
  facet normal -1 0 0
    outer loop
      vertex -9 -11.9148 25.6962
      vertex -9 -7.18949 12.2
      vertex -9 -7.73016 12.9442
    endloop
  endfacet
  facet normal -1 0 0
    outer loop
      vertex -9 -7.73016 7.05583
      vertex -9 -7.18949 7.8
      vertex -9 5.42342e-031 2.44249e-015
    endloop
  endfacet
  facet normal -1 0 0
    outer loop
      vertex -9 -15.1846 31.3597
      vertex -9 -19 45
      vertex -9 -14.8105 32.2
    endloop
  endfacet
  facet normal -1 0 0
    outer loop
      vertex -9 -7.18949 7.8
      vertex -9 -6.81535 8.64033
      vertex -9 5.42342e-031 2.44249e-015
    endloop
  endfacet
  facet normal -1 0 0
    outer loop
      vertex -9 -11.9148 25.6962
      vertex -9 -6.81535 11.3597
      vertex -9 -7.18949 12.2
    endloop
  endfacet
  facet normal -1 0 0
    outer loop
      vertex -9 -6.81535 8.64033
      vertex -9 -6.6241 9.54008
      vertex -9 5.42342e-031 2.44249e-015
    endloop
  endfacet
  facet normal -1 0 0
    outer loop
      vertex -9 -6.6241 9.54008
      vertex -9 -6.6241 10.4599
      vertex -9 5.42342e-031 2.44249e-015
    endloop
  endfacet
  facet normal -1 0 0
    outer loop
      vertex -9 -6.6241 10.4599
      vertex -9 -6.81535 11.3597
      vertex -9 5.42342e-031 2.44249e-015
    endloop
  endfacet
  facet normal -1 0 0
    outer loop
      vertex -9 -11.9148 25.6962
      vertex -9 -7.73016 12.9442
      vertex -9 -8.41374 13.5597
    endloop
  endfacet
  facet normal -1 0 0
    outer loop
      vertex -9 -14.8105 27.8
      vertex -9 -11.9148 14.3038
      vertex -9 -15.1846 28.6403
    endloop
  endfacet
  facet normal -1 0 0
    outer loop
      vertex -9 -12.7896 14.0196
      vertex -9 -19 45
      vertex -9 -11.9148 14.3038
    endloop
  endfacet
  facet normal -1 0 0
    outer loop
      vertex -9 -13.5863 13.5597
      vertex -9 -19 45
      vertex -9 -12.7896 14.0196
    endloop
  endfacet
  facet normal -1 0 0
    outer loop
      vertex -9 -14.2698 12.9442
      vertex -9 -19 45
      vertex -9 -13.5863 13.5597
    endloop
  endfacet
  facet normal -1 0 0
    outer loop
      vertex -9 -14.8105 12.2
      vertex -9 -19 45
      vertex -9 -14.2698 12.9442
    endloop
  endfacet
  facet normal -1 0 0
    outer loop
      vertex -9 -15.1846 11.3597
      vertex -9 -19 45
      vertex -9 -14.8105 12.2
    endloop
  endfacet
  facet normal -1 0 0
    outer loop
      vertex -9 -15.3759 10.4599
      vertex -9 -19 45
      vertex -9 -15.1846 11.3597
    endloop
  endfacet
  facet normal -1 0 0
    outer loop
      vertex -9 -15.3759 29.5401
      vertex -9 -19 45
      vertex -9 -15.3759 30.4599
    endloop
  endfacet
  facet normal -1 0 0
    outer loop
      vertex -9 -13.5863 26.4403
      vertex -9 -11 14.4
      vertex -9 -14.2698 27.0558
    endloop
  endfacet
  facet normal -1 0 0
    outer loop
      vertex -9 -15.1846 28.6403
      vertex -9 -19 45
      vertex -9 -15.3759 29.5401
    endloop
  endfacet
  facet normal -1 0 0
    outer loop
      vertex -9 -11.9148 14.3038
      vertex -9 -19 45
      vertex -9 -15.1846 28.6403
    endloop
  endfacet
  facet normal -1 0 0
    outer loop
      vertex -9 -14.2698 27.0558
      vertex -9 -11.9148 14.3038
      vertex -9 -14.8105 27.8
    endloop
  endfacet
  facet normal -1 0 0
    outer loop
      vertex -9 -14.2698 27.0558
      vertex -9 -11 14.4
      vertex -9 -11.9148 14.3038
    endloop
  endfacet
  facet normal -1 0 0
    outer loop
      vertex -9 -9.5 39
      vertex -9 -7.73016 32.9442
      vertex -9 -13 39
    endloop
  endfacet
  facet normal -1 0 0
    outer loop
      vertex -9 -15.3759 30.4599
      vertex -9 -19 45
      vertex -9 -15.1846 31.3597
    endloop
  endfacet
  facet normal -1 0 0
    outer loop
      vertex -9 -12.7896 25.9804
      vertex -9 -9.21036 14.0196
      vertex -9 -13.5863 26.4403
    endloop
  endfacet
  facet normal -1 0 0
    outer loop
      vertex -9 -10.0852 14.3038
      vertex -9 -13.5863 26.4403
      vertex -9 -9.21036 14.0196
    endloop
  endfacet
  facet normal -1 0 0
    outer loop
      vertex -9 -10.0852 25.6962
      vertex -9 5.42342e-031 2.44249e-015
      vertex -9 -11 25.6
    endloop
  endfacet
  facet normal -1 0 0
    outer loop
      vertex -9 -6.81535 11.3597
      vertex -9 -11.9148 25.6962
      vertex -9 5.42342e-031 2.44249e-015
    endloop
  endfacet
  facet normal -1 0 0
    outer loop
      vertex -9 -14.8105 32.2
      vertex -9 -19 45
      vertex -9 -14.2698 32.9442
    endloop
  endfacet
  facet normal -1 0 0
    outer loop
      vertex -9 -11.9148 25.6962
      vertex -9 -11 25.6
      vertex -9 5.42342e-031 2.44249e-015
    endloop
  endfacet
  facet normal -1 0 0
    outer loop
      vertex -9 -6.6241 29.5401
      vertex -9 5.42342e-031 45
      vertex -9 -6.81535 28.6403
    endloop
  endfacet
  facet normal -1 0 0
    outer loop
      vertex -9 5.42342e-031 2.44249e-015
      vertex -9 -10.0852 25.6962
      vertex -9 -9.21036 25.9804
    endloop
  endfacet
  facet normal -1 0 0
    outer loop
      vertex -9 5.42342e-031 2.44249e-015
      vertex -9 -9.21036 25.9804
      vertex -9 -8.41374 26.4403
    endloop
  endfacet
  facet normal -1 0 0
    outer loop
      vertex -9 5.42342e-031 2.44249e-015
      vertex -9 -8.41374 26.4403
      vertex -9 -7.73016 27.0558
    endloop
  endfacet
  facet normal -1 0 0
    outer loop
      vertex -9 5.42342e-031 2.44249e-015
      vertex -9 -7.73016 27.0558
      vertex -9 -7.18949 27.8
    endloop
  endfacet
  facet normal -1 0 0
    outer loop
      vertex -9 5.42342e-031 2.44249e-015
      vertex -9 -7.18949 27.8
      vertex -9 -6.81535 28.6403
    endloop
  endfacet
  facet normal -1 0 0
    outer loop
      vertex -9 5.42342e-031 2.44249e-015
      vertex -9 -6.81535 28.6403
      vertex -9 5.42342e-031 45
    endloop
  endfacet
  facet normal -1 0 0
    outer loop
      vertex -9 -6.6241 30.4599
      vertex -9 5.42342e-031 45
      vertex -9 -6.6241 29.5401
    endloop
  endfacet
  facet normal -1 0 0
    outer loop
      vertex -9 -6.81535 31.3597
      vertex -9 5.42342e-031 45
      vertex -9 -6.6241 30.4599
    endloop
  endfacet
  facet normal -1 0 0
    outer loop
      vertex -9 -7.18949 32.2
      vertex -9 5.42342e-031 45
      vertex -9 -6.81535 31.3597
    endloop
  endfacet
  facet normal -1 0 0
    outer loop
      vertex -9 -14.2698 32.9442
      vertex -9 -19 45
      vertex -9 -13.5863 33.5597
    endloop
  endfacet
  facet normal -1 0 0
    outer loop
      vertex -9 -9.21036 34.0196
      vertex -9 -19 45
      vertex -9 -8.41374 33.5597
    endloop
  endfacet
  facet normal -1 0 0
    outer loop
      vertex -9 -8.41374 33.5597
      vertex -9 -19 45
      vertex -9 -7.73016 32.9442
    endloop
  endfacet
  facet normal -1 0 0
    outer loop
      vertex -9 -7.18949 32.2
      vertex -9 -7.73016 32.9442
      vertex -9 5.42342e-031 45
    endloop
  endfacet
  facet normal -1 0 0
    outer loop
      vertex -9 -10.0852 34.3038
      vertex -9 -19 45
      vertex -9 -9.21036 34.0196
    endloop
  endfacet
  facet normal -1 0 0
    outer loop
      vertex -9 -11 34.4
      vertex -9 -19 45
      vertex -9 -10.0852 34.3038
    endloop
  endfacet
  facet normal -1 0 0
    outer loop
      vertex -9 -11.9148 34.3038
      vertex -9 -19 45
      vertex -9 -11 34.4
    endloop
  endfacet
  facet normal -1 0 0
    outer loop
      vertex -9 -12.7896 34.0196
      vertex -9 -19 45
      vertex -9 -11.9148 34.3038
    endloop
  endfacet
  facet normal -1 0 0
    outer loop
      vertex -9 -13.5863 33.5597
      vertex -9 -19 45
      vertex -9 -12.7896 34.0196
    endloop
  endfacet
  facet normal -1 0 0
    outer loop
      vertex -9 -13 39
      vertex -9 -19 45
      vertex -9 -13 41
    endloop
  endfacet
  facet normal -1 0 0
    outer loop
      vertex -9 -9.5 41
      vertex -9 -13 41
      vertex -9 5.42342e-031 45
    endloop
  endfacet
  facet normal -1 0 0
    outer loop
      vertex -9 -7.73016 32.9442
      vertex -9 -19 45
      vertex -9 -13 39
    endloop
  endfacet
  facet normal -1 0 0
    outer loop
      vertex -9 -7.73016 32.9442
      vertex -9 -9.5 39
      vertex -9 5.42342e-031 45
    endloop
  endfacet
  facet normal -1 0 0
    outer loop
      vertex -9 -9.5 39
      vertex -9 -9.5 41
      vertex -9 5.42342e-031 45
    endloop
  endfacet
  facet normal -1 0 0
    outer loop
      vertex -9 -11.9148 5.69615
      vertex -9 5.42342e-031 2.44249e-015
      vertex -9 -12.7896 5.9804
    endloop
  endfacet
  facet normal -1 0 0
    outer loop
      vertex -9 -9.21036 14.0196
      vertex -9 -12.7896 25.9804
      vertex -9 -8.41374 13.5597
    endloop
  endfacet
  facet normal -0.707107 -0.707107 0
    outer loop
      vertex -6 -22 45
      vertex -7.5 -20.5 46.5
      vertex -6 -22 2.44249e-015
    endloop
  endfacet
  facet normal -0.707107 -0.707107 0
    outer loop
      vertex -6 -22 2.44249e-015
      vertex -7.5 -20.5 46.5
      vertex -9 -19 45
    endloop
  endfacet
  facet normal -0.707107 -0.707107 0
    outer loop
      vertex -6 -22 2.44249e-015
      vertex -9 -19 45
      vertex -9 -19 2.44249e-015
    endloop
  endfacet
  facet normal 0 0 -1
    outer loop
      vertex -9 -19 2.44249e-015
      vertex -9 5.42342e-031 2.44249e-015
      vertex -6 -22 2.44249e-015
    endloop
  endfacet
  facet normal 0 0 -1
    outer loop
      vertex -6 -22 2.44249e-015
      vertex -9 5.42342e-031 2.44249e-015
      vertex 9 5.42342e-031 2.44249e-015
    endloop
  endfacet
  facet normal 0 0 -1
    outer loop
      vertex -6 -22 2.44249e-015
      vertex 9 5.42342e-031 2.44249e-015
      vertex 9 -19 2.44249e-015
    endloop
  endfacet
  facet normal 0 0 -1
    outer loop
      vertex -6 -22 2.44249e-015
      vertex 9 -19 2.44249e-015
      vertex 6 -22 2.44249e-015
    endloop
  endfacet
  facet normal 0 1 0
    outer loop
      vertex 4.88498e-015 5.42342e-031 25.4
      vertex -9 5.42342e-031 45
      vertex -7 5.42342e-031 47
    endloop
  endfacet
  facet normal 0 1 0
    outer loop
      vertex -3.99444 5.42342e-031 46.2979
      vertex -7 5.42342e-031 47
      vertex -3.68183 5.42342e-031 47
    endloop
  endfacet
  facet normal 0 1 0
    outer loop
      vertex -4.17699 5.42342e-031 45.439
      vertex -7 5.42342e-031 47
      vertex -3.99444 5.42342e-031 46.2979
    endloop
  endfacet
  facet normal 0 1 0
    outer loop
      vertex -4.17699 5.42342e-031 44.561
      vertex -7 5.42342e-031 47
      vertex -4.17699 5.42342e-031 45.439
    endloop
  endfacet
  facet normal 0 1 0
    outer loop
      vertex -3.99444 5.42342e-031 43.7021
      vertex -7 5.42342e-031 47
      vertex -4.17699 5.42342e-031 44.561
    endloop
  endfacet
  facet normal 0 1 0
    outer loop
      vertex 1.12272 5.42342e-031 25.282
      vertex -7 5.42342e-031 47
      vertex -3.99444 5.42342e-031 43.7021
    endloop
  endfacet
  facet normal 0 1 0
    outer loop
      vertex 2.19638 5.42342e-031 24.9331
      vertex -0.873229 5.42342e-031 40.8918
      vertex 3.17404 5.42342e-031 24.3687
    endloop
  endfacet
  facet normal 0 1 0
    outer loop
      vertex -1.70829 5.42342e-031 41.1631
      vertex 2.19638 5.42342e-031 24.9331
      vertex -2.4687 5.42342e-031 41.6021
    endloop
  endfacet
  facet normal 0 1 0
    outer loop
      vertex 1.12272 5.42342e-031 25.282
      vertex -3.12121 5.42342e-031 42.1897
      vertex -2.4687 5.42342e-031 41.6021
    endloop
  endfacet
  facet normal 0 1 0
    outer loop
      vertex -3.17404 5.42342e-031 15.6313
      vertex 9 5.42342e-031 2.44249e-015
      vertex -4.01298 5.42342e-031 16.3867
    endloop
  endfacet
  facet normal 0 1 0
    outer loop
      vertex 1.12272 5.42342e-031 25.282
      vertex -3.63731 5.42342e-031 42.9
      vertex -3.12121 5.42342e-031 42.1897
    endloop
  endfacet
  facet normal 0 1 0
    outer loop
      vertex 4.67654 5.42342e-031 22.7
      vertex 1.70829 5.42342e-031 41.1631
      vertex 5.13571 5.42342e-031 21.6687
    endloop
  endfacet
  facet normal 0 1 0
    outer loop
      vertex 5.37042 5.42342e-031 20.5645
      vertex 2.4687 5.42342e-031 41.6021
      vertex 9 5.42342e-031 2.44249e-015
    endloop
  endfacet
  facet normal 0 1 0
    outer loop
      vertex 2.4687 5.42342e-031 41.6021
      vertex 3.12121 5.42342e-031 42.1897
      vertex 9 5.42342e-031 2.44249e-015
    endloop
  endfacet
  facet normal 0 1 0
    outer loop
      vertex 3.12121 5.42342e-031 42.1897
      vertex 3.63731 5.42342e-031 42.9
      vertex 9 5.42342e-031 2.44249e-015
    endloop
  endfacet
  facet normal 0 1 0
    outer loop
      vertex 3.63731 5.42342e-031 42.9
      vertex 3.99444 5.42342e-031 43.7021
      vertex 9 5.42342e-031 2.44249e-015
    endloop
  endfacet
  facet normal 0 1 0
    outer loop
      vertex 3.99444 5.42342e-031 43.7021
      vertex 4.17699 5.42342e-031 44.561
      vertex 9 5.42342e-031 2.44249e-015
    endloop
  endfacet
  facet normal 0 1 0
    outer loop
      vertex 4.17699 5.42342e-031 44.561
      vertex 4.17699 5.42342e-031 45.439
      vertex 9 5.42342e-031 2.44249e-015
    endloop
  endfacet
  facet normal 0 1 0
    outer loop
      vertex 4.17699 5.42342e-031 45.439
      vertex 7 5.42342e-031 47
      vertex 9 5.42342e-031 2.44249e-015
    endloop
  endfacet
  facet normal 0 1 0
    outer loop
      vertex 3.99444 5.42342e-031 46.2979
      vertex 3.68183 5.42342e-031 47
      vertex 7 5.42342e-031 47
    endloop
  endfacet
  facet normal 0 1 0
    outer loop
      vertex 3.99444 5.42342e-031 46.2979
      vertex 7 5.42342e-031 47
      vertex 4.17699 5.42342e-031 45.439
    endloop
  endfacet
  facet normal 0 1 0
    outer loop
      vertex 9 5.42342e-031 2.44249e-015
      vertex 7 5.42342e-031 47
      vertex 9 5.42342e-031 45
    endloop
  endfacet
  facet normal 0 1 0
    outer loop
      vertex -9 5.42342e-031 2.44249e-015
      vertex -9 5.42342e-031 45
      vertex -5.37042 5.42342e-031 20.5645
    endloop
  endfacet
  facet normal 0 1 0
    outer loop
      vertex -2.19638 5.42342e-031 24.9331
      vertex -9 5.42342e-031 45
      vertex -1.12272 5.42342e-031 25.282
    endloop
  endfacet
  facet normal 0 1 0
    outer loop
      vertex -9 5.42342e-031 2.44249e-015
      vertex -5.37042 5.42342e-031 20.5645
      vertex -5.37042 5.42342e-031 19.4355
    endloop
  endfacet
  facet normal 0 1 0
    outer loop
      vertex -9 5.42342e-031 2.44249e-015
      vertex -5.37042 5.42342e-031 19.4355
      vertex -5.1357 5.42342e-031 18.3313
    endloop
  endfacet
  facet normal 0 1 0
    outer loop
      vertex -9 5.42342e-031 2.44249e-015
      vertex -5.1357 5.42342e-031 18.3313
      vertex -4.67654 5.42342e-031 17.3
    endloop
  endfacet
  facet normal 0 1 0
    outer loop
      vertex -9 5.42342e-031 2.44249e-015
      vertex -4.67654 5.42342e-031 17.3
      vertex -4.01298 5.42342e-031 16.3867
    endloop
  endfacet
  facet normal 0 1 0
    outer loop
      vertex -9 5.42342e-031 2.44249e-015
      vertex -4.01298 5.42342e-031 16.3867
      vertex 9 5.42342e-031 2.44249e-015
    endloop
  endfacet
  facet normal 0 1 0
    outer loop
      vertex -2.19638 5.42342e-031 15.0669
      vertex 9 5.42342e-031 2.44249e-015
      vertex -3.17404 5.42342e-031 15.6313
    endloop
  endfacet
  facet normal 0 1 0
    outer loop
      vertex -1.12272 5.42342e-031 14.718
      vertex 9 5.42342e-031 2.44249e-015
      vertex -2.19638 5.42342e-031 15.0669
    endloop
  endfacet
  facet normal 0 1 0
    outer loop
      vertex 3.17404 5.42342e-031 15.6313
      vertex 9 5.42342e-031 2.44249e-015
      vertex 2.19638 5.42342e-031 15.0669
    endloop
  endfacet
  facet normal 0 1 0
    outer loop
      vertex -4.01298 5.42342e-031 23.6133
      vertex -9 5.42342e-031 45
      vertex -3.17404 5.42342e-031 24.3687
    endloop
  endfacet
  facet normal 0 1 0
    outer loop
      vertex -1.12272 5.42342e-031 14.718
      vertex 4.88498e-015 5.42342e-031 14.6
      vertex 9 5.42342e-031 2.44249e-015
    endloop
  endfacet
  facet normal 0 1 0
    outer loop
      vertex 4.88498e-015 5.42342e-031 14.6
      vertex 1.12272 5.42342e-031 14.718
      vertex 9 5.42342e-031 2.44249e-015
    endloop
  endfacet
  facet normal 0 1 0
    outer loop
      vertex -3.17404 5.42342e-031 24.3687
      vertex -9 5.42342e-031 45
      vertex -2.19638 5.42342e-031 24.9331
    endloop
  endfacet
  facet normal 0 1 0
    outer loop
      vertex 1.12272 5.42342e-031 14.718
      vertex 2.19638 5.42342e-031 15.0669
      vertex 9 5.42342e-031 2.44249e-015
    endloop
  endfacet
  facet normal 0 1 0
    outer loop
      vertex 4.01298 5.42342e-031 16.3867
      vertex 9 5.42342e-031 2.44249e-015
      vertex 3.17404 5.42342e-031 15.6313
    endloop
  endfacet
  facet normal 0 1 0
    outer loop
      vertex 4.67654 5.42342e-031 17.3
      vertex 9 5.42342e-031 2.44249e-015
      vertex 4.01298 5.42342e-031 16.3867
    endloop
  endfacet
  facet normal 0 1 0
    outer loop
      vertex 5.13571 5.42342e-031 18.3313
      vertex 9 5.42342e-031 2.44249e-015
      vertex 4.67654 5.42342e-031 17.3
    endloop
  endfacet
  facet normal 0 1 0
    outer loop
      vertex 1.12272 5.42342e-031 25.282
      vertex -2.4687 5.42342e-031 41.6021
      vertex 2.19638 5.42342e-031 24.9331
    endloop
  endfacet
  facet normal 0 1 0
    outer loop
      vertex 3.17404 5.42342e-031 24.3687
      vertex 4.44089e-015 5.42342e-031 40.8
      vertex 4.01298 5.42342e-031 23.6133
    endloop
  endfacet
  facet normal 0 1 0
    outer loop
      vertex 5.37042 5.42342e-031 19.4355
      vertex 9 5.42342e-031 2.44249e-015
      vertex 5.13571 5.42342e-031 18.3313
    endloop
  endfacet
  facet normal 0 1 0
    outer loop
      vertex 5.37042 5.42342e-031 20.5645
      vertex 9 5.42342e-031 2.44249e-015
      vertex 5.37042 5.42342e-031 19.4355
    endloop
  endfacet
  facet normal 0 1 0
    outer loop
      vertex 1.70829 5.42342e-031 41.1631
      vertex 2.4687 5.42342e-031 41.6021
      vertex 5.37042 5.42342e-031 20.5645
    endloop
  endfacet
  facet normal 0 1 0
    outer loop
      vertex 4.67654 5.42342e-031 22.7
      vertex 0.873229 5.42342e-031 40.8918
      vertex 1.70829 5.42342e-031 41.1631
    endloop
  endfacet
  facet normal 0 1 0
    outer loop
      vertex 4.01298 5.42342e-031 23.6133
      vertex 0.873229 5.42342e-031 40.8918
      vertex 4.67654 5.42342e-031 22.7
    endloop
  endfacet
  facet normal 0 1 0
    outer loop
      vertex 5.13571 5.42342e-031 21.6687
      vertex 1.70829 5.42342e-031 41.1631
      vertex 5.37042 5.42342e-031 20.5645
    endloop
  endfacet
  facet normal 0 1 0
    outer loop
      vertex 4.44089e-015 5.42342e-031 40.8
      vertex 0.873229 5.42342e-031 40.8918
      vertex 4.01298 5.42342e-031 23.6133
    endloop
  endfacet
  facet normal 0 1 0
    outer loop
      vertex -0.873229 5.42342e-031 40.8918
      vertex 4.44089e-015 5.42342e-031 40.8
      vertex 3.17404 5.42342e-031 24.3687
    endloop
  endfacet
  facet normal 0 1 0
    outer loop
      vertex 2.19638 5.42342e-031 24.9331
      vertex -1.70829 5.42342e-031 41.1631
      vertex -0.873229 5.42342e-031 40.8918
    endloop
  endfacet
  facet normal 0 1 0
    outer loop
      vertex 4.88498e-015 5.42342e-031 25.4
      vertex -7 5.42342e-031 47
      vertex 1.12272 5.42342e-031 25.282
    endloop
  endfacet
  facet normal 0 1 0
    outer loop
      vertex -1.12272 5.42342e-031 25.282
      vertex -9 5.42342e-031 45
      vertex 4.88498e-015 5.42342e-031 25.4
    endloop
  endfacet
  facet normal 0 1 0
    outer loop
      vertex -4.67654 5.42342e-031 22.7
      vertex -9 5.42342e-031 45
      vertex -4.01298 5.42342e-031 23.6133
    endloop
  endfacet
  facet normal 0 1 0
    outer loop
      vertex -5.1357 5.42342e-031 21.6687
      vertex -9 5.42342e-031 45
      vertex -4.67654 5.42342e-031 22.7
    endloop
  endfacet
  facet normal 0 1 0
    outer loop
      vertex -5.37042 5.42342e-031 20.5645
      vertex -9 5.42342e-031 45
      vertex -5.1357 5.42342e-031 21.6687
    endloop
  endfacet
  facet normal 0 1 0
    outer loop
      vertex 1.12272 5.42342e-031 25.282
      vertex -3.99444 5.42342e-031 43.7021
      vertex -3.63731 5.42342e-031 42.9
    endloop
  endfacet
  facet normal -0.707107 0 0.707107
    outer loop
      vertex -7 -20 47
      vertex -7 5.42342e-031 47
      vertex -7.5 -20.5 46.5
    endloop
  endfacet
  facet normal -0.707107 0 0.707107
    outer loop
      vertex -7.5 -20.5 46.5
      vertex -7 5.42342e-031 47
      vertex -9 5.42342e-031 45
    endloop
  endfacet
  facet normal -0.707107 0 0.707107
    outer loop
      vertex -7.5 -20.5 46.5
      vertex -9 5.42342e-031 45
      vertex -9 -19 45
    endloop
  endfacet
  facet normal 4.61655e-017 0.978148 -0.207911
    outer loop
      vertex 9 -15.1846 11.3597
      vertex 9 -15.3759 10.4599
      vertex -9 -15.1846 11.3597
    endloop
  endfacet
  facet normal 4.61655e-017 0.978148 -0.207911
    outer loop
      vertex -9 -15.1846 11.3597
      vertex 9 -15.3759 10.4599
      vertex -9 -15.3759 10.4599
    endloop
  endfacet
  facet normal 0 1 0
    outer loop
      vertex 9 -15.3759 10.4599
      vertex 9 -15.3759 9.54008
      vertex -9 -15.3759 10.4599
    endloop
  endfacet
  facet normal 0 1 0
    outer loop
      vertex -9 -15.3759 10.4599
      vertex 9 -15.3759 9.54008
      vertex -9 -15.3759 9.54008
    endloop
  endfacet
  facet normal 9.03137e-017 0.913545 -0.406737
    outer loop
      vertex 9 -14.8105 12.2
      vertex 9 -15.1846 11.3597
      vertex -9 -14.8105 12.2
    endloop
  endfacet
  facet normal 9.03137e-017 0.913545 -0.406737
    outer loop
      vertex -9 -14.8105 12.2
      vertex 9 -15.1846 11.3597
      vertex -9 -15.1846 11.3597
    endloop
  endfacet
  facet normal 1.30515e-016 0.809017 -0.587785
    outer loop
      vertex 9 -14.2698 12.9442
      vertex 9 -14.8105 12.2
      vertex -9 -14.2698 12.9442
    endloop
  endfacet
  facet normal 1.30515e-016 0.809017 -0.587785
    outer loop
      vertex -9 -14.2698 12.9442
      vertex 9 -14.8105 12.2
      vertex -9 -14.8105 12.2
    endloop
  endfacet
  facet normal 1.65011e-016 0.669131 -0.743145
    outer loop
      vertex 9 -13.5863 13.5597
      vertex 9 -14.2698 12.9442
      vertex -9 -13.5863 13.5597
    endloop
  endfacet
  facet normal 1.65011e-016 0.669131 -0.743145
    outer loop
      vertex -9 -13.5863 13.5597
      vertex 9 -14.2698 12.9442
      vertex -9 -14.2698 12.9442
    endloop
  endfacet
  facet normal 1.92296e-016 0.5 -0.866026
    outer loop
      vertex 9 -12.7896 14.0196
      vertex 9 -13.5863 13.5597
      vertex -9 -12.7896 14.0196
    endloop
  endfacet
  facet normal 1.92296e-016 0.5 -0.866026
    outer loop
      vertex -9 -12.7896 14.0196
      vertex 9 -13.5863 13.5597
      vertex -9 -13.5863 13.5597
    endloop
  endfacet
  facet normal 2.11177e-016 0.309017 -0.951057
    outer loop
      vertex 9 -11.9148 14.3038
      vertex 9 -12.7896 14.0196
      vertex -9 -11.9148 14.3038
    endloop
  endfacet
  facet normal 2.11177e-016 0.309017 -0.951057
    outer loop
      vertex -9 -11.9148 14.3038
      vertex 9 -12.7896 14.0196
      vertex -9 -12.7896 14.0196
    endloop
  endfacet
  facet normal 2.20828e-016 0.104529 -0.994522
    outer loop
      vertex 9 -11 14.4
      vertex 9 -11.9148 14.3038
      vertex -9 -11 14.4
    endloop
  endfacet
  facet normal 2.20828e-016 0.104529 -0.994522
    outer loop
      vertex -9 -11 14.4
      vertex 9 -11.9148 14.3038
      vertex -9 -11.9148 14.3038
    endloop
  endfacet
  facet normal 2.20828e-016 -0.104529 -0.994522
    outer loop
      vertex 9 -10.0852 14.3038
      vertex 9 -11 14.4
      vertex -9 -10.0852 14.3038
    endloop
  endfacet
  facet normal 2.20828e-016 -0.104529 -0.994522
    outer loop
      vertex -9 -10.0852 14.3038
      vertex 9 -11 14.4
      vertex -9 -11 14.4
    endloop
  endfacet
  facet normal 2.11177e-016 -0.309017 -0.951057
    outer loop
      vertex 9 -9.21036 14.0196
      vertex 9 -10.0852 14.3038
      vertex -9 -9.21036 14.0196
    endloop
  endfacet
  facet normal 2.11177e-016 -0.309017 -0.951057
    outer loop
      vertex -9 -9.21036 14.0196
      vertex 9 -10.0852 14.3038
      vertex -9 -10.0852 14.3038
    endloop
  endfacet
  facet normal 1.92296e-016 -0.5 -0.866026
    outer loop
      vertex 9 -8.41374 13.5597
      vertex 9 -9.21036 14.0196
      vertex -9 -8.41374 13.5597
    endloop
  endfacet
  facet normal 1.92296e-016 -0.5 -0.866026
    outer loop
      vertex -9 -8.41374 13.5597
      vertex 9 -9.21036 14.0196
      vertex -9 -9.21036 14.0196
    endloop
  endfacet
  facet normal 1.65011e-016 -0.669131 -0.743145
    outer loop
      vertex 9 -7.73016 12.9442
      vertex 9 -8.41374 13.5597
      vertex -9 -7.73016 12.9442
    endloop
  endfacet
  facet normal 1.65011e-016 -0.669131 -0.743145
    outer loop
      vertex -9 -7.73016 12.9442
      vertex 9 -8.41374 13.5597
      vertex -9 -8.41374 13.5597
    endloop
  endfacet
  facet normal 1.30515e-016 -0.809017 -0.587785
    outer loop
      vertex -9 -7.18949 12.2
      vertex 9 -7.18949 12.2
      vertex 9 -7.73016 12.9442
    endloop
  endfacet
  facet normal 1.30515e-016 -0.809017 -0.587785
    outer loop
      vertex -9 -7.73016 12.9442
      vertex -9 -7.18949 12.2
      vertex 9 -7.73016 12.9442
    endloop
  endfacet
  facet normal 9.03137e-017 -0.913545 -0.406737
    outer loop
      vertex -9 -6.81535 11.3597
      vertex 9 -6.81535 11.3597
      vertex 9 -7.18949 12.2
    endloop
  endfacet
  facet normal 9.03137e-017 -0.913545 -0.406737
    outer loop
      vertex -9 -7.18949 12.2
      vertex -9 -6.81535 11.3597
      vertex 9 -7.18949 12.2
    endloop
  endfacet
  facet normal 4.61655e-017 -0.978148 -0.207911
    outer loop
      vertex -9 -6.6241 10.4599
      vertex 9 -6.6241 10.4599
      vertex 9 -6.81535 11.3597
    endloop
  endfacet
  facet normal 4.61655e-017 -0.978148 -0.207911
    outer loop
      vertex -9 -6.81535 11.3597
      vertex -9 -6.6241 10.4599
      vertex 9 -6.81535 11.3597
    endloop
  endfacet
  facet normal 0 -1 0
    outer loop
      vertex 9 -6.6241 9.54008
      vertex 9 -6.6241 10.4599
      vertex -9 -6.6241 10.4599
    endloop
  endfacet
  facet normal 0 -1 0
    outer loop
      vertex -9 -6.6241 9.54008
      vertex 9 -6.6241 9.54008
      vertex -9 -6.6241 10.4599
    endloop
  endfacet
  facet normal -4.61655e-017 -0.978148 0.207911
    outer loop
      vertex 9 -6.81535 8.64033
      vertex 9 -6.6241 9.54008
      vertex -9 -6.6241 9.54008
    endloop
  endfacet
  facet normal -4.61655e-017 -0.978148 0.207911
    outer loop
      vertex -9 -6.81535 8.64033
      vertex 9 -6.81535 8.64033
      vertex -9 -6.6241 9.54008
    endloop
  endfacet
  facet normal -9.03137e-017 -0.913545 0.406737
    outer loop
      vertex 9 -7.18949 7.8
      vertex 9 -6.81535 8.64033
      vertex -9 -6.81535 8.64033
    endloop
  endfacet
  facet normal -9.03137e-017 -0.913545 0.406737
    outer loop
      vertex -9 -7.18949 7.8
      vertex 9 -7.18949 7.8
      vertex -9 -6.81535 8.64033
    endloop
  endfacet
  facet normal -1.30515e-016 -0.809017 0.587785
    outer loop
      vertex 9 -7.73016 7.05583
      vertex 9 -7.18949 7.8
      vertex -9 -7.18949 7.8
    endloop
  endfacet
  facet normal -1.30515e-016 -0.809017 0.587785
    outer loop
      vertex -9 -7.73016 7.05583
      vertex 9 -7.73016 7.05583
      vertex -9 -7.18949 7.8
    endloop
  endfacet
  facet normal -1.65011e-016 -0.669131 0.743145
    outer loop
      vertex 9 -8.41374 6.44033
      vertex 9 -7.73016 7.05583
      vertex -9 -7.73016 7.05583
    endloop
  endfacet
  facet normal -1.65011e-016 -0.669131 0.743145
    outer loop
      vertex -9 -8.41374 6.44033
      vertex 9 -8.41374 6.44033
      vertex -9 -7.73016 7.05583
    endloop
  endfacet
  facet normal -1.92296e-016 -0.5 0.866026
    outer loop
      vertex 9 -9.21036 5.9804
      vertex 9 -8.41374 6.44033
      vertex -9 -8.41374 6.44033
    endloop
  endfacet
  facet normal -1.92296e-016 -0.5 0.866026
    outer loop
      vertex -9 -9.21036 5.9804
      vertex 9 -9.21036 5.9804
      vertex -9 -8.41374 6.44033
    endloop
  endfacet
  facet normal -2.11177e-016 -0.309017 0.951057
    outer loop
      vertex 9 -10.0852 5.69615
      vertex 9 -9.21036 5.9804
      vertex -9 -9.21036 5.9804
    endloop
  endfacet
  facet normal -2.11177e-016 -0.309017 0.951057
    outer loop
      vertex -9 -10.0852 5.69615
      vertex 9 -10.0852 5.69615
      vertex -9 -9.21036 5.9804
    endloop
  endfacet
  facet normal -2.20828e-016 -0.104529 0.994522
    outer loop
      vertex 9 -11 5.6
      vertex 9 -10.0852 5.69615
      vertex -9 -10.0852 5.69615
    endloop
  endfacet
  facet normal -2.20828e-016 -0.104529 0.994522
    outer loop
      vertex -9 -11 5.6
      vertex 9 -11 5.6
      vertex -9 -10.0852 5.69615
    endloop
  endfacet
  facet normal -2.20828e-016 0.104529 0.994522
    outer loop
      vertex 9 -11.9148 5.69615
      vertex 9 -11 5.6
      vertex -9 -11 5.6
    endloop
  endfacet
  facet normal -2.20828e-016 0.104529 0.994522
    outer loop
      vertex -9 -11.9148 5.69615
      vertex 9 -11.9148 5.69615
      vertex -9 -11 5.6
    endloop
  endfacet
  facet normal -2.11177e-016 0.309017 0.951057
    outer loop
      vertex 9 -12.7896 5.9804
      vertex 9 -11.9148 5.69615
      vertex -9 -11.9148 5.69615
    endloop
  endfacet
  facet normal -2.11177e-016 0.309017 0.951057
    outer loop
      vertex -9 -12.7896 5.9804
      vertex 9 -12.7896 5.9804
      vertex -9 -11.9148 5.69615
    endloop
  endfacet
  facet normal -1.92296e-016 0.5 0.866026
    outer loop
      vertex 9 -13.5863 6.44033
      vertex 9 -12.7896 5.9804
      vertex -9 -12.7896 5.9804
    endloop
  endfacet
  facet normal -1.92296e-016 0.5 0.866026
    outer loop
      vertex -9 -13.5863 6.44033
      vertex 9 -13.5863 6.44033
      vertex -9 -12.7896 5.9804
    endloop
  endfacet
  facet normal -1.65011e-016 0.669131 0.743145
    outer loop
      vertex 9 -14.2698 7.05583
      vertex 9 -13.5863 6.44033
      vertex -9 -13.5863 6.44033
    endloop
  endfacet
  facet normal -1.65011e-016 0.669131 0.743145
    outer loop
      vertex -9 -14.2698 7.05583
      vertex 9 -14.2698 7.05583
      vertex -9 -13.5863 6.44033
    endloop
  endfacet
  facet normal -1.30515e-016 0.809017 0.587785
    outer loop
      vertex 9 -14.2698 7.05583
      vertex -9 -14.2698 7.05583
      vertex 9 -14.8105 7.8
    endloop
  endfacet
  facet normal -1.30515e-016 0.809017 0.587785
    outer loop
      vertex 9 -14.8105 7.8
      vertex -9 -14.2698 7.05583
      vertex -9 -14.8105 7.8
    endloop
  endfacet
  facet normal -9.03137e-017 0.913545 0.406737
    outer loop
      vertex 9 -14.8105 7.8
      vertex -9 -14.8105 7.8
      vertex 9 -15.1846 8.64033
    endloop
  endfacet
  facet normal -9.03137e-017 0.913545 0.406737
    outer loop
      vertex 9 -15.1846 8.64033
      vertex -9 -14.8105 7.8
      vertex -9 -15.1846 8.64033
    endloop
  endfacet
  facet normal -4.61655e-017 0.978148 0.207911
    outer loop
      vertex 9 -15.1846 8.64033
      vertex -9 -15.1846 8.64033
      vertex 9 -15.3759 9.54008
    endloop
  endfacet
  facet normal -4.61655e-017 0.978148 0.207911
    outer loop
      vertex 9 -15.3759 9.54008
      vertex -9 -15.1846 8.64033
      vertex -9 -15.3759 9.54008
    endloop
  endfacet
  facet normal 4.61655e-017 0.978148 -0.207911
    outer loop
      vertex 9 -15.1846 31.3597
      vertex 9 -15.3759 30.4599
      vertex -9 -15.1846 31.3597
    endloop
  endfacet
  facet normal 4.61655e-017 0.978148 -0.207911
    outer loop
      vertex -9 -15.1846 31.3597
      vertex 9 -15.3759 30.4599
      vertex -9 -15.3759 30.4599
    endloop
  endfacet
  facet normal 0 1 0
    outer loop
      vertex 9 -15.3759 30.4599
      vertex 9 -15.3759 29.5401
      vertex -9 -15.3759 30.4599
    endloop
  endfacet
  facet normal 0 1 0
    outer loop
      vertex -9 -15.3759 30.4599
      vertex 9 -15.3759 29.5401
      vertex -9 -15.3759 29.5401
    endloop
  endfacet
  facet normal 9.03137e-017 0.913545 -0.406737
    outer loop
      vertex 9 -14.8105 32.2
      vertex 9 -15.1846 31.3597
      vertex -9 -14.8105 32.2
    endloop
  endfacet
  facet normal 9.03137e-017 0.913545 -0.406737
    outer loop
      vertex -9 -14.8105 32.2
      vertex 9 -15.1846 31.3597
      vertex -9 -15.1846 31.3597
    endloop
  endfacet
  facet normal 1.30515e-016 0.809017 -0.587785
    outer loop
      vertex 9 -14.2698 32.9442
      vertex 9 -14.8105 32.2
      vertex -9 -14.2698 32.9442
    endloop
  endfacet
  facet normal 1.30515e-016 0.809017 -0.587785
    outer loop
      vertex -9 -14.2698 32.9442
      vertex 9 -14.8105 32.2
      vertex -9 -14.8105 32.2
    endloop
  endfacet
  facet normal 1.65011e-016 0.669131 -0.743145
    outer loop
      vertex 9 -13.5863 33.5597
      vertex 9 -14.2698 32.9442
      vertex -9 -13.5863 33.5597
    endloop
  endfacet
  facet normal 1.65011e-016 0.669131 -0.743145
    outer loop
      vertex -9 -13.5863 33.5597
      vertex 9 -14.2698 32.9442
      vertex -9 -14.2698 32.9442
    endloop
  endfacet
  facet normal 1.92296e-016 0.5 -0.866026
    outer loop
      vertex 9 -12.7896 34.0196
      vertex 9 -13.5863 33.5597
      vertex -9 -12.7896 34.0196
    endloop
  endfacet
  facet normal 1.92296e-016 0.5 -0.866026
    outer loop
      vertex -9 -12.7896 34.0196
      vertex 9 -13.5863 33.5597
      vertex -9 -13.5863 33.5597
    endloop
  endfacet
  facet normal 2.11177e-016 0.309017 -0.951057
    outer loop
      vertex 9 -11.9148 34.3038
      vertex 9 -12.7896 34.0196
      vertex -9 -11.9148 34.3038
    endloop
  endfacet
  facet normal 2.11177e-016 0.309017 -0.951057
    outer loop
      vertex -9 -11.9148 34.3038
      vertex 9 -12.7896 34.0196
      vertex -9 -12.7896 34.0196
    endloop
  endfacet
  facet normal 2.20828e-016 0.104529 -0.994522
    outer loop
      vertex 9 -11 34.4
      vertex 9 -11.9148 34.3038
      vertex -9 -11 34.4
    endloop
  endfacet
  facet normal 2.20828e-016 0.104529 -0.994522
    outer loop
      vertex -9 -11 34.4
      vertex 9 -11.9148 34.3038
      vertex -9 -11.9148 34.3038
    endloop
  endfacet
  facet normal 2.20828e-016 -0.104529 -0.994522
    outer loop
      vertex 9 -10.0852 34.3038
      vertex 9 -11 34.4
      vertex -9 -10.0852 34.3038
    endloop
  endfacet
  facet normal 2.20828e-016 -0.104529 -0.994522
    outer loop
      vertex -9 -10.0852 34.3038
      vertex 9 -11 34.4
      vertex -9 -11 34.4
    endloop
  endfacet
  facet normal 2.11177e-016 -0.309017 -0.951057
    outer loop
      vertex 9 -9.21036 34.0196
      vertex 9 -10.0852 34.3038
      vertex -9 -9.21036 34.0196
    endloop
  endfacet
  facet normal 2.11177e-016 -0.309017 -0.951057
    outer loop
      vertex -9 -9.21036 34.0196
      vertex 9 -10.0852 34.3038
      vertex -9 -10.0852 34.3038
    endloop
  endfacet
  facet normal 1.92296e-016 -0.5 -0.866026
    outer loop
      vertex 9 -8.41374 33.5597
      vertex 9 -9.21036 34.0196
      vertex -9 -8.41374 33.5597
    endloop
  endfacet
  facet normal 1.92296e-016 -0.5 -0.866026
    outer loop
      vertex -9 -8.41374 33.5597
      vertex 9 -9.21036 34.0196
      vertex -9 -9.21036 34.0196
    endloop
  endfacet
  facet normal 1.65011e-016 -0.669131 -0.743145
    outer loop
      vertex 9 -7.73016 32.9442
      vertex 9 -8.41374 33.5597
      vertex -9 -7.73016 32.9442
    endloop
  endfacet
  facet normal 1.65011e-016 -0.669131 -0.743145
    outer loop
      vertex -9 -7.73016 32.9442
      vertex 9 -8.41374 33.5597
      vertex -9 -8.41374 33.5597
    endloop
  endfacet
  facet normal 1.30515e-016 -0.809017 -0.587785
    outer loop
      vertex -9 -7.18949 32.2
      vertex 9 -7.18949 32.2
      vertex 9 -7.73016 32.9442
    endloop
  endfacet
  facet normal 1.30515e-016 -0.809017 -0.587785
    outer loop
      vertex -9 -7.73016 32.9442
      vertex -9 -7.18949 32.2
      vertex 9 -7.73016 32.9442
    endloop
  endfacet
  facet normal 9.03137e-017 -0.913545 -0.406737
    outer loop
      vertex -9 -6.81535 31.3597
      vertex 9 -6.81535 31.3597
      vertex 9 -7.18949 32.2
    endloop
  endfacet
  facet normal 9.03137e-017 -0.913545 -0.406737
    outer loop
      vertex -9 -7.18949 32.2
      vertex -9 -6.81535 31.3597
      vertex 9 -7.18949 32.2
    endloop
  endfacet
  facet normal 4.61655e-017 -0.978148 -0.207911
    outer loop
      vertex -9 -6.6241 30.4599
      vertex 9 -6.6241 30.4599
      vertex 9 -6.81535 31.3597
    endloop
  endfacet
  facet normal 4.61655e-017 -0.978148 -0.207911
    outer loop
      vertex -9 -6.81535 31.3597
      vertex -9 -6.6241 30.4599
      vertex 9 -6.81535 31.3597
    endloop
  endfacet
  facet normal 0 -1 0
    outer loop
      vertex 9 -6.6241 29.5401
      vertex 9 -6.6241 30.4599
      vertex -9 -6.6241 30.4599
    endloop
  endfacet
  facet normal 0 -1 0
    outer loop
      vertex -9 -6.6241 29.5401
      vertex 9 -6.6241 29.5401
      vertex -9 -6.6241 30.4599
    endloop
  endfacet
  facet normal -4.61655e-017 -0.978148 0.207911
    outer loop
      vertex 9 -6.81535 28.6403
      vertex 9 -6.6241 29.5401
      vertex -9 -6.6241 29.5401
    endloop
  endfacet
  facet normal -4.61655e-017 -0.978148 0.207911
    outer loop
      vertex -9 -6.81535 28.6403
      vertex 9 -6.81535 28.6403
      vertex -9 -6.6241 29.5401
    endloop
  endfacet
  facet normal -9.03137e-017 -0.913545 0.406737
    outer loop
      vertex 9 -7.18949 27.8
      vertex 9 -6.81535 28.6403
      vertex -9 -6.81535 28.6403
    endloop
  endfacet
  facet normal -9.03137e-017 -0.913545 0.406737
    outer loop
      vertex -9 -7.18949 27.8
      vertex 9 -7.18949 27.8
      vertex -9 -6.81535 28.6403
    endloop
  endfacet
  facet normal -1.30515e-016 -0.809017 0.587785
    outer loop
      vertex 9 -7.73016 27.0558
      vertex 9 -7.18949 27.8
      vertex -9 -7.18949 27.8
    endloop
  endfacet
  facet normal -1.30515e-016 -0.809017 0.587785
    outer loop
      vertex -9 -7.73016 27.0558
      vertex 9 -7.73016 27.0558
      vertex -9 -7.18949 27.8
    endloop
  endfacet
  facet normal -1.65011e-016 -0.669131 0.743145
    outer loop
      vertex 9 -8.41374 26.4403
      vertex 9 -7.73016 27.0558
      vertex -9 -7.73016 27.0558
    endloop
  endfacet
  facet normal -1.65011e-016 -0.669131 0.743145
    outer loop
      vertex -9 -8.41374 26.4403
      vertex 9 -8.41374 26.4403
      vertex -9 -7.73016 27.0558
    endloop
  endfacet
  facet normal -1.92296e-016 -0.5 0.866026
    outer loop
      vertex 9 -9.21036 25.9804
      vertex 9 -8.41374 26.4403
      vertex -9 -8.41374 26.4403
    endloop
  endfacet
  facet normal -1.92296e-016 -0.5 0.866026
    outer loop
      vertex -9 -9.21036 25.9804
      vertex 9 -9.21036 25.9804
      vertex -9 -8.41374 26.4403
    endloop
  endfacet
  facet normal -2.11177e-016 -0.309017 0.951057
    outer loop
      vertex 9 -10.0852 25.6962
      vertex 9 -9.21036 25.9804
      vertex -9 -9.21036 25.9804
    endloop
  endfacet
  facet normal -2.11177e-016 -0.309017 0.951057
    outer loop
      vertex -9 -10.0852 25.6962
      vertex 9 -10.0852 25.6962
      vertex -9 -9.21036 25.9804
    endloop
  endfacet
  facet normal -2.20828e-016 -0.104529 0.994522
    outer loop
      vertex 9 -11 25.6
      vertex 9 -10.0852 25.6962
      vertex -9 -10.0852 25.6962
    endloop
  endfacet
  facet normal -2.20828e-016 -0.104529 0.994522
    outer loop
      vertex -9 -11 25.6
      vertex 9 -11 25.6
      vertex -9 -10.0852 25.6962
    endloop
  endfacet
  facet normal -2.20828e-016 0.104529 0.994522
    outer loop
      vertex 9 -11.9148 25.6962
      vertex 9 -11 25.6
      vertex -9 -11 25.6
    endloop
  endfacet
  facet normal -2.20828e-016 0.104529 0.994522
    outer loop
      vertex -9 -11.9148 25.6962
      vertex 9 -11.9148 25.6962
      vertex -9 -11 25.6
    endloop
  endfacet
  facet normal -2.11177e-016 0.309017 0.951057
    outer loop
      vertex 9 -12.7896 25.9804
      vertex 9 -11.9148 25.6962
      vertex -9 -11.9148 25.6962
    endloop
  endfacet
  facet normal -2.11177e-016 0.309017 0.951057
    outer loop
      vertex -9 -12.7896 25.9804
      vertex 9 -12.7896 25.9804
      vertex -9 -11.9148 25.6962
    endloop
  endfacet
  facet normal -1.92296e-016 0.5 0.866026
    outer loop
      vertex 9 -13.5863 26.4403
      vertex 9 -12.7896 25.9804
      vertex -9 -12.7896 25.9804
    endloop
  endfacet
  facet normal -1.92296e-016 0.5 0.866026
    outer loop
      vertex -9 -13.5863 26.4403
      vertex 9 -13.5863 26.4403
      vertex -9 -12.7896 25.9804
    endloop
  endfacet
  facet normal -1.65011e-016 0.669131 0.743145
    outer loop
      vertex 9 -14.2698 27.0558
      vertex 9 -13.5863 26.4403
      vertex -9 -13.5863 26.4403
    endloop
  endfacet
  facet normal -1.65011e-016 0.669131 0.743145
    outer loop
      vertex -9 -14.2698 27.0558
      vertex 9 -14.2698 27.0558
      vertex -9 -13.5863 26.4403
    endloop
  endfacet
  facet normal -1.30515e-016 0.809017 0.587785
    outer loop
      vertex 9 -14.2698 27.0558
      vertex -9 -14.2698 27.0558
      vertex 9 -14.8105 27.8
    endloop
  endfacet
  facet normal -1.30515e-016 0.809017 0.587785
    outer loop
      vertex 9 -14.8105 27.8
      vertex -9 -14.2698 27.0558
      vertex -9 -14.8105 27.8
    endloop
  endfacet
  facet normal -9.03137e-017 0.913545 0.406737
    outer loop
      vertex 9 -14.8105 27.8
      vertex -9 -14.8105 27.8
      vertex 9 -15.1846 28.6403
    endloop
  endfacet
  facet normal -9.03137e-017 0.913545 0.406737
    outer loop
      vertex 9 -15.1846 28.6403
      vertex -9 -14.8105 27.8
      vertex -9 -15.1846 28.6403
    endloop
  endfacet
  facet normal -4.61655e-017 0.978148 0.207911
    outer loop
      vertex 9 -15.1846 28.6403
      vertex -9 -15.1846 28.6403
      vertex 9 -15.3759 29.5401
    endloop
  endfacet
  facet normal -4.61655e-017 0.978148 0.207911
    outer loop
      vertex 9 -15.3759 29.5401
      vertex -9 -15.1846 28.6403
      vertex -9 -15.3759 29.5401
    endloop
  endfacet
  facet normal 0 1 0
    outer loop
      vertex -1.2063 -13 41
      vertex -0.873229 -13 40.8918
      vertex -9 -13 41
    endloop
  endfacet
  facet normal 0 1 0
    outer loop
      vertex -9 -13 41
      vertex -0.873229 -13 40.8918
      vertex 1.55431e-015 -13 40.8
    endloop
  endfacet
  facet normal 0 1 0
    outer loop
      vertex 0.873229 -13 40.8918
      vertex 1.2063 -13 41
      vertex 9 -13 41
    endloop
  endfacet
  facet normal 0 1 0
    outer loop
      vertex 0.873229 -13 40.8918
      vertex 9 -13 41
      vertex 1.55431e-015 -13 40.8
    endloop
  endfacet
  facet normal 0 1 0
    outer loop
      vertex 1.55431e-015 -13 40.8
      vertex 9 -13 41
      vertex 9 -13 39
    endloop
  endfacet
  facet normal 0 1 0
    outer loop
      vertex 1.55431e-015 -13 40.8
      vertex 9 -13 39
      vertex -9 -13 41
    endloop
  endfacet
  facet normal 0 1 0
    outer loop
      vertex -9 -13 41
      vertex 9 -13 39
      vertex -9 -13 39
    endloop
  endfacet
  facet normal 0 0 -1
    outer loop
      vertex -1.2063 -9.5 41
      vertex -1.2063 -13 41
      vertex -9 -9.5 41
    endloop
  endfacet
  facet normal 0 0 -1
    outer loop
      vertex -9 -9.5 41
      vertex -1.2063 -13 41
      vertex -9 -13 41
    endloop
  endfacet
  facet normal 0 -1 0
    outer loop
      vertex 9 -9.5 39
      vertex 9 -9.5 41
      vertex 1.2063 -9.5 41
    endloop
  endfacet
  facet normal 0 -1 0
    outer loop
      vertex 2.33147e-015 -9.5 40.8
      vertex 9 -9.5 39
      vertex 0.873229 -9.5 40.8918
    endloop
  endfacet
  facet normal 0 -1 0
    outer loop
      vertex 0.873229 -9.5 40.8918
      vertex 9 -9.5 39
      vertex 1.2063 -9.5 41
    endloop
  endfacet
  facet normal 0 -1 0
    outer loop
      vertex -0.873229 -9.5 40.8918
      vertex 9 -9.5 39
      vertex 2.33147e-015 -9.5 40.8
    endloop
  endfacet
  facet normal 0 -1 0
    outer loop
      vertex -9 -9.5 41
      vertex 9 -9.5 39
      vertex -0.873229 -9.5 40.8918
    endloop
  endfacet
  facet normal 0 -1 0
    outer loop
      vertex -9 -9.5 41
      vertex -0.873229 -9.5 40.8918
      vertex -1.2063 -9.5 41
    endloop
  endfacet
  facet normal 0 -1 0
    outer loop
      vertex -9 -9.5 39
      vertex 9 -9.5 39
      vertex -9 -9.5 41
    endloop
  endfacet
  facet normal 0 0 1
    outer loop
      vertex 9 -13 39
      vertex 9 -9.5 39
      vertex -9 -9.5 39
    endloop
  endfacet
  facet normal 0 0 1
    outer loop
      vertex -9 -13 39
      vertex 9 -13 39
      vertex -9 -9.5 39
    endloop
  endfacet
  facet normal 0 -1 0
    outer loop
      vertex -3.17404 -22 15.6313
      vertex -6 -22 2.44249e-015
      vertex 6 -22 2.44249e-015
    endloop
  endfacet
  facet normal 0 -1 0
    outer loop
      vertex 5.37042 -22 19.4355
      vertex 5.1357 -22 18.3313
      vertex 6 -22 2.44249e-015
    endloop
  endfacet
  facet normal 0 -1 0
    outer loop
      vertex -6 -22 45
      vertex -6 -22 2.44249e-015
      vertex -5.37042 -22 19.4355
    endloop
  endfacet
  facet normal 0 -1 0
    outer loop
      vertex -6 -22 45
      vertex -5.37042 -22 19.4355
      vertex -5.37042 -22 20.5645
    endloop
  endfacet
  facet normal 0 -1 0
    outer loop
      vertex -6 -22 45
      vertex -5.37042 -22 20.5645
      vertex -5.1357 -22 21.6687
    endloop
  endfacet
  facet normal 0 -1 0
    outer loop
      vertex -1.12272 -22 14.718
      vertex -2.19638 -22 15.0669
      vertex 6 -22 2.44249e-015
    endloop
  endfacet
  facet normal 0 -1 0
    outer loop
      vertex -6 -22 45
      vertex -5.1357 -22 21.6687
      vertex -4.67654 -22 22.7
    endloop
  endfacet
  facet normal 0 -1 0
    outer loop
      vertex -2.19638 -22 15.0669
      vertex -3.17404 -22 15.6313
      vertex 6 -22 2.44249e-015
    endloop
  endfacet
  facet normal 0 -1 0
    outer loop
      vertex -6 -22 45
      vertex -4.67654 -22 22.7
      vertex -4.01298 -22 23.6133
    endloop
  endfacet
  facet normal 0 -1 0
    outer loop
      vertex -6 -22 45
      vertex -4.01298 -22 23.6133
      vertex -3.17404 -22 24.3687
    endloop
  endfacet
  facet normal 0 -1 0
    outer loop
      vertex 1.12272 -22 14.718
      vertex 0 -22 14.6
      vertex 6 -22 2.44249e-015
    endloop
  endfacet
  facet normal 0 -1 0
    outer loop
      vertex -6 -22 45
      vertex -3.17404 -22 24.3687
      vertex -2.19638 -22 24.9331
    endloop
  endfacet
  facet normal 0 -1 0
    outer loop
      vertex 4.67654 -22 17.3
      vertex 4.01298 -22 16.3867
      vertex 6 -22 2.44249e-015
    endloop
  endfacet
  facet normal 0 -1 0
    outer loop
      vertex -6 -22 45
      vertex -2.19638 -22 24.9331
      vertex -1.12272 -22 25.282
    endloop
  endfacet
  facet normal 0 -1 0
    outer loop
      vertex 6 -22 45
      vertex -6 -22 45
      vertex 0 -22 25.4
    endloop
  endfacet
  facet normal 0 -1 0
    outer loop
      vertex 2.19638 -22 15.0669
      vertex 1.12272 -22 14.718
      vertex 6 -22 2.44249e-015
    endloop
  endfacet
  facet normal 0 -1 0
    outer loop
      vertex 6 -22 45
      vertex 0 -22 25.4
      vertex 1.12272 -22 25.282
    endloop
  endfacet
  facet normal 0 -1 0
    outer loop
      vertex 6 -22 45
      vertex 1.12272 -22 25.282
      vertex 2.19638 -22 24.9331
    endloop
  endfacet
  facet normal 0 -1 0
    outer loop
      vertex 4.01298 -22 16.3867
      vertex 3.17404 -22 15.6313
      vertex 6 -22 2.44249e-015
    endloop
  endfacet
  facet normal 0 -1 0
    outer loop
      vertex 6 -22 45
      vertex 2.19638 -22 24.9331
      vertex 3.17404 -22 24.3687
    endloop
  endfacet
  facet normal 0 -1 0
    outer loop
      vertex 3.17404 -22 15.6313
      vertex 2.19638 -22 15.0669
      vertex 6 -22 2.44249e-015
    endloop
  endfacet
  facet normal 0 -1 0
    outer loop
      vertex 6 -22 45
      vertex 3.17404 -22 24.3687
      vertex 4.01298 -22 23.6133
    endloop
  endfacet
  facet normal 0 -1 0
    outer loop
      vertex 6 -22 45
      vertex 4.01298 -22 23.6133
      vertex 4.67654 -22 22.7
    endloop
  endfacet
  facet normal 0 -1 0
    outer loop
      vertex 5.1357 -22 18.3313
      vertex 4.67654 -22 17.3
      vertex 6 -22 2.44249e-015
    endloop
  endfacet
  facet normal 0 -1 0
    outer loop
      vertex 6 -22 45
      vertex 4.67654 -22 22.7
      vertex 5.1357 -22 21.6687
    endloop
  endfacet
  facet normal 0 -1 0
    outer loop
      vertex 6 -22 45
      vertex 5.37042 -22 20.5645
      vertex 6 -22 2.44249e-015
    endloop
  endfacet
  facet normal 0 -1 0
    outer loop
      vertex 6 -22 45
      vertex 5.1357 -22 21.6687
      vertex 5.37042 -22 20.5645
    endloop
  endfacet
  facet normal 0 -1 0
    outer loop
      vertex 5.37042 -22 20.5645
      vertex 5.37042 -22 19.4355
      vertex 6 -22 2.44249e-015
    endloop
  endfacet
  facet normal 0 -1 0
    outer loop
      vertex -4.01298 -22 16.3867
      vertex -6 -22 2.44249e-015
      vertex -3.17404 -22 15.6313
    endloop
  endfacet
  facet normal 0 -1 0
    outer loop
      vertex -4.67654 -22 17.3
      vertex -6 -22 2.44249e-015
      vertex -4.01298 -22 16.3867
    endloop
  endfacet
  facet normal 0 -1 0
    outer loop
      vertex -5.1357 -22 18.3313
      vertex -6 -22 2.44249e-015
      vertex -4.67654 -22 17.3
    endloop
  endfacet
  facet normal 0 -1 0
    outer loop
      vertex -5.37042 -22 19.4355
      vertex -6 -22 2.44249e-015
      vertex -5.1357 -22 18.3313
    endloop
  endfacet
  facet normal 0 -1 0
    outer loop
      vertex 0 -22 14.6
      vertex -1.12272 -22 14.718
      vertex 6 -22 2.44249e-015
    endloop
  endfacet
  facet normal 0 -1 0
    outer loop
      vertex -1.12272 -22 25.282
      vertex 0 -22 25.4
      vertex -6 -22 45
    endloop
  endfacet
  facet normal -1.57009e-016 -0.707107 0.707107
    outer loop
      vertex -6 -22 45
      vertex 6 -22 45
      vertex 7.5 -20.5 46.5
    endloop
  endfacet
  facet normal -1.57009e-016 -0.707107 0.707107
    outer loop
      vertex 3.68183 -20 47
      vertex -6 -22 45
      vertex 7 -20 47
    endloop
  endfacet
  facet normal -1.57009e-016 -0.707107 0.707107
    outer loop
      vertex 7 -20 47
      vertex -6 -22 45
      vertex 7.5 -20.5 46.5
    endloop
  endfacet
  facet normal -1.57009e-016 -0.707107 0.707107
    outer loop
      vertex -7 -20 47
      vertex -6 -22 45
      vertex -3.68183 -20 47
    endloop
  endfacet
  facet normal -1.57009e-016 -0.707107 0.707107
    outer loop
      vertex -7.5 -20.5 46.5
      vertex -6 -22 45
      vertex -7 -20 47
    endloop
  endfacet
  facet normal -1.57009e-016 -0.707107 0.707107
    outer loop
      vertex 3.68183 -20 47
      vertex -3.68183 -20 47
      vertex -6 -22 45
    endloop
  endfacet
  facet normal 0.707107 -0.707107 0
    outer loop
      vertex 9 -19 2.44249e-015
      vertex 9 -19 45
      vertex 7.5 -20.5 46.5
    endloop
  endfacet
  facet normal 0.707107 -0.707107 0
    outer loop
      vertex 6 -22 2.44249e-015
      vertex 9 -19 2.44249e-015
      vertex 6 -22 45
    endloop
  endfacet
  facet normal 0.707107 -0.707107 0
    outer loop
      vertex 6 -22 45
      vertex 9 -19 2.44249e-015
      vertex 7.5 -20.5 46.5
    endloop
  endfacet
  facet normal 1 0 0
    outer loop
      vertex 9 -10.0852 5.69615
      vertex 9 -19 2.44249e-015
      vertex 9 5.42342e-031 2.44249e-015
    endloop
  endfacet
  facet normal 1 0 0
    outer loop
      vertex 9 -19 45
      vertex 9 -19 2.44249e-015
      vertex 9 -15.3759 9.54008
    endloop
  endfacet
  facet normal 1 0 0
    outer loop
      vertex 9 -9.21036 5.9804
      vertex 9 -10.0852 5.69615
      vertex 9 5.42342e-031 2.44249e-015
    endloop
  endfacet
  facet normal 1 0 0
    outer loop
      vertex 9 -19 45
      vertex 9 -15.3759 9.54008
      vertex 9 -15.3759 10.4599
    endloop
  endfacet
  facet normal 1 0 0
    outer loop
      vertex 9 -15.3759 30.4599
      vertex 9 -15.1846 31.3597
      vertex 9 -19 45
    endloop
  endfacet
  facet normal 1 0 0
    outer loop
      vertex 9 -19 45
      vertex 9 -15.3759 10.4599
      vertex 9 -15.1846 11.3597
    endloop
  endfacet
  facet normal 1 0 0
    outer loop
      vertex 9 -19 45
      vertex 9 -15.1846 11.3597
      vertex 9 -14.8105 12.2
    endloop
  endfacet
  facet normal 1 0 0
    outer loop
      vertex 9 -8.41374 6.44033
      vertex 9 -9.21036 5.9804
      vertex 9 5.42342e-031 2.44249e-015
    endloop
  endfacet
  facet normal 1 0 0
    outer loop
      vertex 9 -19 45
      vertex 9 -14.8105 12.2
      vertex 9 -14.2698 12.9442
    endloop
  endfacet
  facet normal 1 0 0
    outer loop
      vertex 9 -19 45
      vertex 9 -14.2698 12.9442
      vertex 9 -13.5863 13.5597
    endloop
  endfacet
  facet normal 1 0 0
    outer loop
      vertex 9 -7.18949 7.8
      vertex 9 -7.73016 7.05583
      vertex 9 5.42342e-031 2.44249e-015
    endloop
  endfacet
  facet normal 1 0 0
    outer loop
      vertex 9 -19 45
      vertex 9 -13.5863 13.5597
      vertex 9 -12.7896 14.0196
    endloop
  endfacet
  facet normal 1 0 0
    outer loop
      vertex 9 -7.73016 7.05583
      vertex 9 -8.41374 6.44033
      vertex 9 5.42342e-031 2.44249e-015
    endloop
  endfacet
  facet normal 1 0 0
    outer loop
      vertex 9 -19 45
      vertex 9 -12.7896 14.0196
      vertex 9 -11.9148 14.3038
    endloop
  endfacet
  facet normal 1 0 0
    outer loop
      vertex 9 -9.5 41
      vertex 9 -9.5 39
      vertex 9 5.42342e-031 45
    endloop
  endfacet
  facet normal 1 0 0
    outer loop
      vertex 9 -6.81535 8.64033
      vertex 9 -7.18949 7.8
      vertex 9 5.42342e-031 2.44249e-015
    endloop
  endfacet
  facet normal 1 0 0
    outer loop
      vertex 9 -14.2698 27.0558
      vertex 9 -14.8105 27.8
      vertex 9 -11 14.4
    endloop
  endfacet
  facet normal 1 0 0
    outer loop
      vertex 9 -13.5863 26.4403
      vertex 9 -10.0852 14.3038
      vertex 9 -9.21036 14.0196
    endloop
  endfacet
  facet normal 1 0 0
    outer loop
      vertex 9 -6.6241 10.4599
      vertex 9 -6.6241 9.54008
      vertex 9 5.42342e-031 2.44249e-015
    endloop
  endfacet
  facet normal 1 0 0
    outer loop
      vertex 9 -12.7896 25.9804
      vertex 9 -9.21036 14.0196
      vertex 9 -8.41374 13.5597
    endloop
  endfacet
  facet normal 1 0 0
    outer loop
      vertex 9 -6.81535 11.3597
      vertex 9 -6.6241 10.4599
      vertex 9 5.42342e-031 2.44249e-015
    endloop
  endfacet
  facet normal 1 0 0
    outer loop
      vertex 9 -14.2698 32.9442
      vertex 9 -13.5863 33.5597
      vertex 9 -19 45
    endloop
  endfacet
  facet normal 1 0 0
    outer loop
      vertex 9 -14.8105 27.8
      vertex 9 -11.9148 14.3038
      vertex 9 -11 14.4
    endloop
  endfacet
  facet normal 1 0 0
    outer loop
      vertex 9 -11 5.6
      vertex 9 -19 2.44249e-015
      vertex 9 -10.0852 5.69615
    endloop
  endfacet
  facet normal 1 0 0
    outer loop
      vertex 9 -11.9148 5.69615
      vertex 9 -19 2.44249e-015
      vertex 9 -11 5.6
    endloop
  endfacet
  facet normal 1 0 0
    outer loop
      vertex 9 -12.7896 5.9804
      vertex 9 -19 2.44249e-015
      vertex 9 -11.9148 5.69615
    endloop
  endfacet
  facet normal 1 0 0
    outer loop
      vertex 9 -13.5863 6.44033
      vertex 9 -19 2.44249e-015
      vertex 9 -12.7896 5.9804
    endloop
  endfacet
  facet normal 1 0 0
    outer loop
      vertex 9 -14.2698 7.05583
      vertex 9 -19 2.44249e-015
      vertex 9 -13.5863 6.44033
    endloop
  endfacet
  facet normal 1 0 0
    outer loop
      vertex 9 -14.8105 7.8
      vertex 9 -19 2.44249e-015
      vertex 9 -14.2698 7.05583
    endloop
  endfacet
  facet normal 1 0 0
    outer loop
      vertex 9 -15.1846 8.64033
      vertex 9 -19 2.44249e-015
      vertex 9 -14.8105 7.8
    endloop
  endfacet
  facet normal 1 0 0
    outer loop
      vertex 9 -15.3759 9.54008
      vertex 9 -19 2.44249e-015
      vertex 9 -15.1846 8.64033
    endloop
  endfacet
  facet normal 1 0 0
    outer loop
      vertex 9 -19 45
      vertex 9 -15.3759 29.5401
      vertex 9 -15.3759 30.4599
    endloop
  endfacet
  facet normal 1 0 0
    outer loop
      vertex 9 -12.7896 25.9804
      vertex 9 -13.5863 26.4403
      vertex 9 -9.21036 14.0196
    endloop
  endfacet
  facet normal 1 0 0
    outer loop
      vertex 9 -11.9148 25.6962
      vertex 9 -7.73016 12.9442
      vertex 9 -7.18949 12.2
    endloop
  endfacet
  facet normal 1 0 0
    outer loop
      vertex 9 -11.9148 25.6962
      vertex 9 -12.7896 25.9804
      vertex 9 -8.41374 13.5597
    endloop
  endfacet
  facet normal 1 0 0
    outer loop
      vertex 9 -11 25.6
      vertex 9 -7.18949 12.2
      vertex 9 5.42342e-031 2.44249e-015
    endloop
  endfacet
  facet normal 1 0 0
    outer loop
      vertex 9 -13 39
      vertex 9 -19 45
      vertex 9 -13.5863 33.5597
    endloop
  endfacet
  facet normal 1 0 0
    outer loop
      vertex 9 -10.0852 25.6962
      vertex 9 -11 25.6
      vertex 9 5.42342e-031 2.44249e-015
    endloop
  endfacet
  facet normal 1 0 0
    outer loop
      vertex 9 5.42342e-031 45
      vertex 9 -13.5863 33.5597
      vertex 9 -12.7896 34.0196
    endloop
  endfacet
  facet normal 1 0 0
    outer loop
      vertex 9 -9.21036 25.9804
      vertex 9 -10.0852 25.6962
      vertex 9 5.42342e-031 2.44249e-015
    endloop
  endfacet
  facet normal 1 0 0
    outer loop
      vertex 9 5.42342e-031 45
      vertex 9 -12.7896 34.0196
      vertex 9 -11.9148 34.3038
    endloop
  endfacet
  facet normal 1 0 0
    outer loop
      vertex 9 -11 25.6
      vertex 9 -11.9148 25.6962
      vertex 9 -7.18949 12.2
    endloop
  endfacet
  facet normal 1 0 0
    outer loop
      vertex 9 5.42342e-031 45
      vertex 9 -11.9148 34.3038
      vertex 9 -11 34.4
    endloop
  endfacet
  facet normal 1 0 0
    outer loop
      vertex 9 5.42342e-031 45
      vertex 9 -11 34.4
      vertex 9 -10.0852 34.3038
    endloop
  endfacet
  facet normal 1 0 0
    outer loop
      vertex 9 -7.73016 27.0558
      vertex 9 -8.41374 26.4403
      vertex 9 5.42342e-031 2.44249e-015
    endloop
  endfacet
  facet normal 1 0 0
    outer loop
      vertex 9 5.42342e-031 45
      vertex 9 -10.0852 34.3038
      vertex 9 -9.21036 34.0196
    endloop
  endfacet
  facet normal 1 0 0
    outer loop
      vertex 9 -7.18949 27.8
      vertex 9 -7.73016 27.0558
      vertex 9 5.42342e-031 2.44249e-015
    endloop
  endfacet
  facet normal 1 0 0
    outer loop
      vertex 9 5.42342e-031 45
      vertex 9 -9.21036 34.0196
      vertex 9 -8.41374 33.5597
    endloop
  endfacet
  facet normal 1 0 0
    outer loop
      vertex 9 -6.81535 28.6403
      vertex 9 -7.18949 27.8
      vertex 9 5.42342e-031 2.44249e-015
    endloop
  endfacet
  facet normal 1 0 0
    outer loop
      vertex 9 5.42342e-031 45
      vertex 9 -8.41374 33.5597
      vertex 9 -7.73016 32.9442
    endloop
  endfacet
  facet normal 1 0 0
    outer loop
      vertex 9 -6.6241 29.5401
      vertex 9 -6.81535 28.6403
      vertex 9 5.42342e-031 2.44249e-015
    endloop
  endfacet
  facet normal 1 0 0
    outer loop
      vertex 9 5.42342e-031 45
      vertex 9 -7.73016 32.9442
      vertex 9 -7.18949 32.2
    endloop
  endfacet
  facet normal 1 0 0
    outer loop
      vertex 9 5.42342e-031 45
      vertex 9 -6.81535 31.3597
      vertex 9 5.42342e-031 2.44249e-015
    endloop
  endfacet
  facet normal 1 0 0
    outer loop
      vertex 9 5.42342e-031 45
      vertex 9 -7.18949 32.2
      vertex 9 -6.81535 31.3597
    endloop
  endfacet
  facet normal 1 0 0
    outer loop
      vertex 9 -6.81535 31.3597
      vertex 9 -6.6241 30.4599
      vertex 9 5.42342e-031 2.44249e-015
    endloop
  endfacet
  facet normal 1 0 0
    outer loop
      vertex 9 -6.6241 30.4599
      vertex 9 -6.6241 29.5401
      vertex 9 5.42342e-031 2.44249e-015
    endloop
  endfacet
  facet normal 1 0 0
    outer loop
      vertex 9 -8.41374 26.4403
      vertex 9 -9.21036 25.9804
      vertex 9 5.42342e-031 2.44249e-015
    endloop
  endfacet
  facet normal 1 0 0
    outer loop
      vertex 9 -13.5863 26.4403
      vertex 9 -11 14.4
      vertex 9 -10.0852 14.3038
    endloop
  endfacet
  facet normal 1 0 0
    outer loop
      vertex 9 -11.9148 25.6962
      vertex 9 -8.41374 13.5597
      vertex 9 -7.73016 12.9442
    endloop
  endfacet
  facet normal 1 0 0
    outer loop
      vertex 9 -13.5863 26.4403
      vertex 9 -14.2698 27.0558
      vertex 9 -11 14.4
    endloop
  endfacet
  facet normal 1 0 0
    outer loop
      vertex 9 -14.8105 27.8
      vertex 9 -15.1846 28.6403
      vertex 9 -11.9148 14.3038
    endloop
  endfacet
  facet normal 1 0 0
    outer loop
      vertex 9 -19 45
      vertex 9 -15.1846 28.6403
      vertex 9 -15.3759 29.5401
    endloop
  endfacet
  facet normal 1 0 0
    outer loop
      vertex 9 -19 45
      vertex 9 -11.9148 14.3038
      vertex 9 -15.1846 28.6403
    endloop
  endfacet
  facet normal 1 0 0
    outer loop
      vertex 9 -9.5 39
      vertex 9 -13 39
      vertex 9 -13.5863 33.5597
    endloop
  endfacet
  facet normal 1 0 0
    outer loop
      vertex 9 -13 41
      vertex 9 -19 45
      vertex 9 -13 39
    endloop
  endfacet
  facet normal 1 0 0
    outer loop
      vertex 9 5.42342e-031 45
      vertex 9 -19 45
      vertex 9 -13 41
    endloop
  endfacet
  facet normal 1 0 0
    outer loop
      vertex 9 5.42342e-031 45
      vertex 9 -13 41
      vertex 9 -9.5 41
    endloop
  endfacet
  facet normal 1 0 0
    outer loop
      vertex 9 5.42342e-031 45
      vertex 9 -9.5 39
      vertex 9 -13.5863 33.5597
    endloop
  endfacet
  facet normal 1 0 0
    outer loop
      vertex 9 -7.18949 12.2
      vertex 9 -6.81535 11.3597
      vertex 9 5.42342e-031 2.44249e-015
    endloop
  endfacet
  facet normal 1 0 0
    outer loop
      vertex 9 -6.6241 9.54008
      vertex 9 -6.81535 8.64033
      vertex 9 5.42342e-031 2.44249e-015
    endloop
  endfacet
  facet normal 1 0 0
    outer loop
      vertex 9 -15.1846 31.3597
      vertex 9 -14.8105 32.2
      vertex 9 -19 45
    endloop
  endfacet
  facet normal 1 0 0
    outer loop
      vertex 9 -14.8105 32.2
      vertex 9 -14.2698 32.9442
      vertex 9 -19 45
    endloop
  endfacet
  facet normal 0.707107 0 0.707107
    outer loop
      vertex 7.5 -20.5 46.5
      vertex 9 -19 45
      vertex 9 5.42342e-031 45
    endloop
  endfacet
  facet normal 0.707107 0 0.707107
    outer loop
      vertex 7 -20 47
      vertex 7.5 -20.5 46.5
      vertex 7 5.42342e-031 47
    endloop
  endfacet
  facet normal 0.707107 0 0.707107
    outer loop
      vertex 7 5.42342e-031 47
      vertex 7.5 -20.5 46.5
      vertex 9 5.42342e-031 45
    endloop
  endfacet
  facet normal 0 0 1
    outer loop
      vertex 3.68183 5.42342e-031 47
      vertex 3.68183 -20 47
      vertex 7 -20 47
    endloop
  endfacet
  facet normal 0 0 1
    outer loop
      vertex 7 5.42342e-031 47
      vertex 3.68183 5.42342e-031 47
      vertex 7 -20 47
    endloop
  endfacet
  facet normal -0.913546 2.93161e-016 -0.406736
    outer loop
      vertex 3.99444 5.42342e-031 46.2979
      vertex 3.99444 -20 46.2979
      vertex 3.68183 5.42342e-031 47
    endloop
  endfacet
  facet normal -0.913546 2.93161e-016 -0.406736
    outer loop
      vertex 3.68183 5.42342e-031 47
      vertex 3.99444 -20 46.2979
      vertex 3.68183 -20 47
    endloop
  endfacet
  facet normal -0.978147 2.63358e-016 -0.207912
    outer loop
      vertex 4.17699 5.42342e-031 45.439
      vertex 4.17699 -20 45.439
      vertex 3.99444 5.42342e-031 46.2979
    endloop
  endfacet
  facet normal -0.978147 2.63358e-016 -0.207912
    outer loop
      vertex 3.99444 5.42342e-031 46.2979
      vertex 4.17699 -20 45.439
      vertex 3.99444 -20 46.2979
    endloop
  endfacet
  facet normal -1 2.22045e-016 4.93038e-032
    outer loop
      vertex 4.17699 5.42342e-031 44.561
      vertex 4.17699 -20 44.561
      vertex 4.17699 5.42342e-031 45.439
    endloop
  endfacet
  facet normal -1 2.22045e-016 4.93038e-032
    outer loop
      vertex 4.17699 5.42342e-031 45.439
      vertex 4.17699 -20 44.561
      vertex 4.17699 -20 45.439
    endloop
  endfacet
  facet normal -0.978147 1.71027e-016 0.207912
    outer loop
      vertex 4.17699 5.42342e-031 44.561
      vertex 3.99444 5.42342e-031 43.7021
      vertex 4.17699 -20 44.561
    endloop
  endfacet
  facet normal -0.978147 1.71027e-016 0.207912
    outer loop
      vertex 4.17699 -20 44.561
      vertex 3.99444 5.42342e-031 43.7021
      vertex 3.99444 -20 43.7021
    endloop
  endfacet
  facet normal -0.913546 1.12534e-016 0.406736
    outer loop
      vertex 3.99444 5.42342e-031 43.7021
      vertex 3.63731 5.42342e-031 42.9
      vertex 3.99444 -20 43.7021
    endloop
  endfacet
  facet normal -0.913546 1.12534e-016 0.406736
    outer loop
      vertex 3.99444 -20 43.7021
      vertex 3.63731 5.42342e-031 42.9
      vertex 3.63731 -20 42.9
    endloop
  endfacet
  facet normal -0.809017 4.91232e-017 0.587785
    outer loop
      vertex 3.63731 5.42342e-031 42.9
      vertex 3.12121 5.42342e-031 42.1897
      vertex 3.63731 -20 42.9
    endloop
  endfacet
  facet normal -0.809017 4.91232e-017 0.587785
    outer loop
      vertex 3.63731 -20 42.9
      vertex 3.12121 5.42342e-031 42.1897
      vertex 3.12121 -20 42.1897
    endloop
  endfacet
  facet normal -0.66913 -1.64346e-017 0.743145
    outer loop
      vertex 3.12121 -20 42.1897
      vertex 3.12121 5.42342e-031 42.1897
      vertex 2.4687 5.42342e-031 41.6021
    endloop
  endfacet
  facet normal -0.66913 -1.64346e-017 0.743145
    outer loop
      vertex 2.4687 -20 41.6021
      vertex 3.12121 -20 42.1897
      vertex 2.4687 5.42342e-031 41.6021
    endloop
  endfacet
  facet normal -0.5 -8.12738e-017 0.866025
    outer loop
      vertex 2.4687 -20 41.6021
      vertex 2.4687 5.42342e-031 41.6021
      vertex 1.70829 5.42342e-031 41.1631
    endloop
  endfacet
  facet normal -0.5 -8.12738e-017 0.866025
    outer loop
      vertex 1.70829 -20 41.1631
      vertex 2.4687 -20 41.6021
      vertex 1.70829 5.42342e-031 41.1631
    endloop
  endfacet
  facet normal -0.309017 -1.42561e-016 0.951057
    outer loop
      vertex 1.70829 -20 41.1631
      vertex 1.70829 5.42342e-031 41.1631
      vertex 0.873229 5.42342e-031 40.8918
    endloop
  endfacet
  facet normal -0.309017 -1.42561e-016 0.951057
    outer loop
      vertex 1.2063 -9.5 41
      vertex 1.70829 -20 41.1631
      vertex 0.873229 5.42342e-031 40.8918
    endloop
  endfacet
  facet normal -0.309017 -1.42561e-016 0.951057
    outer loop
      vertex 0.873229 -9.5 40.8918
      vertex 1.2063 -9.5 41
      vertex 0.873229 5.42342e-031 40.8918
    endloop
  endfacet
  facet normal -0.309017 -1.42561e-016 0.951057
    outer loop
      vertex 1.2063 -13 41
      vertex 1.70829 -20 41.1631
      vertex 1.2063 -9.5 41
    endloop
  endfacet
  facet normal -0.309017 -1.42561e-016 0.951057
    outer loop
      vertex 0.873229 -20 40.8918
      vertex 1.70829 -20 41.1631
      vertex 0.873229 -13 40.8918
    endloop
  endfacet
  facet normal -0.309017 -1.42561e-016 0.951057
    outer loop
      vertex 1.2063 -13 41
      vertex 0.873229 -13 40.8918
      vertex 1.70829 -20 41.1631
    endloop
  endfacet
  facet normal -0.104528 -1.97618e-016 0.994522
    outer loop
      vertex 0.873229 -9.5 40.8918
      vertex 0.873229 5.42342e-031 40.8918
      vertex 4.44089e-015 5.42342e-031 40.8
    endloop
  endfacet
  facet normal -0.104528 -1.97618e-016 0.994522
    outer loop
      vertex 2.33147e-015 -9.5 40.8
      vertex 0.873229 -9.5 40.8918
      vertex 4.44089e-015 5.42342e-031 40.8
    endloop
  endfacet
  facet normal 0.104528 -2.44038e-016 0.994522
    outer loop
      vertex 2.33147e-015 -9.5 40.8
      vertex 4.44089e-015 5.42342e-031 40.8
      vertex -0.873229 5.42342e-031 40.8918
    endloop
  endfacet
  facet normal 0.104528 -2.44038e-016 0.994522
    outer loop
      vertex -0.873229 -9.5 40.8918
      vertex 2.33147e-015 -9.5 40.8
      vertex -0.873229 5.42342e-031 40.8918
    endloop
  endfacet
  facet normal 0.309017 -2.79793e-016 0.951057
    outer loop
      vertex -1.2063 -9.5 41
      vertex -1.70829 5.42342e-031 41.1631
      vertex -1.2063 -13 41
    endloop
  endfacet
  facet normal 0.309017 -2.79793e-016 0.951057
    outer loop
      vertex -0.873229 -20 40.8918
      vertex -0.873229 -13 40.8918
      vertex -1.2063 -13 41
    endloop
  endfacet
  facet normal 0.309017 -2.79793e-016 0.951057
    outer loop
      vertex -1.70829 -20 41.1631
      vertex -0.873229 -20 40.8918
      vertex -1.2063 -13 41
    endloop
  endfacet
  facet normal 0.309017 -2.79793e-016 0.951057
    outer loop
      vertex -0.873229 -9.5 40.8918
      vertex -0.873229 5.42342e-031 40.8918
      vertex -1.2063 -9.5 41
    endloop
  endfacet
  facet normal 0.309017 -2.79793e-016 0.951057
    outer loop
      vertex -0.873229 5.42342e-031 40.8918
      vertex -1.70829 5.42342e-031 41.1631
      vertex -1.2063 -9.5 41
    endloop
  endfacet
  facet normal 0.309017 -2.79793e-016 0.951057
    outer loop
      vertex -1.70829 5.42342e-031 41.1631
      vertex -1.70829 -20 41.1631
      vertex -1.2063 -13 41
    endloop
  endfacet
  facet normal 0.5 -3.03319e-016 0.866025
    outer loop
      vertex -1.70829 -20 41.1631
      vertex -1.70829 5.42342e-031 41.1631
      vertex -2.4687 5.42342e-031 41.6021
    endloop
  endfacet
  facet normal 0.5 -3.03319e-016 0.866025
    outer loop
      vertex -2.4687 -20 41.6021
      vertex -1.70829 -20 41.1631
      vertex -2.4687 5.42342e-031 41.6021
    endloop
  endfacet
  facet normal 0.66913 -3.13588e-016 0.743145
    outer loop
      vertex -2.4687 -20 41.6021
      vertex -2.4687 5.42342e-031 41.6021
      vertex -3.12121 5.42342e-031 42.1897
    endloop
  endfacet
  facet normal 0.66913 -3.13588e-016 0.743145
    outer loop
      vertex -3.12121 -20 42.1897
      vertex -2.4687 -20 41.6021
      vertex -3.12121 5.42342e-031 42.1897
    endloop
  endfacet
  facet normal 0.809017 -3.10152e-016 0.587785
    outer loop
      vertex -3.12121 -20 42.1897
      vertex -3.12121 5.42342e-031 42.1897
      vertex -3.63731 5.42342e-031 42.9
    endloop
  endfacet
  facet normal 0.809017 -3.10152e-016 0.587785
    outer loop
      vertex -3.63731 -20 42.9
      vertex -3.12121 -20 42.1897
      vertex -3.63731 5.42342e-031 42.9
    endloop
  endfacet
  facet normal 0.913546 -2.93161e-016 0.406736
    outer loop
      vertex -3.63731 -20 42.9
      vertex -3.63731 5.42342e-031 42.9
      vertex -3.99444 5.42342e-031 43.7021
    endloop
  endfacet
  facet normal 0.913546 -2.93161e-016 0.406736
    outer loop
      vertex -3.99444 -20 43.7021
      vertex -3.63731 -20 42.9
      vertex -3.99444 5.42342e-031 43.7021
    endloop
  endfacet
  facet normal 0.978147 -2.63358e-016 0.207912
    outer loop
      vertex -3.99444 -20 43.7021
      vertex -3.99444 5.42342e-031 43.7021
      vertex -4.17699 5.42342e-031 44.561
    endloop
  endfacet
  facet normal 0.978147 -2.63358e-016 0.207912
    outer loop
      vertex -4.17699 -20 44.561
      vertex -3.99444 -20 43.7021
      vertex -4.17699 5.42342e-031 44.561
    endloop
  endfacet
  facet normal 1 -2.22045e-016 -4.93038e-032
    outer loop
      vertex -4.17699 -20 44.561
      vertex -4.17699 5.42342e-031 44.561
      vertex -4.17699 5.42342e-031 45.439
    endloop
  endfacet
  facet normal 1 -2.22045e-016 -4.93038e-032
    outer loop
      vertex -4.17699 -20 45.439
      vertex -4.17699 -20 44.561
      vertex -4.17699 5.42342e-031 45.439
    endloop
  endfacet
  facet normal 0.978147 -1.71027e-016 -0.207912
    outer loop
      vertex -4.17699 5.42342e-031 45.439
      vertex -3.99444 5.42342e-031 46.2979
      vertex -3.99444 -20 46.2979
    endloop
  endfacet
  facet normal 0.978147 -1.71027e-016 -0.207912
    outer loop
      vertex -4.17699 -20 45.439
      vertex -4.17699 5.42342e-031 45.439
      vertex -3.99444 -20 46.2979
    endloop
  endfacet
  facet normal 0.913546 -1.12534e-016 -0.406736
    outer loop
      vertex -3.99444 5.42342e-031 46.2979
      vertex -3.68183 5.42342e-031 47
      vertex -3.68183 -20 47
    endloop
  endfacet
  facet normal 0.913546 -1.12534e-016 -0.406736
    outer loop
      vertex -3.99444 -20 46.2979
      vertex -3.99444 5.42342e-031 46.2979
      vertex -3.68183 -20 47
    endloop
  endfacet
  facet normal 0 0 1
    outer loop
      vertex -7 5.42342e-031 47
      vertex -7 -20 47
      vertex -3.68183 -20 47
    endloop
  endfacet
  facet normal 0 0 1
    outer loop
      vertex -3.68183 5.42342e-031 47
      vertex -7 5.42342e-031 47
      vertex -3.68183 -20 47
    endloop
  endfacet
  facet normal 1 -2.22045e-016 0
    outer loop
      vertex -5.37042 5.42342e-031 19.4355
      vertex -5.37042 5.42342e-031 20.5645
      vertex -5.37042 -22 20.5645
    endloop
  endfacet
  facet normal 1 -2.22045e-016 0
    outer loop
      vertex -5.37042 -22 19.4355
      vertex -5.37042 5.42342e-031 19.4355
      vertex -5.37042 -22 20.5645
    endloop
  endfacet
  facet normal 0.978148 -1.71027e-016 -0.207912
    outer loop
      vertex -5.37042 5.42342e-031 20.5645
      vertex -5.1357 5.42342e-031 21.6687
      vertex -5.1357 -22 21.6687
    endloop
  endfacet
  facet normal 0.978148 -1.71027e-016 -0.207912
    outer loop
      vertex -5.37042 -22 20.5645
      vertex -5.37042 5.42342e-031 20.5645
      vertex -5.1357 -22 21.6687
    endloop
  endfacet
  facet normal 0.913545 -1.12534e-016 -0.406737
    outer loop
      vertex -5.1357 5.42342e-031 21.6687
      vertex -4.67654 5.42342e-031 22.7
      vertex -4.67654 -22 22.7
    endloop
  endfacet
  facet normal 0.913545 -1.12534e-016 -0.406737
    outer loop
      vertex -5.1357 -22 21.6687
      vertex -5.1357 5.42342e-031 21.6687
      vertex -4.67654 -22 22.7
    endloop
  endfacet
  facet normal 0.809017 -4.91233e-017 -0.587785
    outer loop
      vertex -4.67654 5.42342e-031 22.7
      vertex -4.01298 5.42342e-031 23.6133
      vertex -4.01298 -22 23.6133
    endloop
  endfacet
  facet normal 0.809017 -4.91233e-017 -0.587785
    outer loop
      vertex -4.67654 -22 22.7
      vertex -4.67654 5.42342e-031 22.7
      vertex -4.01298 -22 23.6133
    endloop
  endfacet
  facet normal 0.669131 1.64344e-017 -0.743145
    outer loop
      vertex -3.17404 5.42342e-031 24.3687
      vertex -3.17404 -22 24.3687
      vertex -4.01298 5.42342e-031 23.6133
    endloop
  endfacet
  facet normal 0.669131 1.64344e-017 -0.743145
    outer loop
      vertex -4.01298 5.42342e-031 23.6133
      vertex -3.17404 -22 24.3687
      vertex -4.01298 -22 23.6133
    endloop
  endfacet
  facet normal 0.5 8.12741e-017 -0.866026
    outer loop
      vertex -2.19638 5.42342e-031 24.9331
      vertex -2.19638 -22 24.9331
      vertex -3.17404 5.42342e-031 24.3687
    endloop
  endfacet
  facet normal 0.5 8.12741e-017 -0.866026
    outer loop
      vertex -3.17404 5.42342e-031 24.3687
      vertex -2.19638 -22 24.9331
      vertex -3.17404 -22 24.3687
    endloop
  endfacet
  facet normal 0.309017 1.42561e-016 -0.951056
    outer loop
      vertex -1.12272 5.42342e-031 25.282
      vertex -1.12272 -22 25.282
      vertex -2.19638 5.42342e-031 24.9331
    endloop
  endfacet
  facet normal 0.309017 1.42561e-016 -0.951056
    outer loop
      vertex -2.19638 5.42342e-031 24.9331
      vertex -1.12272 -22 25.282
      vertex -2.19638 -22 24.9331
    endloop
  endfacet
  facet normal 0.104529 1.97618e-016 -0.994522
    outer loop
      vertex 4.88498e-015 5.42342e-031 25.4
      vertex 0 -22 25.4
      vertex -1.12272 5.42342e-031 25.282
    endloop
  endfacet
  facet normal 0.104529 1.97618e-016 -0.994522
    outer loop
      vertex -1.12272 5.42342e-031 25.282
      vertex 0 -22 25.4
      vertex -1.12272 -22 25.282
    endloop
  endfacet
  facet normal -0.104529 2.44038e-016 -0.994522
    outer loop
      vertex 1.12272 5.42342e-031 25.282
      vertex 1.12272 -22 25.282
      vertex 4.88498e-015 5.42342e-031 25.4
    endloop
  endfacet
  facet normal -0.104529 2.44038e-016 -0.994522
    outer loop
      vertex 4.88498e-015 5.42342e-031 25.4
      vertex 1.12272 -22 25.282
      vertex 0 -22 25.4
    endloop
  endfacet
  facet normal -0.309017 2.79793e-016 -0.951056
    outer loop
      vertex 2.19638 5.42342e-031 24.9331
      vertex 2.19638 -22 24.9331
      vertex 1.12272 5.42342e-031 25.282
    endloop
  endfacet
  facet normal -0.309017 2.79793e-016 -0.951056
    outer loop
      vertex 1.12272 5.42342e-031 25.282
      vertex 2.19638 -22 24.9331
      vertex 1.12272 -22 25.282
    endloop
  endfacet
  facet normal -0.5 3.03319e-016 -0.866026
    outer loop
      vertex 3.17404 5.42342e-031 24.3687
      vertex 3.17404 -22 24.3687
      vertex 2.19638 5.42342e-031 24.9331
    endloop
  endfacet
  facet normal -0.5 3.03319e-016 -0.866026
    outer loop
      vertex 2.19638 5.42342e-031 24.9331
      vertex 3.17404 -22 24.3687
      vertex 2.19638 -22 24.9331
    endloop
  endfacet
  facet normal -0.669131 3.13588e-016 -0.743145
    outer loop
      vertex 4.01298 5.42342e-031 23.6133
      vertex 4.01298 -22 23.6133
      vertex 3.17404 5.42342e-031 24.3687
    endloop
  endfacet
  facet normal -0.669131 3.13588e-016 -0.743145
    outer loop
      vertex 3.17404 5.42342e-031 24.3687
      vertex 4.01298 -22 23.6133
      vertex 3.17404 -22 24.3687
    endloop
  endfacet
  facet normal -0.809017 3.10152e-016 -0.587785
    outer loop
      vertex 4.67654 5.42342e-031 22.7
      vertex 4.67654 -22 22.7
      vertex 4.01298 5.42342e-031 23.6133
    endloop
  endfacet
  facet normal -0.809017 3.10152e-016 -0.587785
    outer loop
      vertex 4.01298 5.42342e-031 23.6133
      vertex 4.67654 -22 22.7
      vertex 4.01298 -22 23.6133
    endloop
  endfacet
  facet normal -0.913545 2.93162e-016 -0.406737
    outer loop
      vertex 5.13571 5.42342e-031 21.6687
      vertex 5.1357 -22 21.6687
      vertex 4.67654 5.42342e-031 22.7
    endloop
  endfacet
  facet normal -0.913545 2.93162e-016 -0.406737
    outer loop
      vertex 4.67654 5.42342e-031 22.7
      vertex 5.1357 -22 21.6687
      vertex 4.67654 -22 22.7
    endloop
  endfacet
  facet normal -0.978148 2.63358e-016 -0.207912
    outer loop
      vertex 5.37042 5.42342e-031 20.5645
      vertex 5.37042 -22 20.5645
      vertex 5.13571 5.42342e-031 21.6687
    endloop
  endfacet
  facet normal -0.978148 2.63358e-016 -0.207912
    outer loop
      vertex 5.13571 5.42342e-031 21.6687
      vertex 5.37042 -22 20.5645
      vertex 5.1357 -22 21.6687
    endloop
  endfacet
  facet normal -1 2.22045e-016 0
    outer loop
      vertex 5.37042 5.42342e-031 20.5645
      vertex 5.37042 5.42342e-031 19.4355
      vertex 5.37042 -22 20.5645
    endloop
  endfacet
  facet normal -1 2.22045e-016 0
    outer loop
      vertex 5.37042 -22 20.5645
      vertex 5.37042 5.42342e-031 19.4355
      vertex 5.37042 -22 19.4355
    endloop
  endfacet
  facet normal -0.978148 1.71027e-016 0.207912
    outer loop
      vertex 5.37042 5.42342e-031 19.4355
      vertex 5.13571 5.42342e-031 18.3313
      vertex 5.37042 -22 19.4355
    endloop
  endfacet
  facet normal -0.978148 1.71027e-016 0.207912
    outer loop
      vertex 5.37042 -22 19.4355
      vertex 5.13571 5.42342e-031 18.3313
      vertex 5.1357 -22 18.3313
    endloop
  endfacet
  facet normal -0.913545 1.12534e-016 0.406737
    outer loop
      vertex 5.13571 5.42342e-031 18.3313
      vertex 4.67654 5.42342e-031 17.3
      vertex 5.1357 -22 18.3313
    endloop
  endfacet
  facet normal -0.913545 1.12534e-016 0.406737
    outer loop
      vertex 5.1357 -22 18.3313
      vertex 4.67654 5.42342e-031 17.3
      vertex 4.67654 -22 17.3
    endloop
  endfacet
  facet normal -0.809017 4.91233e-017 0.587785
    outer loop
      vertex 4.67654 5.42342e-031 17.3
      vertex 4.01298 5.42342e-031 16.3867
      vertex 4.67654 -22 17.3
    endloop
  endfacet
  facet normal -0.809017 4.91233e-017 0.587785
    outer loop
      vertex 4.67654 -22 17.3
      vertex 4.01298 5.42342e-031 16.3867
      vertex 4.01298 -22 16.3867
    endloop
  endfacet
  facet normal -0.669131 -1.64344e-017 0.743145
    outer loop
      vertex 4.01298 -22 16.3867
      vertex 4.01298 5.42342e-031 16.3867
      vertex 3.17404 5.42342e-031 15.6313
    endloop
  endfacet
  facet normal -0.669131 -1.64344e-017 0.743145
    outer loop
      vertex 3.17404 -22 15.6313
      vertex 4.01298 -22 16.3867
      vertex 3.17404 5.42342e-031 15.6313
    endloop
  endfacet
  facet normal -0.5 -8.12741e-017 0.866026
    outer loop
      vertex 3.17404 -22 15.6313
      vertex 3.17404 5.42342e-031 15.6313
      vertex 2.19638 5.42342e-031 15.0669
    endloop
  endfacet
  facet normal -0.5 -8.12741e-017 0.866026
    outer loop
      vertex 2.19638 -22 15.0669
      vertex 3.17404 -22 15.6313
      vertex 2.19638 5.42342e-031 15.0669
    endloop
  endfacet
  facet normal -0.309017 -1.42561e-016 0.951056
    outer loop
      vertex 2.19638 -22 15.0669
      vertex 2.19638 5.42342e-031 15.0669
      vertex 1.12272 5.42342e-031 14.718
    endloop
  endfacet
  facet normal -0.309017 -1.42561e-016 0.951056
    outer loop
      vertex 1.12272 -22 14.718
      vertex 2.19638 -22 15.0669
      vertex 1.12272 5.42342e-031 14.718
    endloop
  endfacet
  facet normal -0.104529 -1.97618e-016 0.994522
    outer loop
      vertex 1.12272 -22 14.718
      vertex 1.12272 5.42342e-031 14.718
      vertex 4.88498e-015 5.42342e-031 14.6
    endloop
  endfacet
  facet normal -0.104529 -1.97618e-016 0.994522
    outer loop
      vertex 0 -22 14.6
      vertex 1.12272 -22 14.718
      vertex 4.88498e-015 5.42342e-031 14.6
    endloop
  endfacet
  facet normal 0.104529 -2.44038e-016 0.994522
    outer loop
      vertex 0 -22 14.6
      vertex 4.88498e-015 5.42342e-031 14.6
      vertex -1.12272 5.42342e-031 14.718
    endloop
  endfacet
  facet normal 0.104529 -2.44038e-016 0.994522
    outer loop
      vertex -1.12272 -22 14.718
      vertex 0 -22 14.6
      vertex -1.12272 5.42342e-031 14.718
    endloop
  endfacet
  facet normal 0.309017 -2.79793e-016 0.951056
    outer loop
      vertex -1.12272 -22 14.718
      vertex -1.12272 5.42342e-031 14.718
      vertex -2.19638 5.42342e-031 15.0669
    endloop
  endfacet
  facet normal 0.309017 -2.79793e-016 0.951056
    outer loop
      vertex -2.19638 -22 15.0669
      vertex -1.12272 -22 14.718
      vertex -2.19638 5.42342e-031 15.0669
    endloop
  endfacet
  facet normal 0.5 -3.03319e-016 0.866026
    outer loop
      vertex -2.19638 -22 15.0669
      vertex -2.19638 5.42342e-031 15.0669
      vertex -3.17404 5.42342e-031 15.6313
    endloop
  endfacet
  facet normal 0.5 -3.03319e-016 0.866026
    outer loop
      vertex -3.17404 -22 15.6313
      vertex -2.19638 -22 15.0669
      vertex -3.17404 5.42342e-031 15.6313
    endloop
  endfacet
  facet normal 0.669131 -3.13588e-016 0.743145
    outer loop
      vertex -3.17404 -22 15.6313
      vertex -3.17404 5.42342e-031 15.6313
      vertex -4.01298 5.42342e-031 16.3867
    endloop
  endfacet
  facet normal 0.669131 -3.13588e-016 0.743145
    outer loop
      vertex -4.01298 -22 16.3867
      vertex -3.17404 -22 15.6313
      vertex -4.01298 5.42342e-031 16.3867
    endloop
  endfacet
  facet normal 0.809017 -3.10152e-016 0.587785
    outer loop
      vertex -4.01298 -22 16.3867
      vertex -4.01298 5.42342e-031 16.3867
      vertex -4.67654 5.42342e-031 17.3
    endloop
  endfacet
  facet normal 0.809017 -3.10152e-016 0.587785
    outer loop
      vertex -4.67654 -22 17.3
      vertex -4.01298 -22 16.3867
      vertex -4.67654 5.42342e-031 17.3
    endloop
  endfacet
  facet normal 0.913545 -2.93162e-016 0.406737
    outer loop
      vertex -4.67654 -22 17.3
      vertex -4.67654 5.42342e-031 17.3
      vertex -5.1357 5.42342e-031 18.3313
    endloop
  endfacet
  facet normal 0.913545 -2.93162e-016 0.406737
    outer loop
      vertex -5.1357 -22 18.3313
      vertex -4.67654 -22 17.3
      vertex -5.1357 5.42342e-031 18.3313
    endloop
  endfacet
  facet normal 0.978148 -2.63358e-016 0.207912
    outer loop
      vertex -5.1357 -22 18.3313
      vertex -5.1357 5.42342e-031 18.3313
      vertex -5.37042 5.42342e-031 19.4355
    endloop
  endfacet
  facet normal 0.978148 -2.63358e-016 0.207912
    outer loop
      vertex -5.37042 -22 19.4355
      vertex -5.1357 -22 18.3313
      vertex -5.37042 5.42342e-031 19.4355
    endloop
  endfacet
  facet normal 0 0 -1
    outer loop
      vertex 9 -13 41
      vertex 1.2063 -13 41
      vertex 9 -9.5 41
    endloop
  endfacet
  facet normal 0 0 -1
    outer loop
      vertex 9 -9.5 41
      vertex 1.2063 -13 41
      vertex 1.2063 -9.5 41
    endloop
  endfacet
  facet normal -0.104528 -1.97618e-016 0.994522
    outer loop
      vertex 0.873229 -20 40.8918
      vertex 0.873229 -13 40.8918
      vertex 1.55431e-015 -13 40.8
    endloop
  endfacet
  facet normal -0.104528 -1.97618e-016 0.994522
    outer loop
      vertex 0 -20 40.8
      vertex 0.873229 -20 40.8918
      vertex 1.55431e-015 -13 40.8
    endloop
  endfacet
  facet normal 0.104528 -2.44038e-016 0.994522
    outer loop
      vertex 0 -20 40.8
      vertex 1.55431e-015 -13 40.8
      vertex -0.873229 -13 40.8918
    endloop
  endfacet
  facet normal 0.104528 -2.44038e-016 0.994522
    outer loop
      vertex -0.873229 -20 40.8918
      vertex 0 -20 40.8
      vertex -0.873229 -13 40.8918
    endloop
  endfacet
  facet normal 2.22045e-016 1 2.22045e-016
    outer loop
      vertex -3.68183 -20 47
      vertex 3.68183 -20 47
      vertex -3.99444 -20 46.2979
    endloop
  endfacet
  facet normal 2.22045e-016 1 2.22045e-016
    outer loop
      vertex -3.99444 -20 46.2979
      vertex 3.68183 -20 47
      vertex 3.99444 -20 46.2979
    endloop
  endfacet
  facet normal 2.22045e-016 1 2.22045e-016
    outer loop
      vertex -3.99444 -20 46.2979
      vertex 3.99444 -20 46.2979
      vertex 4.17699 -20 45.439
    endloop
  endfacet
  facet normal 2.22045e-016 1 2.22045e-016
    outer loop
      vertex -3.99444 -20 46.2979
      vertex 4.17699 -20 45.439
      vertex 4.17699 -20 44.561
    endloop
  endfacet
  facet normal 2.22045e-016 1 2.22045e-016
    outer loop
      vertex -3.99444 -20 46.2979
      vertex 4.17699 -20 44.561
      vertex 3.99444 -20 43.7021
    endloop
  endfacet
  facet normal 2.22045e-016 1 2.22045e-016
    outer loop
      vertex -3.99444 -20 46.2979
      vertex 3.99444 -20 43.7021
      vertex 3.63731 -20 42.9
    endloop
  endfacet
  facet normal 2.22045e-016 1 2.22045e-016
    outer loop
      vertex -3.99444 -20 46.2979
      vertex 3.63731 -20 42.9
      vertex 3.12121 -20 42.1897
    endloop
  endfacet
  facet normal 2.22045e-016 1 2.22045e-016
    outer loop
      vertex -3.99444 -20 46.2979
      vertex 3.12121 -20 42.1897
      vertex 2.4687 -20 41.6021
    endloop
  endfacet
  facet normal 2.22045e-016 1 2.22045e-016
    outer loop
      vertex -3.99444 -20 46.2979
      vertex 2.4687 -20 41.6021
      vertex 1.70829 -20 41.1631
    endloop
  endfacet
  facet normal 2.22045e-016 1 2.22045e-016
    outer loop
      vertex -3.99444 -20 46.2979
      vertex 1.70829 -20 41.1631
      vertex 0.873229 -20 40.8918
    endloop
  endfacet
  facet normal 2.22045e-016 1 2.22045e-016
    outer loop
      vertex -3.99444 -20 46.2979
      vertex 0.873229 -20 40.8918
      vertex 0 -20 40.8
    endloop
  endfacet
  facet normal 2.22045e-016 1 2.22045e-016
    outer loop
      vertex -3.99444 -20 46.2979
      vertex 0 -20 40.8
      vertex -0.873229 -20 40.8918
    endloop
  endfacet
  facet normal 2.22045e-016 1 2.22045e-016
    outer loop
      vertex -3.99444 -20 46.2979
      vertex -0.873229 -20 40.8918
      vertex -1.70829 -20 41.1631
    endloop
  endfacet
  facet normal 2.22045e-016 1 2.22045e-016
    outer loop
      vertex -3.99444 -20 46.2979
      vertex -1.70829 -20 41.1631
      vertex -2.4687 -20 41.6021
    endloop
  endfacet
  facet normal 2.22045e-016 1 2.22045e-016
    outer loop
      vertex -3.99444 -20 46.2979
      vertex -2.4687 -20 41.6021
      vertex -3.12121 -20 42.1897
    endloop
  endfacet
  facet normal 2.22045e-016 1 2.22045e-016
    outer loop
      vertex -3.99444 -20 46.2979
      vertex -3.12121 -20 42.1897
      vertex -3.63731 -20 42.9
    endloop
  endfacet
  facet normal 2.22045e-016 1 2.22045e-016
    outer loop
      vertex -3.99444 -20 46.2979
      vertex -3.63731 -20 42.9
      vertex -3.99444 -20 43.7021
    endloop
  endfacet
  facet normal 2.22045e-016 1 2.22045e-016
    outer loop
      vertex -3.99444 -20 46.2979
      vertex -3.99444 -20 43.7021
      vertex -4.17699 -20 44.561
    endloop
  endfacet
  facet normal 2.22045e-016 1 2.22045e-016
    outer loop
      vertex -3.99444 -20 46.2979
      vertex -4.17699 -20 44.561
      vertex -4.17699 -20 45.439
    endloop
  endfacet
endsolid OpenSCAD_Model
